<?xml version="1.0" encoding="utf-8"?>
<!-- Generator: Adobe Illustrator 24.3.0, SVG Export Plug-In . SVG Version: 6.00 Build 0)  -->
<svg version="1.1" id="Layer_1" xmlns="http://www.w3.org/2000/svg" xmlns:xlink="http://www.w3.org/1999/xlink" x="0px" y="0px"
	 viewBox="0 0 27 18" style="enable-background:new 0 0 27 18;" xml:space="preserve">
<style type="text/css">
	.st0{fill:#FFFFFF;}
</style>
<path class="st0" d="M16.9,17.3L16.9,17.3c0.7,0.7,1.7,0.7,2.4,0l7.1-7.1c0.7-0.7,0.7-1.7,0-2.4l-7.1-7.1c-0.7-0.7-1.7-0.7-2.4,0
	l0,0c-0.7,0.7-0.7,1.7,0,2.4l4.3,4.3H1.8c-1,0-1.7,0.8-1.7,1.7l0,0c0,1,0.8,1.7,1.7,1.7h19.3l-4.3,4.3
	C16.2,15.6,16.2,16.6,16.9,17.3z"/>
</svg>
