<svg width="24" height="24" viewBox="0 0 24 24" fill="none" xmlns="http://www.w3.org/2000/svg">
<g clip-path="url(#clip0_1_1269)">
<path d="M23.9349 5.67429C23.8922 5.56947 23.8291 5.47396 23.7487 5.39412L18.6059 0.251265C18.5334 0.179755 18.4491 0.121959 18.3566 0.0798367C18.3287 0.0680816 18.2998 0.0577959 18.2709 0.0499592C18.2018 0.026449 18.1308 0.0122449 18.0583 0.00685714C18.0377 0.0102857 18.0196 0 18 0H11.1429C10.8367 0 10.5536 0.163592 10.4003 0.428571C10.247 0.693551 10.2475 1.02073 10.4003 1.28571C10.5531 1.55069 10.8362 1.71429 11.1429 1.71429H17.1429V4.28571C17.1429 4.968 17.4137 5.62188 17.8962 6.10384C18.3786 6.5858 19.0325 6.85714 19.7143 6.85714C20.0204 6.85714 20.3035 6.69355 20.4568 6.42857C20.6101 6.16359 20.6096 5.83641 20.4568 5.57143C20.304 5.30645 20.0209 5.14286 19.7143 5.14286C19.487 5.14286 19.2691 5.05273 19.1079 4.89208C18.9468 4.73143 18.8571 4.51347 18.8571 4.28571V2.92653L22.2857 6.3551V18C22.2857 18.2273 22.1956 18.4452 22.0349 18.6064C21.8743 18.7675 21.6563 18.8571 21.4286 18.8571H15.4286V17.1429H19.7143C20.0204 17.1429 20.3035 16.9793 20.4568 16.7143C20.6101 16.4493 20.6096 16.1221 20.4568 15.8571C20.304 15.5922 20.0209 15.4286 19.7143 15.4286H15.4286V13.7143H19.7143C20.0204 13.7143 20.3035 13.5507 20.4568 13.2857C20.6101 13.0207 20.6096 12.6936 20.4568 12.4286C20.304 12.1636 20.0209 12 19.7143 12H15.4286V10.2857H19.7143C20.0204 10.2857 20.3035 10.1221 20.4568 9.85714C20.6101 9.59216 20.6096 9.26498 20.4568 9C20.304 8.73502 20.0209 8.57143 19.7143 8.57143H14.9265L10.0344 3.67984C9.96147 3.60784 9.87624 3.55004 9.78269 3.50841C9.75722 3.49714 9.73127 3.49029 9.7058 3.48098C9.63331 3.456 9.55837 3.44131 9.48196 3.43641C9.46384 3.43837 9.44669 3.42857 9.42857 3.42857H2.57143C1.88914 3.42857 1.23527 3.69943 0.753306 4.18188C0.270857 4.66384 0 5.31771 0 6V21.4286C0 22.1109 0.270857 22.7647 0.753306 23.2467C1.23576 23.7287 1.88963 24 2.57143 24H12.8571C13.5394 24 14.1933 23.7291 14.6753 23.2467C15.1572 22.7642 15.4286 22.1104 15.4286 21.4286V20.5714H21.4286C22.1109 20.5714 22.7647 20.3006 23.2467 19.8181C23.7287 19.3357 24 18.6818 24 18V6C24 5.88833 23.9775 5.77763 23.9349 5.67429ZM13.7143 21.4286C13.7143 21.6558 13.6242 21.8738 13.4635 22.0349C13.3029 22.1961 13.0849 22.2857 12.8571 22.2857H2.57143C2.34416 22.2857 2.1262 22.1956 1.96506 22.0349C1.80392 21.8743 1.71429 21.6563 1.71429 21.4286V6C1.71429 5.77273 1.80441 5.55478 1.96506 5.39363C2.12571 5.23249 2.34367 5.14286 2.57143 5.14286H8.57143V7.71429C8.57143 8.39657 8.84229 9.05045 9.32473 9.53241C9.80718 10.0144 10.4611 10.2857 11.1429 10.2857C11.449 10.2857 11.7321 10.1221 11.8854 9.85714C12.0387 9.59216 12.0382 9.26498 11.8854 9C11.7326 8.73502 11.4495 8.57143 11.1429 8.57143C10.9156 8.57143 10.6976 8.48131 10.5365 8.32065C10.3753 8.16 10.2857 7.94204 10.2857 7.71429V6.3551L13.7143 9.78367V21.4286Z" fill="#E35E2C"/>
<path d="M11.1427 12H4.28555C3.97943 12 3.69632 12.1636 3.54302 12.4286C3.38971 12.6936 3.3902 13.0207 3.54302 13.2857C3.69583 13.5507 3.97894 13.7143 4.28555 13.7143H11.1427C11.4488 13.7143 11.7319 13.5507 11.8852 13.2857C12.0385 13.0207 12.038 12.6936 11.8852 12.4286C11.7324 12.1636 11.4493 12 11.1427 12Z" fill="#E35E2C"/>
<path d="M11.1427 15.4286H4.28555C3.97943 15.4286 3.69632 15.5922 3.54302 15.8572C3.38971 16.1221 3.3902 16.4493 3.54302 16.7143C3.69583 16.9793 3.97894 17.1429 4.28555 17.1429H11.1427C11.4488 17.1429 11.7319 16.9793 11.8852 16.7143C12.0385 16.4493 12.038 16.1221 11.8852 15.8572C11.7324 15.5922 11.4493 15.4286 11.1427 15.4286Z" fill="#E35E2C"/>
<path d="M11.1427 18.8572H4.28555C3.97943 18.8572 3.69632 19.0208 3.54302 19.2857C3.38971 19.5507 3.3902 19.8779 3.54302 20.1429C3.69583 20.4079 3.97894 20.5715 4.28555 20.5715H11.1427C11.4488 20.5715 11.7319 20.4079 11.8852 20.1429C12.0385 19.8779 12.038 19.5507 11.8852 19.2857C11.7324 19.0208 11.4493 18.8572 11.1427 18.8572Z" fill="#E35E2C"/>
</g>
<defs>
<clipPath id="clip0_1_1269">
<rect width="24" height="24" fill="white"/>
</clipPath>
</defs>
</svg>
