<svg width="21" height="21" viewBox="0 0 21 21" fill="none" xmlns="http://www.w3.org/2000/svg">
<g clip-path="url(#clip0_14_4207)">
<path d="M19.7711 11.8655C19.2028 11.8655 18.7418 12.3311 18.7418 12.9051V15.5663C18.7418 16.4627 18.3962 17.3046 17.7691 17.9385C17.142 18.5723 16.3078 18.9209 15.4203 18.9209H5.38022C4.49268 18.9209 3.65907 18.5718 3.03143 17.9385C2.40433 17.3051 2.0587 16.4627 2.0587 15.5663V5.43365C2.0587 4.5373 2.40433 3.69541 3.03143 3.06154C3.65853 2.42821 4.49268 2.07914 5.38022 2.07914H13.4915C14.0599 2.07914 14.5209 1.61354 14.5209 1.03957C14.5209 0.465602 14.0604 0 13.4915 0H5.38022C3.94323 0 2.59197 0.565257 1.57557 1.59121C0.559698 2.61772 0 3.98239 0 5.43365V15.5663C0 17.0176 0.559698 18.3823 1.57557 19.4088C2.59143 20.4353 3.94269 21 5.38022 21H15.4203C16.8573 21 18.2085 20.4347 19.2249 19.4088C20.2413 18.3828 20.8005 17.0182 20.8005 15.5663V12.9051C20.8005 12.3311 20.3395 11.8655 19.7711 11.8655Z" fill="#E35E2C"/>
<path d="M18.1708 4.44254H14.439C12.514 4.44254 10.7044 5.19948 9.34398 6.57396C7.98302 7.94898 7.23352 9.77599 7.23352 11.7195V14.7484C7.23352 15.3224 7.69454 15.788 8.26287 15.788C8.83119 15.788 9.29222 15.3224 9.29222 14.7484V11.7195C9.29222 10.3314 9.82765 9.02613 10.7998 8.04374C11.772 7.06189 13.0645 6.52168 14.4395 6.52168H18.16L17.0261 7.95061C16.6707 8.39879 16.7419 9.05281 17.1857 9.41168C17.3755 9.56525 17.603 9.63985 17.8284 9.63985C18.1298 9.63985 18.4291 9.50643 18.6324 9.24994L20.5013 6.89416C20.5061 6.88817 20.5104 6.88273 20.5153 6.87674C20.828 6.4792 21.0006 5.98147 21.0006 5.47394C21.0006 4.96641 20.828 4.46813 20.5131 4.06842L18.6329 1.69794C18.2776 1.24976 17.6295 1.17788 17.1862 1.53675C16.7425 1.89561 16.6713 2.55018 17.0266 2.99781L18.1714 4.4409L18.1708 4.44254Z" fill="#E35E2C"/>
</g>
<defs>
<clipPath id="clip0_14_4207">
<rect width="21" height="21" fill="white"/>
</clipPath>
</defs>
</svg>
