<?xml version="1.0" encoding="utf-8"?>
<!-- Generator: Adobe Illustrator 24.3.0, SVG Export Plug-In . SVG Version: 6.00 Build 0)  -->
<svg version="1.1" id="Layer_1" xmlns="http://www.w3.org/2000/svg" xmlns:xlink="http://www.w3.org/1999/xlink" x="0px" y="0px"
	 viewBox="0 0 15 15" style="enable-background:new 0 0 15 15;" xml:space="preserve">
<style type="text/css">
	.st0{fill:#A9A9A9;}
</style>
<path class="st0" d="M12.2,14.2L0.8,2.8c-0.5-0.5-0.5-1.3,0-1.9l0.1-0.1c0.5-0.5,1.3-0.5,1.9,0l11.4,11.4c0.5,0.5,0.5,1.3,0,1.9
	l-0.1,0.1C13.6,14.7,12.7,14.7,12.2,14.2z"/>
<path class="st0" d="M14.2,2.8L2.8,14.2c-0.5,0.5-1.3,0.5-1.9,0l-0.1-0.1c-0.5-0.5-0.5-1.3,0-1.9L12.2,0.8c0.5-0.5,1.3-0.5,1.9,0
	l0.1,0.1C14.7,1.4,14.7,2.3,14.2,2.8z"/>
</svg>
