<svg width="20" height="20" viewBox="0 0 20 20" fill="none" xmlns="http://www.w3.org/2000/svg">
<g clip-path="url(#clip0_303_11287)">
<path d="M19.9457 4.72857C19.9102 4.64122 19.8575 4.56163 19.7906 4.4951L15.5049 0.209388C15.4445 0.149796 15.3743 0.101633 15.2971 0.0665306C15.2739 0.0567347 15.2498 0.0481633 15.2257 0.0416327C15.1682 0.0220408 15.109 0.0102041 15.0486 0.00571429C15.0314 0.00857143 15.0163 0 15 0H9.28571C9.03061 0 8.79469 0.136327 8.66694 0.357143C8.53918 0.577959 8.53959 0.850612 8.66694 1.07143C8.79429 1.29224 9.0302 1.42857 9.28571 1.42857H14.2857V3.57143C14.2857 4.14 14.5114 4.6849 14.9135 5.08653C15.3155 5.48816 15.8604 5.71429 16.4286 5.71429C16.6837 5.71429 16.9196 5.57796 17.0473 5.35714C17.1751 5.13633 17.1747 4.86367 17.0473 4.64286C16.92 4.42204 16.6841 4.28571 16.4286 4.28571C16.2392 4.28571 16.0576 4.21061 15.9233 4.07673C15.789 3.94286 15.7143 3.76122 15.7143 3.57143V2.43878L18.5714 5.29592V15C18.5714 15.1894 18.4963 15.371 18.3624 15.5053C18.2286 15.6396 18.0469 15.7143 17.8571 15.7143H12.8571V14.2857H16.4286C16.6837 14.2857 16.9196 14.1494 17.0473 13.9286C17.1751 13.7078 17.1747 13.4351 17.0473 13.2143C16.92 12.9935 16.6841 12.8571 16.4286 12.8571H12.8571V11.4286H16.4286C16.6837 11.4286 16.9196 11.2922 17.0473 11.0714C17.1751 10.8506 17.1747 10.578 17.0473 10.3571C16.92 10.1363 16.6841 10 16.4286 10H12.8571V8.57143H16.4286C16.6837 8.57143 16.9196 8.4351 17.0473 8.21429C17.1751 7.99347 17.1747 7.72082 17.0473 7.5C16.92 7.27918 16.6841 7.14286 16.4286 7.14286H12.4388L8.36204 3.06653C8.30122 3.00653 8.2302 2.95837 8.15224 2.92367C8.13102 2.91429 8.10939 2.90857 8.08816 2.90082C8.02775 2.88 7.96531 2.86776 7.90163 2.86367C7.88653 2.86531 7.87224 2.85714 7.85714 2.85714H2.14286C1.57429 2.85714 1.02939 3.08286 0.627755 3.4849C0.225714 3.88653 0 4.43143 0 5V17.8571C0 18.4257 0.225714 18.9706 0.627755 19.3722C1.0298 19.7739 1.57469 20 2.14286 20H10.7143C11.2829 20 11.8278 19.7743 12.2294 19.3722C12.631 18.9702 12.8571 18.4253 12.8571 17.8571V17.1429H17.8571C18.4257 17.1429 18.9706 16.9171 19.3722 16.5151C19.7739 16.1131 20 15.5682 20 15V5C20 4.90694 19.9812 4.81469 19.9457 4.72857ZM11.4286 17.8571C11.4286 18.0465 11.3535 18.2282 11.2196 18.3624C11.0857 18.4967 10.9041 18.5714 10.7143 18.5714H2.14286C1.95347 18.5714 1.77184 18.4963 1.63755 18.3624C1.50327 18.2286 1.42857 18.0469 1.42857 17.8571V5C1.42857 4.81061 1.50367 4.62898 1.63755 4.49469C1.77143 4.36041 1.95306 4.28571 2.14286 4.28571H7.14286V6.42857C7.14286 6.99714 7.36857 7.54204 7.77061 7.94367C8.17265 8.34531 8.71755 8.57143 9.28571 8.57143C9.54082 8.57143 9.77673 8.4351 9.90449 8.21429C10.0322 7.99347 10.0318 7.72082 9.90449 7.5C9.77714 7.27918 9.54122 7.14286 9.28571 7.14286C9.09633 7.14286 8.91469 7.06776 8.78041 6.93388C8.64612 6.8 8.57143 6.61837 8.57143 6.42857V5.29592L11.4286 8.15306V17.8571Z" fill="#E66F05"/>
<path d="M9.28566 10H3.57137C3.31627 10 3.08035 10.1363 2.9526 10.3571C2.82484 10.578 2.82525 10.8506 2.9526 11.0714C3.07994 11.2922 3.31586 11.4286 3.57137 11.4286H9.28566C9.54076 11.4286 9.77668 11.2922 9.90443 11.0714C10.0322 10.8506 10.0318 10.578 9.90443 10.3571C9.77709 10.1363 9.54117 10 9.28566 10Z" fill="#E66F05"/>
<path d="M9.28566 12.8571H3.57137C3.31627 12.8571 3.08035 12.9935 2.9526 13.2143C2.82484 13.4351 2.82525 13.7078 2.9526 13.9286C3.07994 14.1494 3.31586 14.2857 3.57137 14.2857H9.28566C9.54076 14.2857 9.77668 14.1494 9.90443 13.9286C10.0322 13.7078 10.0318 13.4351 9.90443 13.2143C9.77709 12.9935 9.54117 12.8571 9.28566 12.8571Z" fill="#E66F05"/>
<path d="M9.28566 15.7143H3.57137C3.31627 15.7143 3.08035 15.8506 2.9526 16.0714C2.82484 16.2922 2.82525 16.5649 2.9526 16.7857C3.07994 17.0065 3.31586 17.1429 3.57137 17.1429H9.28566C9.54076 17.1429 9.77668 17.0065 9.90443 16.7857C10.0322 16.5649 10.0318 16.2922 9.90443 16.0714C9.77709 15.8506 9.54117 15.7143 9.28566 15.7143Z" fill="#E66F05"/>
</g>
<defs>
<clipPath id="clip0_303_11287">
<rect width="20" height="20" fill="white"/>
</clipPath>
</defs>
</svg>
