<svg width="22" height="22" viewBox="0 0 22 22" fill="none" xmlns="http://www.w3.org/2000/svg">
<g clip-path="url(#clip0_48_2102)">
<path d="M21.0191 2.4755H9.8087L8.54753 0.42039C8.36055 0.14013 8.08029 0 7.75359 0H0.934066C0.42039 0 0 0.42039 0 0.934066V21.0659C0 21.5796 0.42039 22 0.934066 22H21.0659C21.5796 22 22 21.5796 22 21.0659V3.36312C21.9536 2.89589 21.5332 2.4755 21.0191 2.4755Z" fill="#E35E2C"/>
<path d="M11.9308 14.4438V5.0769H9.64614V14.4438L6.67614 11.55L5.0769 13.1492L10.7884 18.7846L16.5 13.1492L14.9008 11.55L11.9308 14.4438Z" fill="white"/>
</g>
<defs>
<clipPath id="clip0_48_2102">
<rect width="22" height="22" fill="white"/>
</clipPath>
</defs>
</svg>
