<?xml version="1.0" encoding="utf-8"?>
<!-- Generator: Adobe Illustrator 26.5.0, SVG Export Plug-In . SVG Version: 6.00 Build 0)  -->
<svg version="1.1" id="Layer_1" xmlns="http://www.w3.org/2000/svg" xmlns:xlink="http://www.w3.org/1999/xlink" x="0px" y="0px"
	 viewBox="0 0 44.9 30" style="enable-background:new 0 0 44.9 30;" xml:space="preserve">
<style type="text/css">
	.st0{fill:#E87B05;}
	.st1{fill:#FFFFFF;}
</style>
<g>
	<path class="st0" d="M14,29.5c-7.4,0-13.5-6-13.5-13.5v-1.9c0-7.4,6-13.5,13.5-13.5h16.9c7.4,0,13.5,6,13.5,13.5V16
		c0,7.4-6,13.5-13.5,13.5H14z"/>
	<path class="st1" d="M30.9,1c7.2,0,13.1,5.9,13.1,13.1V16c0,7.2-5.9,13.1-13.1,13.1H14C6.8,29.1,0.9,23.2,0.9,16v-1.9
		C0.9,6.8,6.8,1,14,1H30.9 M30.9,0.2H14C6.4,0.2,0.1,6.4,0.1,14.1V16c0,7.6,6.2,13.8,13.8,13.8h16.9c7.6,0,13.8-6.2,13.8-13.8v-1.9
		C44.7,6.4,38.5,0.2,30.9,0.2L30.9,0.2z"/>
</g>
<path class="st1" d="M25,6.7L25,6.7c0.6-0.6,1.7-0.6,2.4,0l7.2,7.2c0.6,0.6,0.6,1.7-0.1,2.3l-7.2,7.2c-0.6,0.6-1.7,0.6-2.4,0l0,0
	c-0.6-0.6-0.6-1.7,0-2.4l4.3-4.3l-16.4,0.2c-1,0-1.7-0.7-1.7-1.7l0,0c0-1,0.7-1.7,1.7-1.7l16.5-0.1L25,9C24.3,8.3,24.3,7.3,25,6.7z"
	/>
</svg>
