<?xml version="1.0" encoding="utf-8"?>
<!-- Generator: Adobe Illustrator 26.5.0, SVG Export Plug-In . SVG Version: 6.00 Build 0)  -->
<svg version="1.1" id="Layer_1" xmlns="http://www.w3.org/2000/svg" xmlns:xlink="http://www.w3.org/1999/xlink" x="0px" y="0px"
	 viewBox="0 0 44.9 30.1" style="enable-background:new 0 0 44.9 30.1;" xml:space="preserve">
<style type="text/css">
	.st0{fill:#FFFFFF;}
	.st1{fill:#3A74B9;}
</style>
<g>
	<path class="st0" d="M14,29.5c-7.4,0-13.5-6-13.5-13.5v-1.9c0-7.4,6-13.5,13.5-13.5h16.9c7.4,0,13.5,6,13.5,13.5V16
		c0,7.4-6,13.5-13.5,13.5H14z"/>
	<path class="st0" d="M30.9,1C38.1,1,44,6.8,44,14.1V16c0,7.2-5.9,13.1-13.1,13.1H14C6.8,29.1,0.9,23.2,0.9,16v-1.9
		C0.9,6.8,6.8,1,14,1H30.9 M30.9,0.2H14C6.4,0.2,0.2,6.4,0.2,14.1V16c0,7.6,6.2,13.8,13.8,13.8h16.9c7.6,0,13.8-6.2,13.8-13.8v-1.9
		C44.7,6.4,38.5,0.2,30.9,0.2L30.9,0.2z"/>
</g>
<g>
	<path class="st1" d="M27.1,21.5L16,10.4c-0.5-0.5-0.5-1.2,0-1.8l0.1-0.1c0.5-0.5,1.3-0.5,1.8,0L29,19.6c0.5,0.5,0.5,1.3,0,1.8
		l-0.1,0.1C28.4,22,27.5,22,27.1,21.5z"/>
	<path class="st1" d="M29,10.4L17.9,21.5c-0.5,0.5-1.3,0.5-1.8,0L16,21.4c-0.5-0.5-0.5-1.3,0-1.8L27.1,8.5c0.4-0.5,1.2-0.5,1.8,0
		L29,8.6C29.5,9.1,29.5,9.9,29,10.4z"/>
</g>
</svg>
