<?xml version="1.0" encoding="utf-8"?>
<!-- Generator: Adobe Illustrator 26.5.0, SVG Export Plug-In . SVG Version: 6.00 Build 0)  -->
<svg version="1.1" id="Layer_1" xmlns="http://www.w3.org/2000/svg" xmlns:xlink="http://www.w3.org/1999/xlink" x="0px" y="0px"
	 viewBox="0 0 22 21" style="enable-background:new 0 0 22 21;" xml:space="preserve">
<style type="text/css">
	.st0{fill:#FFFFFF;}
</style>
<path class="st0" d="M16.2,13.3c2.5-4.1,1.2-9.4-2.9-11.9S3.9,0.2,1.4,4.2s-1.2,9.4,2.9,11.9c3,1.8,6.8,1.7,9.7-0.4l5.2,4.8
	c0.7,0.6,1.8,0.5,2.3-0.2c0.6-0.7,0.5-1.7-0.1-2.3L16.2,13.3z M9.1,14.1C6.1,14.2,3.6,11.9,3.5,9C3.4,6,5.7,3.6,8.6,3.4
	c2.9-0.1,5.4,2.2,5.6,5.1C14.3,11.5,12,14,9.1,14.1z"/>
</svg>
