<svg width="26" height="19" viewBox="0 0 26 19" fill="none" xmlns="http://www.w3.org/2000/svg">
<g clip-path="url(#clip0_2817_3946)">
<path d="M2.31716 10.0809C1.20477 7.92769 1.10244 5.76881 2.23378 3.61557C4.58363 -0.861759 10.9661 -1.27101 13.858 2.88718C14.2768 3.48791 14.707 3.83896 15.4707 3.96474C17.1781 4.24633 18.3492 5.28259 19.0504 6.92522C20.3049 6.43149 21.5253 6.46904 22.6567 7.20493C23.5644 7.7944 24.258 8.62604 24.3584 9.6867C24.4551 10.7211 24.8075 11.4927 25.4973 12.2792C26.2876 13.1785 26.0507 14.2748 25.4462 15.2491C24.6503 16.5313 23.4431 17.3235 22.0465 17.8041C18.1161 19.1595 14.11 19.2965 10.0243 18.555C8.71294 18.3166 7.33145 18.4949 5.98976 18.3767C4.04165 18.2039 2.32285 17.4699 1.04748 15.9456C-0.648581 13.9181 -0.258202 11.7085 1.9969 10.325C2.09923 10.2612 2.19209 10.1786 2.31716 10.0828V10.0809ZM11.4172 9.4389C11.3527 10.263 11.4247 10.9576 11.2125 11.5527C11.0514 12.0089 10.5777 12.5946 10.1607 12.6678C9.63772 12.7598 8.766 12.559 8.51964 12.1797C8.06672 11.4851 7.5797 11.6203 6.97897 11.6691C7.01498 12.8743 8.05725 13.0226 8.81337 13.522C7.79194 13.4356 6.81031 13.2592 5.83815 13.0377C5.0555 12.8593 4.00754 13.1822 3.66264 13.7961C3.19078 14.6315 3.68349 15.2416 4.24063 15.7691C4.57416 16.0845 4.99675 16.4224 5.42503 16.5031C6.64544 16.7322 7.89049 16.8392 9.12605 16.9856C9.55244 17.0363 10.0129 16.98 10.4071 17.1189C13.2042 18.0988 16.0657 18.3541 18.9727 17.821C20.8962 17.4681 22.704 16.8148 23.7975 15.0295C24.438 13.9857 24.2428 13.0846 23.3806 12.2548C23.1096 11.9939 22.9182 11.5621 22.8651 11.1848C22.6813 9.85754 21.7414 9.00337 20.4016 9.17045C19.8103 9.24367 19.2475 9.54966 18.6392 9.7618C18.2924 8.71239 17.6121 7.91455 16.3556 7.77563C15.5806 7.68927 15.0159 7.78314 14.779 8.74619C14.4454 10.0941 13.6382 11.1998 12.4822 12.0352C12.4822 9.90259 12.4746 7.85072 12.486 5.79697C12.4898 4.96346 12.2491 4.0173 13.4581 3.61932C12.6679 3.88214 11.618 3.02422 11.2296 4.28388C9.79311 2.78393 7.32955 3.38654 6.8899 5.73878C6.77241 6.37142 6.79894 7.03973 6.82547 7.6874C6.90506 9.7205 9.11279 11.4269 11.4191 9.4389H11.4172Z" fill="white"/>
<path d="M7.9043 6.97225C8.07296 6.28704 8.12412 5.53425 8.45386 4.92977C8.67937 4.51301 9.29147 4.06058 9.72733 4.06621C10.1651 4.07185 10.7999 4.5299 10.9932 4.94854C11.556 6.17628 11.5371 7.4885 11.0482 8.76506C10.8037 9.40146 10.3148 9.9102 9.62879 9.72247C9.13229 9.58731 8.60357 9.15929 8.33447 8.71437C8.04643 8.23942 8.04453 7.59363 7.90619 6.97037L7.9043 6.97225Z" fill="white"/>
</g>
<defs>
<clipPath id="clip0_2817_3946">
<rect width="26" height="19" fill="white"/>
</clipPath>
</defs>
</svg>
