<svg width="18" height="20" viewBox="0 0 18 20" fill="none" xmlns="http://www.w3.org/2000/svg">
<rect y="0.881653" width="17.0985" height="19" rx="3" fill="#004A8B"/>
<mask id="path-2-outside-1_1821_5310" maskUnits="userSpaceOnUse" x="6.2998" y="3.88165" width="5" height="12" fill="black">
<rect fill="white" x="6.2998" y="3.88165" width="5" height="12"/>
<path d="M10.1718 14.8817H7.1158C6.97714 14.8817 6.91847 14.8177 6.9398 14.6897L7.0518 14.0017C7.06247 13.8737 7.1318 13.8097 7.2598 13.8097H8.1558L8.9718 8.08165H8.0758C7.93714 8.08165 7.87847 8.01765 7.8998 7.88965L7.9958 7.20165C8.01714 7.07365 8.0918 7.00965 8.2198 7.00965H10.2358C10.3638 7.00965 10.4225 7.07365 10.4118 7.20165L9.4838 13.8097H10.3318C10.4598 13.8097 10.5185 13.8737 10.5078 14.0017L10.4118 14.6897C10.4011 14.8177 10.3211 14.8817 10.1718 14.8817ZM10.0758 4.36965C10.3318 4.36965 10.5345 4.44965 10.6838 4.60965C10.8331 4.75899 10.9078 4.95632 10.9078 5.20165C10.9078 5.44699 10.8011 5.67099 10.5878 5.87365C10.3745 6.06565 10.1451 6.16165 9.8998 6.16165C9.65447 6.16165 9.45714 6.08699 9.3078 5.93765C9.16914 5.78832 9.0998 5.59099 9.0998 5.34565C9.0998 5.10032 9.20114 4.87632 9.4038 4.67365C9.60647 4.47099 9.83047 4.36965 10.0758 4.36965Z"/>
</mask>
<path d="M10.1718 14.8817H7.1158C6.97714 14.8817 6.91847 14.8177 6.9398 14.6897L7.0518 14.0017C7.06247 13.8737 7.1318 13.8097 7.2598 13.8097H8.1558L8.9718 8.08165H8.0758C7.93714 8.08165 7.87847 8.01765 7.8998 7.88965L7.9958 7.20165C8.01714 7.07365 8.0918 7.00965 8.2198 7.00965H10.2358C10.3638 7.00965 10.4225 7.07365 10.4118 7.20165L9.4838 13.8097H10.3318C10.4598 13.8097 10.5185 13.8737 10.5078 14.0017L10.4118 14.6897C10.4011 14.8177 10.3211 14.8817 10.1718 14.8817ZM10.0758 4.36965C10.3318 4.36965 10.5345 4.44965 10.6838 4.60965C10.8331 4.75899 10.9078 4.95632 10.9078 5.20165C10.9078 5.44699 10.8011 5.67099 10.5878 5.87365C10.3745 6.06565 10.1451 6.16165 9.8998 6.16165C9.65447 6.16165 9.45714 6.08699 9.3078 5.93765C9.16914 5.78832 9.0998 5.59099 9.0998 5.34565C9.0998 5.10032 9.20114 4.87632 9.4038 4.67365C9.60647 4.47099 9.83047 4.36965 10.0758 4.36965Z" fill="white"/>
<path d="M6.9398 14.6897L7.08776 14.7143L7.08786 14.7138L6.9398 14.6897ZM7.0518 14.0017L7.20031 14.0258L7.20129 14.0141L7.0518 14.0017ZM8.1558 13.8097V13.9597H8.28595L8.30431 13.8308L8.1558 13.8097ZM8.9718 8.08165L9.12031 8.10281L9.14469 7.93165H8.9718V8.08165ZM7.8998 7.88965L8.04782 7.91432L8.04837 7.91038L7.8998 7.88965ZM7.9958 7.20165L7.84779 7.17698L7.84724 7.18092L7.9958 7.20165ZM10.4118 7.20165L10.5606 7.22255L10.5613 7.21411L10.4118 7.20165ZM9.4838 13.8097L9.33526 13.7888L9.31127 13.9597H9.4838V13.8097ZM10.5078 14.0017L10.6566 14.0224L10.6573 14.0141L10.5078 14.0017ZM10.4118 14.6897L10.263 14.6689L10.2623 14.6772L10.4118 14.6897ZM10.6838 4.60965L10.5741 4.71206L10.5777 4.71572L10.6838 4.60965ZM10.5878 5.87365L10.6882 5.98519L10.6911 5.9824L10.5878 5.87365ZM9.3078 5.93765L9.19781 6.03979L9.20174 6.04372L9.3078 5.93765ZM9.4038 4.67365L9.29774 4.56759L9.4038 4.67365ZM10.1718 14.7317H7.1158V15.0317H10.1718V14.7317ZM7.1158 14.7317C7.09191 14.7317 7.07873 14.7288 7.07308 14.727C7.06825 14.7254 7.07242 14.7258 7.07838 14.7323C7.08469 14.7392 7.08612 14.7454 7.08605 14.745C7.08571 14.7433 7.08447 14.7341 7.08776 14.7143L6.79185 14.665C6.77746 14.7513 6.78368 14.8548 6.85723 14.935C6.92813 15.0124 7.02893 15.0317 7.1158 15.0317V14.7317ZM7.08786 14.7138L7.19986 14.0258L6.90375 13.9776L6.79175 14.6656L7.08786 14.7138ZM7.20129 14.0141C7.20295 13.9942 7.20649 13.982 7.20927 13.9753C7.21061 13.9721 7.21175 13.9702 7.2124 13.9693C7.21303 13.9684 7.21341 13.968 7.21355 13.9679C7.21368 13.9677 7.21406 13.9674 7.21498 13.9669C7.21593 13.9663 7.21783 13.9654 7.22108 13.9643C7.22778 13.9622 7.23999 13.9597 7.2598 13.9597V13.6597C7.17174 13.6597 7.08105 13.6819 7.01006 13.7474C6.93915 13.8129 6.90963 13.9015 6.90232 13.9892L7.20129 14.0141ZM7.2598 13.9597H8.1558V13.6597H7.2598V13.9597ZM8.30431 13.8308L9.12031 8.10281L8.8233 8.0605L8.0073 13.7885L8.30431 13.8308ZM8.9718 7.93165H8.0758V8.23165H8.9718V7.93165ZM8.0758 7.93165C8.05191 7.93165 8.03873 7.9288 8.03308 7.92697C8.02825 7.9254 8.03242 7.92579 8.03838 7.93229C8.04469 7.93918 8.04612 7.94538 8.04605 7.94502C8.04571 7.9433 8.04447 7.93409 8.04776 7.91431L7.75185 7.86499C7.73746 7.95131 7.74368 8.05478 7.81723 8.13501C7.88813 8.21236 7.98893 8.23165 8.0758 8.23165V7.93165ZM8.04837 7.91038L8.14437 7.22238L7.84724 7.18092L7.75124 7.86892L8.04837 7.91038ZM8.14376 7.22631C8.15051 7.18583 8.16234 7.17418 8.16542 7.17154C8.16824 7.16912 8.18061 7.15965 8.2198 7.15965V6.85965C8.131 6.85965 8.04203 6.88218 7.97019 6.94376C7.8986 7.00512 7.86243 7.08948 7.84785 7.17699L8.14376 7.22631ZM8.2198 7.15965H10.2358V6.85965H8.2198V7.15965ZM10.2358 7.15965C10.2559 7.15965 10.2663 7.16224 10.2702 7.16354C10.2731 7.16454 10.2697 7.16388 10.2652 7.15901C10.2608 7.15416 10.2605 7.15084 10.2613 7.15403C10.2623 7.15813 10.264 7.16896 10.2623 7.1892L10.5613 7.21411C10.5684 7.12852 10.5552 7.0314 10.4864 6.95629C10.4174 6.88106 10.3217 6.85965 10.2358 6.85965V7.15965ZM10.2633 7.18079L9.33526 13.7888L9.63235 13.8305L10.5603 7.22251L10.2633 7.18079ZM9.4838 13.9597H10.3318V13.6597H9.4838V13.9597ZM10.3318 13.9597C10.3519 13.9597 10.3623 13.9622 10.3662 13.9635C10.3691 13.9645 10.3657 13.9639 10.3612 13.959C10.3568 13.9542 10.3565 13.9508 10.3573 13.954C10.3583 13.9581 10.36 13.969 10.3583 13.9892L10.6573 14.0141C10.6644 13.9285 10.6512 13.8314 10.5824 13.7563C10.5134 13.6811 10.4177 13.6597 10.3318 13.6597V13.9597ZM10.3592 13.9809L10.2632 14.6689L10.5604 14.7104L10.6564 14.0224L10.3592 13.9809ZM10.2623 14.6772C10.2595 14.7112 10.2502 14.7165 10.2501 14.7165C10.2465 14.7194 10.2275 14.7317 10.1718 14.7317V15.0317C10.2654 15.0317 10.3611 15.0119 10.4375 14.9508C10.5175 14.8868 10.5535 14.7961 10.5613 14.7021L10.2623 14.6772ZM10.0758 4.51965C10.2979 4.51965 10.458 4.5876 10.5741 4.712L10.7935 4.5073C10.6109 4.31171 10.3657 4.21965 10.0758 4.21965V4.51965ZM10.5777 4.71572C10.6944 4.83236 10.7578 4.98915 10.7578 5.20165H11.0578C11.0578 4.92349 10.9719 4.68561 10.7899 4.50359L10.5777 4.71572ZM10.7578 5.20165C10.7578 5.39779 10.6744 5.58446 10.4845 5.7649L10.6911 5.9824C10.9278 5.75751 11.0578 5.49618 11.0578 5.20165H10.7578ZM10.4875 5.76216C10.2967 5.93384 10.1019 6.01165 9.8998 6.01165V6.31165C10.1884 6.31165 10.4522 6.19746 10.6881 5.98515L10.4875 5.76216ZM9.8998 6.01165C9.6873 6.01165 9.53051 5.94823 9.41387 5.83159L9.20174 6.04372C9.38377 6.22575 9.62164 6.31165 9.8998 6.31165V6.01165ZM9.41772 5.83558C9.30988 5.71945 9.2498 5.56129 9.2498 5.34565H8.9498C8.9498 5.62069 9.02839 5.85719 9.19789 6.03972L9.41772 5.83558ZM9.2498 5.34565C9.2498 5.14679 9.33023 4.95936 9.50987 4.77972L9.29774 4.56759C9.07205 4.79328 8.9498 5.05385 8.9498 5.34565H9.2498ZM9.50987 4.77972C9.68952 4.60007 9.87694 4.51965 10.0758 4.51965V4.21965C9.784 4.21965 9.52343 4.3419 9.29774 4.56759L9.50987 4.77972Z" fill="white" mask="url(#path-2-outside-1_1821_5310)"/>
</svg>
