<svg width="30" height="30" viewBox="0 0 30 30" fill="none" xmlns="http://www.w3.org/2000/svg">
<g clip-path="url(#clip0_201_990)">
<path d="M22.1641 18.8641C25.8899 13.3286 24.3996 5.87699 18.8641 2.15118C13.3286 -1.57462 5.877 -0.084301 2.15119 5.45118C-1.57462 10.9867 -0.0842933 18.4383 5.45119 22.1641C9.49635 24.9318 14.8189 24.9318 18.8641 22.1641L25.7834 29.0834C26.7415 29.9351 28.2318 29.9351 29.0834 28.977C29.9351 28.1254 29.9351 26.7415 29.0834 25.7834L22.1641 18.8641ZM12.1576 19.6092C8.00603 19.6092 4.70603 16.3092 4.70603 12.1576C4.70603 8.00602 8.00603 4.70602 12.1576 4.70602C16.3093 4.70602 19.6093 8.00602 19.6093 12.1576C19.6093 16.3092 16.3093 19.6092 12.1576 19.6092V19.6092Z" fill="#1C4794"/>
</g>
<defs>
<clipPath id="clip0_201_990">
<rect width="29.6255" height="29.6148" fill="white" transform="translate(0.0968018 0.0967712)"/>
</clipPath>
</defs>
</svg>
