<svg width="19" height="19" viewBox="0 0 19 19" fill="none" xmlns="http://www.w3.org/2000/svg">
<g clip-path="url(#clip0_1149_1796)">
<path d="M13.7334 11.7834C15.935 8.51244 15.0544 4.10921 11.7834 1.9076C8.51244 -0.294014 4.10921 0.586632 1.9076 3.8576C-0.294014 7.12857 0.586632 11.5318 3.8576 13.7334C6.24792 15.3689 9.39308 15.3689 11.7834 13.7334L15.8721 17.8221C16.4382 18.3253 17.3189 18.3253 17.8221 17.7592C18.3253 17.256 18.3253 16.4382 17.8221 15.8721L13.7334 11.7834ZM7.8205 12.2237C5.36728 12.2237 3.41728 10.2737 3.41728 7.8205C3.41728 5.36728 5.36728 3.41728 7.8205 3.41728C10.2737 3.41728 12.2237 5.36728 12.2237 7.8205C12.2237 10.2737 10.2737 12.2237 7.8205 12.2237Z" fill="#1C4794"/>
</g>
<defs>
<clipPath id="clip0_1149_1796">
<rect width="17.506" height="17.4997" fill="white" transform="translate(0.693604 0.693542)"/>
</clipPath>
</defs>
</svg>
