<svg width="23" height="25" viewBox="0 0 23 25" fill="none" xmlns="http://www.w3.org/2000/svg">
<circle cx="11.5" cy="13.5" r="11.5" fill="white"/>
<path d="M12.0796 16.2979H10.6104L10.2119 7.86426H12.478L12.0796 16.2979ZM10.1123 18.9707C10.1123 18.5169 10.2285 18.1987 10.4609 18.0161C10.6989 17.828 10.9894 17.7339 11.3325 17.7339C11.6701 17.7339 11.9578 17.828 12.1958 18.0161C12.4338 18.1987 12.5527 18.5169 12.5527 18.9707C12.5527 19.4134 12.4338 19.7344 12.1958 19.9336C11.9578 20.1273 11.6701 20.2241 11.3325 20.2241C10.9894 20.2241 10.6989 20.1273 10.4609 19.9336C10.2285 19.7344 10.1123 19.4134 10.1123 18.9707Z" fill="#BB0E3D"/>
</svg>
