<svg width="380" height="52" viewBox="0 0 380 52" fill="none" xmlns="http://www.w3.org/2000/svg">
<path d="M63.3518 3.4624C62.3405 2.01134 60.7465 1 59.0096 1H55.1072L68.2656 24.2829L55.1072 47.5657H59.0096C60.8894 47.5657 62.4834 46.5544 63.3518 45.1033L74.9273 24.2719L63.3518 3.44041V3.4624Z" fill="#BA1F40"/>
<path d="M64.6489 24.2938L51.7763 1.01093H5.05671C2.16559 1.01093 0 3.31942 0 6.06764V42.6628C0 45.411 2.16559 47.7305 5.0677 47.7305H51.7873L64.6599 24.2938H64.6489Z" fill="#606061"/>
<path d="M31.0987 14.0266H27.625V34.7152H31.0987V14.0266Z" fill="white"/>
<path d="M20.6771 14.0267V29.065L11.1353 14.0267H7.80444V34.7153H11.1353V19.5232L20.6771 34.7153H24.1508V14.0267H20.6771Z" fill="white"/>
<path d="M47.4337 14.0267V22.5572H37.892V14.0267H34.4182V34.7153H37.892V26.0309H47.4337V34.7153H50.9075V14.0267H47.4337Z" fill="white"/>
<path d="M86.494 29V16.4H91.948C93.076 16.4 94.048 16.586 94.864 16.958C95.68 17.318 96.31 17.84 96.754 18.524C97.198 19.208 97.42 20.024 97.42 20.972C97.42 21.908 97.198 22.718 96.754 23.402C96.31 24.086 95.68 24.614 94.864 24.986C94.048 25.346 93.076 25.526 91.948 25.526H88.114L89.41 24.212V29H86.494ZM89.41 24.536L88.114 23.15H91.786C92.686 23.15 93.358 22.958 93.802 22.574C94.246 22.19 94.468 21.656 94.468 20.972C94.468 20.276 94.246 19.736 93.802 19.352C93.358 18.968 92.686 18.776 91.786 18.776H88.114L89.41 17.39V24.536ZM99.2862 29V19.316H101.968V22.052L101.59 21.26C101.878 20.576 102.34 20.06 102.976 19.712C103.612 19.352 104.386 19.172 105.298 19.172V21.764C105.178 21.752 105.07 21.746 104.974 21.746C104.878 21.734 104.776 21.728 104.668 21.728C103.9 21.728 103.276 21.95 102.796 22.394C102.328 22.826 102.094 23.504 102.094 24.428V29H99.2862ZM111.704 29.144C110.6 29.144 109.628 28.928 108.788 28.496C107.96 28.064 107.318 27.476 106.862 26.732C106.406 25.976 106.178 25.118 106.178 24.158C106.178 23.186 106.4 22.328 106.844 21.584C107.3 20.828 107.918 20.24 108.698 19.82C109.478 19.388 110.36 19.172 111.344 19.172C112.292 19.172 113.144 19.376 113.9 19.784C114.668 20.18 115.274 20.756 115.718 21.512C116.162 22.256 116.384 23.15 116.384 24.194C116.384 24.302 116.378 24.428 116.366 24.572C116.354 24.704 116.342 24.83 116.33 24.95H108.464V23.312H114.854L113.774 23.798C113.774 23.294 113.672 22.856 113.468 22.484C113.264 22.112 112.982 21.824 112.622 21.62C112.262 21.404 111.842 21.296 111.362 21.296C110.882 21.296 110.456 21.404 110.084 21.62C109.724 21.824 109.442 22.118 109.238 22.502C109.034 22.874 108.932 23.318 108.932 23.834V24.266C108.932 24.794 109.046 25.262 109.274 25.67C109.514 26.066 109.844 26.372 110.264 26.588C110.696 26.792 111.2 26.894 111.776 26.894C112.292 26.894 112.742 26.816 113.126 26.66C113.522 26.504 113.882 26.27 114.206 25.958L115.7 27.578C115.256 28.082 114.698 28.472 114.026 28.748C113.354 29.012 112.58 29.144 111.704 29.144ZM122.411 29.144C121.499 29.144 120.677 28.94 119.945 28.532C119.213 28.112 118.631 27.53 118.199 26.786C117.779 26.042 117.569 25.166 117.569 24.158C117.569 23.138 117.779 22.256 118.199 21.512C118.631 20.768 119.213 20.192 119.945 19.784C120.677 19.376 121.499 19.172 122.411 19.172C123.227 19.172 123.941 19.352 124.553 19.712C125.165 20.072 125.639 20.618 125.975 21.35C126.311 22.082 126.479 23.018 126.479 24.158C126.479 25.286 126.317 26.222 125.993 26.966C125.669 27.698 125.201 28.244 124.589 28.604C123.989 28.964 123.263 29.144 122.411 29.144ZM122.897 26.84C123.353 26.84 123.767 26.732 124.139 26.516C124.511 26.3 124.805 25.994 125.021 25.598C125.249 25.19 125.363 24.71 125.363 24.158C125.363 23.594 125.249 23.114 125.021 22.718C124.805 22.322 124.511 22.016 124.139 21.8C123.767 21.584 123.353 21.476 122.897 21.476C122.429 21.476 122.009 21.584 121.637 21.8C121.265 22.016 120.965 22.322 120.737 22.718C120.521 23.114 120.413 23.594 120.413 24.158C120.413 24.71 120.521 25.19 120.737 25.598C120.965 25.994 121.265 26.3 121.637 26.516C122.009 26.732 122.429 26.84 122.897 26.84ZM125.435 29V27.02L125.489 24.14L125.309 21.278V15.644H128.117V29H125.435ZM130.716 29V19.316H133.524V29H130.716ZM132.12 17.966C131.604 17.966 131.184 17.816 130.86 17.516C130.536 17.216 130.374 16.844 130.374 16.4C130.374 15.956 130.536 15.584 130.86 15.284C131.184 14.984 131.604 14.834 132.12 14.834C132.636 14.834 133.056 14.978 133.38 15.266C133.704 15.542 133.866 15.902 133.866 16.346C133.866 16.814 133.704 17.204 133.38 17.516C133.068 17.816 132.648 17.966 132.12 17.966ZM140.81 29.144C139.766 29.144 138.836 28.934 138.02 28.514C137.204 28.082 136.562 27.488 136.094 26.732C135.638 25.976 135.41 25.118 135.41 24.158C135.41 23.186 135.638 22.328 136.094 21.584C136.562 20.828 137.204 20.24 138.02 19.82C138.836 19.388 139.766 19.172 140.81 19.172C141.83 19.172 142.718 19.388 143.474 19.82C144.23 20.24 144.788 20.846 145.148 21.638L142.97 22.808C142.718 22.352 142.4 22.016 142.016 21.8C141.644 21.584 141.236 21.476 140.792 21.476C140.312 21.476 139.88 21.584 139.496 21.8C139.112 22.016 138.806 22.322 138.578 22.718C138.362 23.114 138.254 23.594 138.254 24.158C138.254 24.722 138.362 25.202 138.578 25.598C138.806 25.994 139.112 26.3 139.496 26.516C139.88 26.732 140.312 26.84 140.792 26.84C141.236 26.84 141.644 26.738 142.016 26.534C142.4 26.318 142.718 25.976 142.97 25.508L145.148 26.696C144.788 27.476 144.23 28.082 143.474 28.514C142.718 28.934 141.83 29.144 140.81 29.144ZM150.865 29.144C149.725 29.144 148.837 28.856 148.201 28.28C147.565 27.692 147.247 26.822 147.247 25.67V17.174H150.055V25.634C150.055 26.042 150.163 26.36 150.379 26.588C150.595 26.804 150.889 26.912 151.261 26.912C151.705 26.912 152.083 26.792 152.395 26.552L153.151 28.532C152.863 28.736 152.515 28.892 152.107 29C151.711 29.096 151.297 29.144 150.865 29.144ZM145.753 21.692V19.532H152.467V21.692H145.753ZM154.728 29V19.316H157.536V29H154.728ZM156.132 17.966C155.616 17.966 155.196 17.816 154.872 17.516C154.548 17.216 154.386 16.844 154.386 16.4C154.386 15.956 154.548 15.584 154.872 15.284C155.196 14.984 155.616 14.834 156.132 14.834C156.648 14.834 157.068 14.978 157.392 15.266C157.716 15.542 157.878 15.902 157.878 16.346C157.878 16.814 157.716 17.204 157.392 17.516C157.08 17.816 156.66 17.966 156.132 17.966ZM162.77 29L158.702 19.316H161.6L164.984 27.65H163.544L167.054 19.316H169.754L165.668 29H162.77ZM175.442 29.144C174.338 29.144 173.366 28.928 172.526 28.496C171.698 28.064 171.056 27.476 170.6 26.732C170.144 25.976 169.916 25.118 169.916 24.158C169.916 23.186 170.138 22.328 170.582 21.584C171.038 20.828 171.656 20.24 172.436 19.82C173.216 19.388 174.098 19.172 175.082 19.172C176.03 19.172 176.882 19.376 177.638 19.784C178.406 20.18 179.012 20.756 179.456 21.512C179.9 22.256 180.122 23.15 180.122 24.194C180.122 24.302 180.116 24.428 180.104 24.572C180.092 24.704 180.08 24.83 180.068 24.95H172.202V23.312H178.592L177.512 23.798C177.512 23.294 177.41 22.856 177.206 22.484C177.002 22.112 176.72 21.824 176.36 21.62C176 21.404 175.58 21.296 175.1 21.296C174.62 21.296 174.194 21.404 173.822 21.62C173.462 21.824 173.18 22.118 172.976 22.502C172.772 22.874 172.67 23.318 172.67 23.834V24.266C172.67 24.794 172.784 25.262 173.012 25.67C173.252 26.066 173.582 26.372 174.002 26.588C174.434 26.792 174.938 26.894 175.514 26.894C176.03 26.894 176.48 26.816 176.864 26.66C177.26 26.504 177.62 26.27 177.944 25.958L179.438 27.578C178.994 28.082 178.436 28.472 177.764 28.748C177.092 29.012 176.318 29.144 175.442 29.144ZM193.407 29.216C192.411 29.216 191.487 29.054 190.635 28.73C189.795 28.406 189.063 27.95 188.439 27.362C187.827 26.774 187.347 26.084 186.999 25.292C186.663 24.5 186.495 23.636 186.495 22.7C186.495 21.764 186.663 20.9 186.999 20.108C187.347 19.316 187.833 18.626 188.457 18.038C189.081 17.45 189.813 16.994 190.653 16.67C191.493 16.346 192.405 16.184 193.389 16.184C194.385 16.184 195.297 16.346 196.125 16.67C196.965 16.994 197.691 17.45 198.303 18.038C198.927 18.626 199.413 19.316 199.761 20.108C200.109 20.888 200.283 21.752 200.283 22.7C200.283 23.636 200.109 24.506 199.761 25.31C199.413 26.102 198.927 26.792 198.303 27.38C197.691 27.956 196.965 28.406 196.125 28.73C195.297 29.054 194.391 29.216 193.407 29.216ZM193.389 26.732C193.953 26.732 194.469 26.636 194.937 26.444C195.417 26.252 195.837 25.976 196.197 25.616C196.557 25.256 196.833 24.83 197.025 24.338C197.229 23.846 197.331 23.3 197.331 22.7C197.331 22.1 197.229 21.554 197.025 21.062C196.833 20.57 196.557 20.144 196.197 19.784C195.849 19.424 195.435 19.148 194.955 18.956C194.475 18.764 193.953 18.668 193.389 18.668C192.825 18.668 192.303 18.764 191.823 18.956C191.355 19.148 190.941 19.424 190.581 19.784C190.221 20.144 189.939 20.57 189.735 21.062C189.543 21.554 189.447 22.1 189.447 22.7C189.447 23.288 189.543 23.834 189.735 24.338C189.939 24.83 190.215 25.256 190.563 25.616C190.923 25.976 191.343 26.252 191.823 26.444C192.303 26.636 192.825 26.732 193.389 26.732ZM208.162 19.172C208.93 19.172 209.614 19.328 210.214 19.64C210.826 19.94 211.306 20.408 211.654 21.044C212.002 21.668 212.176 22.472 212.176 23.456V29H209.368V23.888C209.368 23.108 209.194 22.532 208.846 22.16C208.51 21.788 208.03 21.602 207.406 21.602C206.962 21.602 206.56 21.698 206.2 21.89C205.852 22.07 205.576 22.352 205.372 22.736C205.18 23.12 205.084 23.612 205.084 24.212V29H202.276V19.316H204.958V21.998L204.454 21.188C204.802 20.54 205.3 20.042 205.948 19.694C206.596 19.346 207.334 19.172 208.162 19.172ZM219.472 29.144C218.428 29.144 217.498 28.934 216.682 28.514C215.866 28.082 215.224 27.488 214.756 26.732C214.3 25.976 214.072 25.118 214.072 24.158C214.072 23.186 214.3 22.328 214.756 21.584C215.224 20.828 215.866 20.24 216.682 19.82C217.498 19.388 218.428 19.172 219.472 19.172C220.492 19.172 221.38 19.388 222.136 19.82C222.892 20.24 223.45 20.846 223.81 21.638L221.632 22.808C221.38 22.352 221.062 22.016 220.678 21.8C220.306 21.584 219.898 21.476 219.454 21.476C218.974 21.476 218.542 21.584 218.158 21.8C217.774 22.016 217.468 22.322 217.24 22.718C217.024 23.114 216.916 23.594 216.916 24.158C216.916 24.722 217.024 25.202 217.24 25.598C217.468 25.994 217.774 26.3 218.158 26.516C218.542 26.732 218.974 26.84 219.454 26.84C219.898 26.84 220.306 26.738 220.678 26.534C221.062 26.318 221.38 25.976 221.632 25.508L223.81 26.696C223.45 27.476 222.892 28.082 222.136 28.514C221.38 28.934 220.492 29.144 219.472 29.144ZM229.912 29.144C228.88 29.144 227.962 28.928 227.158 28.496C226.366 28.064 225.736 27.476 225.268 26.732C224.812 25.976 224.584 25.118 224.584 24.158C224.584 23.186 224.812 22.328 225.268 21.584C225.736 20.828 226.366 20.24 227.158 19.82C227.962 19.388 228.88 19.172 229.912 19.172C230.932 19.172 231.844 19.388 232.648 19.82C233.452 20.24 234.082 20.822 234.538 21.566C234.994 22.31 235.222 23.174 235.222 24.158C235.222 25.118 234.994 25.976 234.538 26.732C234.082 27.476 233.452 28.064 232.648 28.496C231.844 28.928 230.932 29.144 229.912 29.144ZM229.912 26.84C230.38 26.84 230.8 26.732 231.172 26.516C231.544 26.3 231.838 25.994 232.054 25.598C232.27 25.19 232.378 24.71 232.378 24.158C232.378 23.594 232.27 23.114 232.054 22.718C231.838 22.322 231.544 22.016 231.172 21.8C230.8 21.584 230.38 21.476 229.912 21.476C229.444 21.476 229.024 21.584 228.652 21.8C228.28 22.016 227.98 22.322 227.752 22.718C227.536 23.114 227.428 23.594 227.428 24.158C227.428 24.71 227.536 25.19 227.752 25.598C227.98 25.994 228.28 26.3 228.652 26.516C229.024 26.732 229.444 26.84 229.912 26.84ZM237.099 29V15.644H239.907V29H237.099ZM247.121 29.144C246.089 29.144 245.171 28.928 244.367 28.496C243.575 28.064 242.945 27.476 242.477 26.732C242.021 25.976 241.793 25.118 241.793 24.158C241.793 23.186 242.021 22.328 242.477 21.584C242.945 20.828 243.575 20.24 244.367 19.82C245.171 19.388 246.089 19.172 247.121 19.172C248.141 19.172 249.053 19.388 249.857 19.82C250.661 20.24 251.291 20.822 251.747 21.566C252.203 22.31 252.431 23.174 252.431 24.158C252.431 25.118 252.203 25.976 251.747 26.732C251.291 27.476 250.661 28.064 249.857 28.496C249.053 28.928 248.141 29.144 247.121 29.144ZM247.121 26.84C247.589 26.84 248.009 26.732 248.381 26.516C248.753 26.3 249.047 25.994 249.263 25.598C249.479 25.19 249.587 24.71 249.587 24.158C249.587 23.594 249.479 23.114 249.263 22.718C249.047 22.322 248.753 22.016 248.381 21.8C248.009 21.584 247.589 21.476 247.121 21.476C246.653 21.476 246.233 21.584 245.861 21.8C245.489 22.016 245.189 22.322 244.961 22.718C244.745 23.114 244.637 23.594 244.637 24.158C244.637 24.71 244.745 25.19 244.961 25.598C245.189 25.994 245.489 26.3 245.861 26.516C246.233 26.732 246.653 26.84 247.121 26.84ZM258.862 32.636C257.95 32.636 257.068 32.522 256.216 32.294C255.376 32.078 254.674 31.748 254.11 31.304L255.226 29.288C255.634 29.624 256.15 29.888 256.774 30.08C257.41 30.284 258.034 30.386 258.646 30.386C259.642 30.386 260.362 30.164 260.806 29.72C261.262 29.276 261.49 28.616 261.49 27.74V26.282L261.67 23.852L261.634 21.404V19.316H264.298V27.38C264.298 29.18 263.83 30.506 262.894 31.358C261.958 32.21 260.614 32.636 258.862 32.636ZM258.43 28.532C257.53 28.532 256.714 28.34 255.982 27.956C255.262 27.56 254.68 27.014 254.236 26.318C253.804 25.61 253.588 24.788 253.588 23.852C253.588 22.904 253.804 22.082 254.236 21.386C254.68 20.678 255.262 20.132 255.982 19.748C256.714 19.364 257.53 19.172 258.43 19.172C259.246 19.172 259.966 19.34 260.59 19.676C261.214 20 261.7 20.51 262.048 21.206C262.396 21.89 262.57 22.772 262.57 23.852C262.57 24.92 262.396 25.802 262.048 26.498C261.7 27.182 261.214 27.692 260.59 28.028C259.966 28.364 259.246 28.532 258.43 28.532ZM258.988 26.228C259.48 26.228 259.918 26.132 260.302 25.94C260.686 25.736 260.986 25.454 261.202 25.094C261.418 24.734 261.526 24.32 261.526 23.852C261.526 23.372 261.418 22.958 261.202 22.61C260.986 22.25 260.686 21.974 260.302 21.782C259.918 21.578 259.48 21.476 258.988 21.476C258.496 21.476 258.058 21.578 257.674 21.782C257.29 21.974 256.984 22.25 256.756 22.61C256.54 22.958 256.432 23.372 256.432 23.852C256.432 24.32 256.54 24.734 256.756 25.094C256.984 25.454 257.29 25.736 257.674 25.94C258.058 26.132 258.496 26.228 258.988 26.228ZM268.135 32.636C267.631 32.636 267.133 32.558 266.641 32.402C266.149 32.246 265.747 32.03 265.435 31.754L266.461 29.756C266.677 29.948 266.923 30.098 267.199 30.206C267.487 30.314 267.769 30.368 268.045 30.368C268.441 30.368 268.753 30.272 268.981 30.08C269.221 29.9 269.437 29.594 269.629 29.162L270.133 27.974L270.349 27.668L273.823 19.316H276.523L272.149 29.594C271.837 30.374 271.477 30.986 271.069 31.43C270.673 31.874 270.229 32.186 269.737 32.366C269.257 32.546 268.723 32.636 268.135 32.636ZM269.791 29.378L265.471 19.316H268.369L271.717 27.416L269.791 29.378ZM282.965 29V16.4H285.377L290.741 25.292H289.463L294.737 16.4H297.131L297.167 29H294.431L294.413 20.594H294.917L290.705 27.668H289.391L285.089 20.594H285.701V29H282.965ZM304.566 29.144C303.534 29.144 302.616 28.928 301.812 28.496C301.02 28.064 300.39 27.476 299.922 26.732C299.466 25.976 299.238 25.118 299.238 24.158C299.238 23.186 299.466 22.328 299.922 21.584C300.39 20.828 301.02 20.24 301.812 19.82C302.616 19.388 303.534 19.172 304.566 19.172C305.586 19.172 306.498 19.388 307.302 19.82C308.106 20.24 308.736 20.822 309.192 21.566C309.648 22.31 309.876 23.174 309.876 24.158C309.876 25.118 309.648 25.976 309.192 26.732C308.736 27.476 308.106 28.064 307.302 28.496C306.498 28.928 305.586 29.144 304.566 29.144ZM304.566 26.84C305.034 26.84 305.454 26.732 305.826 26.516C306.198 26.3 306.492 25.994 306.708 25.598C306.924 25.19 307.032 24.71 307.032 24.158C307.032 23.594 306.924 23.114 306.708 22.718C306.492 22.322 306.198 22.016 305.826 21.8C305.454 21.584 305.034 21.476 304.566 21.476C304.098 21.476 303.678 21.584 303.306 21.8C302.934 22.016 302.634 22.322 302.406 22.718C302.19 23.114 302.082 23.594 302.082 24.158C302.082 24.71 302.19 25.19 302.406 25.598C302.634 25.994 302.934 26.3 303.306 26.516C303.678 26.732 304.098 26.84 304.566 26.84ZM315.911 29.144C314.999 29.144 314.177 28.94 313.445 28.532C312.713 28.112 312.131 27.53 311.699 26.786C311.279 26.042 311.069 25.166 311.069 24.158C311.069 23.138 311.279 22.256 311.699 21.512C312.131 20.768 312.713 20.192 313.445 19.784C314.177 19.376 314.999 19.172 315.911 19.172C316.727 19.172 317.441 19.352 318.053 19.712C318.665 20.072 319.139 20.618 319.475 21.35C319.811 22.082 319.979 23.018 319.979 24.158C319.979 25.286 319.817 26.222 319.493 26.966C319.169 27.698 318.701 28.244 318.089 28.604C317.489 28.964 316.763 29.144 315.911 29.144ZM316.397 26.84C316.853 26.84 317.267 26.732 317.639 26.516C318.011 26.3 318.305 25.994 318.521 25.598C318.749 25.19 318.863 24.71 318.863 24.158C318.863 23.594 318.749 23.114 318.521 22.718C318.305 22.322 318.011 22.016 317.639 21.8C317.267 21.584 316.853 21.476 316.397 21.476C315.929 21.476 315.509 21.584 315.137 21.8C314.765 22.016 314.465 22.322 314.237 22.718C314.021 23.114 313.913 23.594 313.913 24.158C313.913 24.71 314.021 25.19 314.237 25.598C314.465 25.994 314.765 26.3 315.137 26.516C315.509 26.732 315.929 26.84 316.397 26.84ZM318.935 29V27.02L318.989 24.14L318.809 21.278V15.644H321.617V29H318.935ZM329.022 29.144C327.918 29.144 326.946 28.928 326.106 28.496C325.278 28.064 324.636 27.476 324.18 26.732C323.724 25.976 323.496 25.118 323.496 24.158C323.496 23.186 323.718 22.328 324.162 21.584C324.618 20.828 325.236 20.24 326.016 19.82C326.796 19.388 327.678 19.172 328.662 19.172C329.61 19.172 330.462 19.376 331.218 19.784C331.986 20.18 332.592 20.756 333.036 21.512C333.48 22.256 333.702 23.15 333.702 24.194C333.702 24.302 333.696 24.428 333.684 24.572C333.672 24.704 333.66 24.83 333.648 24.95H325.782V23.312H332.172L331.092 23.798C331.092 23.294 330.99 22.856 330.786 22.484C330.582 22.112 330.3 21.824 329.94 21.62C329.58 21.404 329.16 21.296 328.68 21.296C328.2 21.296 327.774 21.404 327.402 21.62C327.042 21.824 326.76 22.118 326.556 22.502C326.352 22.874 326.25 23.318 326.25 23.834V24.266C326.25 24.794 326.364 25.262 326.592 25.67C326.832 26.066 327.162 26.372 327.582 26.588C328.014 26.792 328.518 26.894 329.094 26.894C329.61 26.894 330.06 26.816 330.444 26.66C330.84 26.504 331.2 26.27 331.524 25.958L333.018 27.578C332.574 28.082 332.016 28.472 331.344 28.748C330.672 29.012 329.898 29.144 329.022 29.144ZM335.571 29V15.644H338.379V29H335.571ZM352.023 29V27.11L351.843 26.696V23.312C351.843 22.712 351.657 22.244 351.285 21.908C350.925 21.572 350.367 21.404 349.611 21.404C349.095 21.404 348.585 21.488 348.081 21.656C347.589 21.812 347.169 22.028 346.821 22.304L345.813 20.342C346.341 19.97 346.977 19.682 347.721 19.478C348.465 19.274 349.221 19.172 349.989 19.172C351.465 19.172 352.611 19.52 353.427 20.216C354.243 20.912 354.651 21.998 354.651 23.474V29H352.023ZM349.071 29.144C348.315 29.144 347.667 29.018 347.127 28.766C346.587 28.502 346.173 28.148 345.885 27.704C345.597 27.26 345.453 26.762 345.453 26.21C345.453 25.634 345.591 25.13 345.867 24.698C346.155 24.266 346.605 23.93 347.217 23.69C347.829 23.438 348.627 23.312 349.611 23.312H352.185V24.95H349.917C349.257 24.95 348.801 25.058 348.549 25.274C348.309 25.49 348.189 25.76 348.189 26.084C348.189 26.444 348.327 26.732 348.603 26.948C348.891 27.152 349.281 27.254 349.773 27.254C350.241 27.254 350.661 27.146 351.033 26.93C351.405 26.702 351.675 26.372 351.843 25.94L352.275 27.236C352.071 27.86 351.699 28.334 351.159 28.658C350.619 28.982 349.923 29.144 349.071 29.144ZM363.078 19.172C363.846 19.172 364.53 19.328 365.13 19.64C365.742 19.94 366.222 20.408 366.57 21.044C366.918 21.668 367.092 22.472 367.092 23.456V29H364.284V23.888C364.284 23.108 364.11 22.532 363.762 22.16C363.426 21.788 362.946 21.602 362.322 21.602C361.878 21.602 361.476 21.698 361.116 21.89C360.768 22.07 360.492 22.352 360.288 22.736C360.096 23.12 360 23.612 360 24.212V29H357.192V19.316H359.874V21.998L359.37 21.188C359.718 20.54 360.216 20.042 360.864 19.694C361.512 19.346 362.25 19.172 363.078 19.172ZM373.866 29.144C372.954 29.144 372.132 28.94 371.4 28.532C370.668 28.112 370.086 27.53 369.654 26.786C369.234 26.042 369.024 25.166 369.024 24.158C369.024 23.138 369.234 22.256 369.654 21.512C370.086 20.768 370.668 20.192 371.4 19.784C372.132 19.376 372.954 19.172 373.866 19.172C374.682 19.172 375.396 19.352 376.008 19.712C376.62 20.072 377.094 20.618 377.43 21.35C377.766 22.082 377.934 23.018 377.934 24.158C377.934 25.286 377.772 26.222 377.448 26.966C377.124 27.698 376.656 28.244 376.044 28.604C375.444 28.964 374.718 29.144 373.866 29.144ZM374.352 26.84C374.808 26.84 375.222 26.732 375.594 26.516C375.966 26.3 376.26 25.994 376.476 25.598C376.704 25.19 376.818 24.71 376.818 24.158C376.818 23.594 376.704 23.114 376.476 22.718C376.26 22.322 375.966 22.016 375.594 21.8C375.222 21.584 374.808 21.476 374.352 21.476C373.884 21.476 373.464 21.584 373.092 21.8C372.72 22.016 372.42 22.322 372.192 22.718C371.976 23.114 371.868 23.594 371.868 24.158C371.868 24.71 371.976 25.19 372.192 25.598C372.42 25.994 372.72 26.3 373.092 26.516C373.464 26.732 373.884 26.84 374.352 26.84ZM376.89 29V27.02L376.944 24.14L376.764 21.278V15.644H379.572V29H376.89ZM86.494 48V35.4H92.218C93.586 35.4 94.792 35.664 95.836 36.192C96.88 36.708 97.696 37.434 98.284 38.37C98.872 39.306 99.166 40.416 99.166 41.7C99.166 42.972 98.872 44.082 98.284 45.03C97.696 45.966 96.88 46.698 95.836 47.226C94.792 47.742 93.586 48 92.218 48H86.494ZM89.41 45.606H92.074C92.914 45.606 93.64 45.45 94.252 45.138C94.876 44.814 95.356 44.358 95.692 43.77C96.04 43.182 96.214 42.492 96.214 41.7C96.214 40.896 96.04 40.206 95.692 39.63C95.356 39.042 94.876 38.592 94.252 38.28C93.64 37.956 92.914 37.794 92.074 37.794H89.41V45.606ZM107.107 48V46.11L106.927 45.696V42.312C106.927 41.712 106.741 41.244 106.369 40.908C106.009 40.572 105.451 40.404 104.695 40.404C104.179 40.404 103.669 40.488 103.165 40.656C102.673 40.812 102.253 41.028 101.905 41.304L100.897 39.342C101.425 38.97 102.061 38.682 102.805 38.478C103.549 38.274 104.305 38.172 105.073 38.172C106.549 38.172 107.695 38.52 108.511 39.216C109.327 39.912 109.735 40.998 109.735 42.474V48H107.107ZM104.155 48.144C103.399 48.144 102.751 48.018 102.211 47.766C101.671 47.502 101.257 47.148 100.969 46.704C100.681 46.26 100.537 45.762 100.537 45.21C100.537 44.634 100.675 44.13 100.951 43.698C101.239 43.266 101.689 42.93 102.301 42.69C102.913 42.438 103.711 42.312 104.695 42.312H107.269V43.95H105.001C104.341 43.95 103.885 44.058 103.633 44.274C103.393 44.49 103.273 44.76 103.273 45.084C103.273 45.444 103.411 45.732 103.687 45.948C103.975 46.152 104.365 46.254 104.857 46.254C105.325 46.254 105.745 46.146 106.117 45.93C106.489 45.702 106.759 45.372 106.927 44.94L107.359 46.236C107.155 46.86 106.783 47.334 106.243 47.658C105.703 47.982 105.007 48.144 104.155 48.144ZM116.236 48.144C115.096 48.144 114.208 47.856 113.572 47.28C112.936 46.692 112.618 45.822 112.618 44.67V36.174H115.426V44.634C115.426 45.042 115.534 45.36 115.75 45.588C115.966 45.804 116.26 45.912 116.632 45.912C117.076 45.912 117.454 45.792 117.766 45.552L118.522 47.532C118.234 47.736 117.886 47.892 117.478 48C117.082 48.096 116.668 48.144 116.236 48.144ZM111.124 40.692V38.532H117.838V40.692H111.124ZM126.039 48V46.11L125.859 45.696V42.312C125.859 41.712 125.673 41.244 125.301 40.908C124.941 40.572 124.383 40.404 123.627 40.404C123.111 40.404 122.601 40.488 122.097 40.656C121.605 40.812 121.185 41.028 120.837 41.304L119.829 39.342C120.357 38.97 120.993 38.682 121.737 38.478C122.481 38.274 123.237 38.172 124.005 38.172C125.481 38.172 126.627 38.52 127.443 39.216C128.259 39.912 128.667 40.998 128.667 42.474V48H126.039ZM123.087 48.144C122.331 48.144 121.683 48.018 121.143 47.766C120.603 47.502 120.189 47.148 119.901 46.704C119.613 46.26 119.469 45.762 119.469 45.21C119.469 44.634 119.607 44.13 119.883 43.698C120.171 43.266 120.621 42.93 121.233 42.69C121.845 42.438 122.643 42.312 123.627 42.312H126.201V43.95H123.933C123.273 43.95 122.817 44.058 122.565 44.274C122.325 44.49 122.205 44.76 122.205 45.084C122.205 45.444 122.343 45.732 122.619 45.948C122.907 46.152 123.297 46.254 123.789 46.254C124.257 46.254 124.677 46.146 125.049 45.93C125.421 45.702 125.691 45.372 125.859 44.94L126.291 46.236C126.087 46.86 125.715 47.334 125.175 47.658C124.635 47.982 123.939 48.144 123.087 48.144ZM142.534 48.216C141.562 48.216 140.656 48.06 139.816 47.748C138.988 47.424 138.268 46.968 137.656 46.38C137.044 45.792 136.564 45.102 136.216 44.31C135.88 43.518 135.712 42.648 135.712 41.7C135.712 40.752 135.88 39.882 136.216 39.09C136.564 38.298 137.044 37.608 137.656 37.02C138.28 36.432 139.006 35.982 139.834 35.67C140.662 35.346 141.568 35.184 142.552 35.184C143.644 35.184 144.628 35.376 145.504 35.76C146.392 36.132 147.136 36.684 147.736 37.416L145.864 39.144C145.432 38.652 144.952 38.286 144.424 38.046C143.896 37.794 143.32 37.668 142.696 37.668C142.108 37.668 141.568 37.764 141.076 37.956C140.584 38.148 140.158 38.424 139.798 38.784C139.438 39.144 139.156 39.57 138.952 40.062C138.76 40.554 138.664 41.1 138.664 41.7C138.664 42.3 138.76 42.846 138.952 43.338C139.156 43.83 139.438 44.256 139.798 44.616C140.158 44.976 140.584 45.252 141.076 45.444C141.568 45.636 142.108 45.732 142.696 45.732C143.32 45.732 143.896 45.612 144.424 45.372C144.952 45.12 145.432 44.742 145.864 44.238L147.736 45.966C147.136 46.698 146.392 47.256 145.504 47.64C144.628 48.024 143.638 48.216 142.534 48.216ZM149.507 48V34.644H152.315V48H149.507ZM159.727 48.144C158.623 48.144 157.651 47.928 156.811 47.496C155.983 47.064 155.341 46.476 154.885 45.732C154.429 44.976 154.201 44.118 154.201 43.158C154.201 42.186 154.423 41.328 154.867 40.584C155.323 39.828 155.941 39.24 156.721 38.82C157.501 38.388 158.383 38.172 159.367 38.172C160.315 38.172 161.167 38.376 161.923 38.784C162.691 39.18 163.297 39.756 163.741 40.512C164.185 41.256 164.407 42.15 164.407 43.194C164.407 43.302 164.401 43.428 164.389 43.572C164.377 43.704 164.365 43.83 164.353 43.95H156.487V42.312H162.877L161.797 42.798C161.797 42.294 161.695 41.856 161.491 41.484C161.287 41.112 161.005 40.824 160.645 40.62C160.285 40.404 159.865 40.296 159.385 40.296C158.905 40.296 158.479 40.404 158.107 40.62C157.747 40.824 157.465 41.118 157.261 41.502C157.057 41.874 156.955 42.318 156.955 42.834V43.266C156.955 43.794 157.069 44.262 157.297 44.67C157.537 45.066 157.867 45.372 158.287 45.588C158.719 45.792 159.223 45.894 159.799 45.894C160.315 45.894 160.765 45.816 161.149 45.66C161.545 45.504 161.905 45.27 162.229 44.958L163.723 46.578C163.279 47.082 162.721 47.472 162.049 47.748C161.377 48.012 160.603 48.144 159.727 48.144ZM171.953 48V46.11L171.773 45.696V42.312C171.773 41.712 171.587 41.244 171.215 40.908C170.855 40.572 170.297 40.404 169.541 40.404C169.025 40.404 168.515 40.488 168.011 40.656C167.519 40.812 167.099 41.028 166.751 41.304L165.743 39.342C166.271 38.97 166.907 38.682 167.651 38.478C168.395 38.274 169.151 38.172 169.919 38.172C171.395 38.172 172.541 38.52 173.357 39.216C174.173 39.912 174.581 40.998 174.581 42.474V48H171.953ZM169.001 48.144C168.245 48.144 167.597 48.018 167.057 47.766C166.517 47.502 166.103 47.148 165.815 46.704C165.527 46.26 165.383 45.762 165.383 45.21C165.383 44.634 165.521 44.13 165.797 43.698C166.085 43.266 166.535 42.93 167.147 42.69C167.759 42.438 168.557 42.312 169.541 42.312H172.115V43.95H169.847C169.187 43.95 168.731 44.058 168.479 44.274C168.239 44.49 168.119 44.76 168.119 45.084C168.119 45.444 168.257 45.732 168.533 45.948C168.821 46.152 169.211 46.254 169.703 46.254C170.171 46.254 170.591 46.146 170.963 45.93C171.335 45.702 171.605 45.372 171.773 44.94L172.205 46.236C172.001 46.86 171.629 47.334 171.089 47.658C170.549 47.982 169.853 48.144 169.001 48.144ZM177.122 48V38.316H179.804V41.052L179.426 40.26C179.714 39.576 180.176 39.06 180.812 38.712C181.448 38.352 182.222 38.172 183.134 38.172V40.764C183.014 40.752 182.906 40.746 182.81 40.746C182.714 40.734 182.612 40.728 182.504 40.728C181.736 40.728 181.112 40.95 180.632 41.394C180.164 41.826 179.93 42.504 179.93 43.428V48H177.122ZM184.821 48V38.316H187.629V48H184.821ZM186.225 36.966C185.709 36.966 185.289 36.816 184.965 36.516C184.641 36.216 184.479 35.844 184.479 35.4C184.479 34.956 184.641 34.584 184.965 34.284C185.289 33.984 185.709 33.834 186.225 33.834C186.741 33.834 187.161 33.978 187.485 34.266C187.809 34.542 187.971 34.902 187.971 35.346C187.971 35.814 187.809 36.204 187.485 36.516C187.173 36.816 186.753 36.966 186.225 36.966ZM196.121 38.172C196.889 38.172 197.573 38.328 198.173 38.64C198.785 38.94 199.265 39.408 199.613 40.044C199.961 40.668 200.135 41.472 200.135 42.456V48H197.327V42.888C197.327 42.108 197.153 41.532 196.805 41.16C196.469 40.788 195.989 40.602 195.365 40.602C194.921 40.602 194.519 40.698 194.159 40.89C193.811 41.07 193.535 41.352 193.331 41.736C193.139 42.12 193.043 42.612 193.043 43.212V48H190.235V38.316H192.917V40.998L192.413 40.188C192.761 39.54 193.259 39.042 193.907 38.694C194.555 38.346 195.293 38.172 196.121 38.172ZM207.305 51.636C206.393 51.636 205.511 51.522 204.659 51.294C203.819 51.078 203.117 50.748 202.553 50.304L203.669 48.288C204.077 48.624 204.593 48.888 205.217 49.08C205.853 49.284 206.477 49.386 207.089 49.386C208.085 49.386 208.805 49.164 209.249 48.72C209.705 48.276 209.933 47.616 209.933 46.74V45.282L210.113 42.852L210.077 40.404V38.316H212.741V46.38C212.741 48.18 212.273 49.506 211.337 50.358C210.401 51.21 209.057 51.636 207.305 51.636ZM206.873 47.532C205.973 47.532 205.157 47.34 204.425 46.956C203.705 46.56 203.123 46.014 202.679 45.318C202.247 44.61 202.031 43.788 202.031 42.852C202.031 41.904 202.247 41.082 202.679 40.386C203.123 39.678 203.705 39.132 204.425 38.748C205.157 38.364 205.973 38.172 206.873 38.172C207.689 38.172 208.409 38.34 209.033 38.676C209.657 39 210.143 39.51 210.491 40.206C210.839 40.89 211.013 41.772 211.013 42.852C211.013 43.92 210.839 44.802 210.491 45.498C210.143 46.182 209.657 46.692 209.033 47.028C208.409 47.364 207.689 47.532 206.873 47.532ZM207.431 45.228C207.923 45.228 208.361 45.132 208.745 44.94C209.129 44.736 209.429 44.454 209.645 44.094C209.861 43.734 209.969 43.32 209.969 42.852C209.969 42.372 209.861 41.958 209.645 41.61C209.429 41.25 209.129 40.974 208.745 40.782C208.361 40.578 207.923 40.476 207.431 40.476C206.939 40.476 206.501 40.578 206.117 40.782C205.733 40.974 205.427 41.25 205.199 41.61C204.983 41.958 204.875 42.372 204.875 42.852C204.875 43.32 204.983 43.734 205.199 44.094C205.427 44.454 205.733 44.736 206.117 44.94C206.501 45.132 206.939 45.228 207.431 45.228ZM221.241 38.172C222.009 38.172 222.693 38.328 223.293 38.64C223.905 38.94 224.385 39.408 224.733 40.044C225.081 40.668 225.255 41.472 225.255 42.456V48H222.447V42.888C222.447 42.108 222.273 41.532 221.925 41.16C221.589 40.788 221.109 40.602 220.485 40.602C220.041 40.602 219.639 40.698 219.279 40.89C218.931 41.07 218.655 41.352 218.451 41.736C218.259 42.12 218.163 42.612 218.163 43.212V48H215.355V34.644H218.163V40.998L217.533 40.188C217.881 39.54 218.379 39.042 219.027 38.694C219.675 38.346 220.413 38.172 221.241 38.172ZM232.478 48.144C231.446 48.144 230.528 47.928 229.724 47.496C228.932 47.064 228.302 46.476 227.834 45.732C227.378 44.976 227.15 44.118 227.15 43.158C227.15 42.186 227.378 41.328 227.834 40.584C228.302 39.828 228.932 39.24 229.724 38.82C230.528 38.388 231.446 38.172 232.478 38.172C233.498 38.172 234.41 38.388 235.214 38.82C236.018 39.24 236.648 39.822 237.104 40.566C237.56 41.31 237.788 42.174 237.788 43.158C237.788 44.118 237.56 44.976 237.104 45.732C236.648 46.476 236.018 47.064 235.214 47.496C234.41 47.928 233.498 48.144 232.478 48.144ZM232.478 45.84C232.946 45.84 233.366 45.732 233.738 45.516C234.11 45.3 234.404 44.994 234.62 44.598C234.836 44.19 234.944 43.71 234.944 43.158C234.944 42.594 234.836 42.114 234.62 41.718C234.404 41.322 234.11 41.016 233.738 40.8C233.366 40.584 232.946 40.476 232.478 40.476C232.01 40.476 231.59 40.584 231.218 40.8C230.846 41.016 230.546 41.322 230.318 41.718C230.102 42.114 229.994 42.594 229.994 43.158C229.994 43.71 230.102 44.19 230.318 44.598C230.546 44.994 230.846 45.3 231.218 45.516C231.59 45.732 232.01 45.84 232.478 45.84ZM243.751 48.144C242.947 48.144 242.227 47.988 241.591 47.676C240.967 47.364 240.481 46.89 240.133 46.254C239.785 45.606 239.611 44.784 239.611 43.788V38.316H242.419V43.374C242.419 44.178 242.587 44.772 242.923 45.156C243.271 45.528 243.757 45.714 244.381 45.714C244.813 45.714 245.197 45.624 245.533 45.444C245.869 45.252 246.133 44.964 246.325 44.58C246.517 44.184 246.613 43.692 246.613 43.104V38.316H249.421V48H246.757V45.336L247.243 46.11C246.919 46.782 246.439 47.292 245.803 47.64C245.179 47.976 244.495 48.144 243.751 48.144ZM255.281 48.144C254.453 48.144 253.655 48.048 252.887 47.856C252.131 47.652 251.531 47.4 251.087 47.1L252.023 45.084C252.467 45.36 252.989 45.588 253.589 45.768C254.201 45.936 254.801 46.02 255.389 46.02C256.037 46.02 256.493 45.942 256.757 45.786C257.033 45.63 257.171 45.414 257.171 45.138C257.171 44.91 257.063 44.742 256.847 44.634C256.643 44.514 256.367 44.424 256.019 44.364C255.671 44.304 255.287 44.244 254.867 44.184C254.459 44.124 254.045 44.046 253.625 43.95C253.205 43.842 252.821 43.686 252.473 43.482C252.125 43.278 251.843 43.002 251.627 42.654C251.423 42.306 251.321 41.856 251.321 41.304C251.321 40.692 251.495 40.152 251.843 39.684C252.203 39.216 252.719 38.85 253.391 38.586C254.063 38.31 254.867 38.172 255.803 38.172C256.463 38.172 257.135 38.244 257.819 38.388C258.503 38.532 259.073 38.742 259.529 39.018L258.593 41.016C258.125 40.74 257.651 40.554 257.171 40.458C256.703 40.35 256.247 40.296 255.803 40.296C255.179 40.296 254.723 40.38 254.435 40.548C254.147 40.716 254.003 40.932 254.003 41.196C254.003 41.436 254.105 41.616 254.309 41.736C254.525 41.856 254.807 41.952 255.155 42.024C255.503 42.096 255.881 42.162 256.289 42.222C256.709 42.27 257.129 42.348 257.549 42.456C257.969 42.564 258.347 42.72 258.683 42.924C259.031 43.116 259.313 43.386 259.529 43.734C259.745 44.07 259.853 44.514 259.853 45.066C259.853 45.666 259.673 46.2 259.313 46.668C258.953 47.124 258.431 47.484 257.747 47.748C257.075 48.012 256.253 48.144 255.281 48.144ZM266.391 48.144C265.287 48.144 264.315 47.928 263.475 47.496C262.647 47.064 262.005 46.476 261.549 45.732C261.093 44.976 260.865 44.118 260.865 43.158C260.865 42.186 261.087 41.328 261.531 40.584C261.987 39.828 262.605 39.24 263.385 38.82C264.165 38.388 265.047 38.172 266.031 38.172C266.979 38.172 267.831 38.376 268.587 38.784C269.355 39.18 269.961 39.756 270.405 40.512C270.849 41.256 271.071 42.15 271.071 43.194C271.071 43.302 271.065 43.428 271.053 43.572C271.041 43.704 271.029 43.83 271.017 43.95H263.151V42.312H269.541L268.461 42.798C268.461 42.294 268.359 41.856 268.155 41.484C267.951 41.112 267.669 40.824 267.309 40.62C266.949 40.404 266.529 40.296 266.049 40.296C265.569 40.296 265.143 40.404 264.771 40.62C264.411 40.824 264.129 41.118 263.925 41.502C263.721 41.874 263.619 42.318 263.619 42.834V43.266C263.619 43.794 263.733 44.262 263.961 44.67C264.201 45.066 264.531 45.372 264.951 45.588C265.383 45.792 265.887 45.894 266.463 45.894C266.979 45.894 267.429 45.816 267.813 45.66C268.209 45.504 268.569 45.27 268.893 44.958L270.387 46.578C269.943 47.082 269.385 47.472 268.713 47.748C268.041 48.012 267.267 48.144 266.391 48.144Z" fill="#606061"/>
<path d="M93.3837 0.747437H95.7554V11.3616H93.3837L88.3222 4.70486V11.3616H85.9504V0.747437H88.1755L93.3837 7.57522V0.747437Z" fill="#BB0E3D"/>
<path d="M105.94 11.3616L104.949 9.06536H100.499L99.509 11.3616H96.9905L101.587 0.747437H103.886L108.483 11.3616H105.964H105.94ZM102.737 3.89872L101.404 6.97672H104.069L102.749 3.89872H102.737Z" fill="#BB0E3D"/>
<path d="M113.422 2.79944V11.3616H111.05V2.79944H108.042V0.747437H116.429V2.79944H113.422Z" fill="#BB0E3D"/>
<path d="M118.165 0.747437H120.537V11.3616H118.165V0.747437Z" fill="#BB0E3D"/>
<path d="M132.09 9.89607C131.014 10.9465 129.694 11.4717 128.117 11.4717C126.54 11.4717 125.219 10.9465 124.143 9.89607C123.067 8.84565 122.53 7.53872 122.53 5.98751C122.53 4.43629 123.067 3.12937 124.143 2.07894C125.219 1.02851 126.54 0.503296 128.117 0.503296C129.694 0.503296 131.014 1.02851 132.09 2.07894C133.166 3.12937 133.704 4.43629 133.704 5.98751C133.704 7.53872 133.166 8.84565 132.09 9.89607ZM131.283 5.98751C131.283 5.04701 130.977 4.22865 130.366 3.56908C129.755 2.89729 129.009 2.56751 128.129 2.56751C127.249 2.56751 126.491 2.89729 125.892 3.56908C125.293 4.24086 124.975 5.04701 124.975 5.98751C124.975 6.928 125.28 7.73415 125.892 8.40593C126.503 9.0655 127.249 9.39529 128.129 9.39529C129.009 9.39529 129.767 9.0655 130.366 8.40593C130.977 7.74636 131.283 6.94022 131.283 5.98751Z" fill="#BB0E3D"/>
<path d="M143.142 0.747437H145.514V11.3616H143.142L138.081 4.70486V11.3616H135.709V0.747437H137.934L143.142 7.57522V0.747437Z" fill="#BB0E3D"/>
<path d="M155.699 11.3616L154.708 9.06536H150.258L149.268 11.3616H146.75L151.346 0.747437H153.645L158.242 11.3616H155.723H155.699ZM152.496 3.89872L151.163 6.97672H153.828L152.508 3.89872H152.496Z" fill="#BB0E3D"/>
<path d="M159.451 11.3616V0.747437H161.823V9.24857H166.359V11.3616H159.451Z" fill="#BB0E3D"/>
<path d="M176.971 9.27338C178.132 9.27338 179.086 8.80924 179.831 7.89317L181.347 9.4566C180.137 10.8124 178.719 11.4964 177.081 11.4964C175.442 11.4964 174.098 10.9834 173.034 9.94517C171.97 8.90696 171.445 7.61224 171.445 6.0366C171.445 4.46096 171.983 3.15403 173.058 2.09139C174.134 1.04096 175.455 0.515747 177.02 0.515747C178.768 0.515747 180.223 1.17532 181.396 2.50667L179.917 4.18003C179.171 3.25174 178.23 2.7876 177.117 2.7876C176.225 2.7876 175.467 3.08074 174.831 3.65482C174.195 4.2411 173.877 5.02282 173.877 6.01217C173.877 7.00153 174.171 7.79546 174.77 8.39396C175.369 8.99245 176.09 9.2856 176.946 9.2856L176.971 9.27338Z" fill="#BB0E3D"/>
<path d="M190.712 11.3616L189.722 9.06536H185.272L184.282 11.3616H181.763L186.36 0.747437H188.658L193.255 11.3616H190.737H190.712ZM187.509 3.89872L186.177 6.97672H188.842L187.521 3.89872H187.509Z" fill="#BB0E3D"/>
<path d="M201.911 0.747437H204.283V11.3616H201.911L196.85 4.70486V11.3616H194.478V0.747437H196.703L201.911 7.57522V0.747437Z" fill="#BB0E3D"/>
<path d="M211.765 9.27338C212.926 9.27338 213.88 8.80924 214.625 7.89317L216.141 9.4566C214.931 10.8124 213.513 11.4964 211.875 11.4964C210.236 11.4964 208.892 10.9834 207.828 9.94517C206.764 8.90696 206.239 7.61224 206.239 6.0366C206.239 4.46096 206.777 3.15403 207.852 2.09139C208.928 1.04096 210.249 0.515747 211.814 0.515747C213.562 0.515747 215.017 1.17532 216.19 2.50667L214.711 4.18003C213.965 3.25174 213.024 2.7876 211.911 2.7876C211.019 2.7876 210.261 3.08074 209.625 3.65482C208.989 4.2411 208.672 5.02282 208.672 6.01217C208.672 7.00153 208.965 7.79546 209.564 8.39396C210.163 8.99245 210.884 9.2856 211.74 9.2856L211.765 9.27338Z" fill="#BB0E3D"/>
<path d="M225.677 0.747437V2.86051H220.383V5.04686H225.139V7.06222H220.383V9.26079H225.836V11.3616H218.012V0.747437H225.677Z" fill="#BB0E3D"/>
<path d="M236.583 4.2776C236.583 5.97538 235.911 7.07467 234.566 7.57545L237.256 11.3741H234.334L231.974 7.99074H230.336V11.3741H227.964V0.759888H231.999C233.649 0.759888 234.835 1.04082 235.532 1.59046C236.229 2.1401 236.583 3.04396 236.583 4.2776ZM233.722 5.53567C234.016 5.26696 234.163 4.85167 234.163 4.2776C234.163 3.70353 234.016 3.31267 233.71 3.10503C233.405 2.89739 232.879 2.78746 232.109 2.78746H230.336V5.92653H232.072C232.879 5.92653 233.429 5.79217 233.735 5.53567H233.722Z" fill="#BB0E3D"/>
<path d="M243.027 0.747437H245.398V11.3616H243.027V0.747437Z" fill="#BB0E3D"/>
<path d="M255.447 0.747437H257.819V11.3616H255.447L250.385 4.70486V11.3616H248.014V0.747437H250.239L255.447 7.57522V0.747437Z" fill="#BB0E3D"/>
<path d="M262.918 2.87286C262.686 3.05608 262.576 3.31258 262.576 3.61794C262.576 3.92329 262.71 4.16758 262.991 4.35079C263.272 4.53401 263.908 4.74165 264.923 4.99815C265.938 5.25465 266.72 5.62108 267.27 6.10965C267.833 6.61043 268.102 7.33108 268.102 8.28379C268.102 9.2365 267.747 10.006 267.026 10.6045C266.304 11.203 265.375 11.4961 264.202 11.4961C262.514 11.4961 260.998 10.8732 259.654 9.62736L261.072 7.89293C262.221 8.8945 263.272 9.39529 264.25 9.39529C264.691 9.39529 265.033 9.29757 265.277 9.11436C265.522 8.93115 265.656 8.67465 265.656 8.35707C265.656 8.0395 265.522 7.783 265.265 7.59979C265.008 7.41658 264.483 7.22115 263.7 7.02572C262.465 6.73258 261.561 6.35393 260.986 5.87758C260.412 5.40122 260.13 4.66836 260.13 3.65458C260.13 2.64079 260.497 1.87129 261.218 1.32165C261.94 0.77201 262.844 0.503296 263.933 0.503296C264.642 0.503296 265.351 0.625439 266.06 0.869724C266.769 1.11401 267.392 1.45601 267.918 1.90794L266.72 3.64236C265.803 2.94615 264.849 2.59194 263.859 2.59194C263.468 2.59194 263.15 2.68965 262.93 2.87286H262.918Z" fill="#BB0E3D"/>
<path d="M274.532 2.79944V11.3616H272.16V2.79944H269.153V0.747437H277.539V2.79944H274.532Z" fill="#BB0E3D"/>
<path d="M279.276 0.747437H281.647V11.3616H279.276V0.747437Z" fill="#BB0E3D"/>
<path d="M288.762 2.79944V11.3616H286.391V2.79944H283.383V0.747437H291.77V2.79944H288.762Z" fill="#BB0E3D"/>
<path d="M296.318 8.6259C296.709 9.11447 297.247 9.35876 297.919 9.35876C298.592 9.35876 299.117 9.11447 299.509 8.6259C299.9 8.13733 300.095 7.46554 300.095 6.61054V0.747688H302.467V6.68383C302.467 8.22283 302.039 9.40761 301.196 10.226C300.34 11.0565 299.252 11.4596 297.932 11.4596C296.611 11.4596 295.511 11.0443 294.655 10.2138C293.799 9.38318 293.371 8.1984 293.371 6.67161V0.735474H295.743V6.59833C295.743 7.45333 295.939 8.1129 296.33 8.61368L296.318 8.6259Z" fill="#BB0E3D"/>
<path d="M309.423 2.79944V11.3616H307.052V2.79944H304.044V0.747437H312.431V2.79944H309.423Z" fill="#BB0E3D"/>
<path d="M321.833 0.747437V2.86051H316.539V5.04686H321.295V7.06222H316.539V9.26079H321.992V11.3616H314.167V0.747437H321.833Z" fill="#BB0E3D"/>
</svg>
