<?xml version="1.0" encoding="utf-8"?>
<!-- Generator: Adobe Illustrator 25.2.3, SVG Export Plug-In . SVG Version: 6.00 Build 0)  -->
<svg version="1.1" id="Layer_1" xmlns="http://www.w3.org/2000/svg" xmlns:xlink="http://www.w3.org/1999/xlink" x="0px" y="0px"
	 viewBox="0 0 451.66 100" style="enable-background:new 0 0 451.66 100;" xml:space="preserve">
<style type="text/css">
	.st0{fill:#606061;}
	.st1{fill:#BA1F40;}
	.st2{fill:#FFFFFF;}
	.st3{fill:#BB0E3D;}
	.st4{fill:#606060;}
</style>
<g>
	<g>
		<path class="st0" d="M97.99,50l-15-27H28.76c-3.19,0-5.77,2.59-5.77,5.79v42.43c0,3.2,2.58,5.79,5.77,5.79h54.23L97.99,50z"/>
		<path class="st1" d="M96.5,25.81C95.44,24.07,93.54,23,91.48,23H87l15.2,27l-15.2,27h4.49c2.06,0,3.96-1.07,5.02-2.81L110,50
			L96.5,25.81z"/>
	</g>
	<g>
		<rect x="54.99" y="38" class="st2" width="4" height="24"/>
		<polygon class="st2" points="46.99,38 46.99,55.6 35.99,38 31.99,38 31.99,62 35.99,62 35.99,44.4 46.99,62 50.99,62 50.99,38 		
			"/>
		<polygon class="st2" points="77.99,38 77.99,48 66.99,48 66.99,38 62.99,38 62.99,62 66.99,62 66.99,52 77.99,52 77.99,62 
			81.99,62 81.99,38 		"/>
	</g>
</g>
<g>
	<g>
		<path class="st3" d="M130.85,23h2.5v11.18h-2.5l-5.33-7.01v7.01h-2.5V23h2.34l5.49,7.2V23z"/>
		<path class="st3" d="M144.06,34.18l-1.04-2.42h-4.69l-1.04,2.42h-2.66L139.47,23h2.42l4.83,11.18H144.06z M140.69,26.33
			l-1.41,3.25h2.8L140.69,26.33z"/>
		<path class="st3" d="M151.94,25.16v9.02h-2.5v-9.02h-3.17V23h8.83v2.16H151.94z"/>
		<path class="st3" d="M156.93,23h2.5v11.18h-2.5V23z"/>
		<path class="st3" d="M171.58,32.64c-1.13,1.1-2.52,1.66-4.18,1.66s-3.05-0.55-4.18-1.66c-1.13-1.1-1.7-2.48-1.7-4.12
			c0-1.64,0.57-3.02,1.7-4.12c1.13-1.1,2.52-1.66,4.18-1.66s3.04,0.55,4.18,1.66c1.13,1.1,1.7,2.48,1.7,4.12
			C173.28,30.16,172.71,31.54,171.58,32.64z M170.74,28.53c0-1-0.32-1.85-0.96-2.55c-0.64-0.7-1.43-1.06-2.36-1.06
			s-1.72,0.35-2.36,1.06c-0.64,0.7-0.96,1.55-0.96,2.55c0,1,0.32,1.85,0.96,2.54c0.64,0.7,1.43,1.05,2.36,1.05s1.72-0.35,2.36-1.05
			C170.42,30.37,170.74,29.52,170.74,28.53z"/>
		<path class="st3" d="M183.22,23h2.5v11.18h-2.5l-5.33-7.01v7.01h-2.5V23h2.34l5.49,7.2V23z"/>
		<path class="st3" d="M196.43,34.18l-1.04-2.42h-4.69l-1.04,2.42h-2.66L191.84,23h2.42l4.83,11.18H196.43z M193.06,26.33
			l-1.41,3.25h2.8L193.06,26.33z"/>
		<path class="st3" d="M200.38,34.18V23h2.5v8.96h4.77v2.22H200.38z"/>
		<path class="st3" d="M218.83,31.98c1.23,0,2.23-0.49,3.01-1.46l1.6,1.65c-1.27,1.43-2.77,2.14-4.49,2.14s-3.14-0.54-4.26-1.63
			c-1.11-1.09-1.67-2.46-1.67-4.12c0-1.66,0.57-3.04,1.7-4.15c1.14-1.11,2.53-1.66,4.17-1.66c1.83,0,3.37,0.7,4.61,2.1l-1.55,1.76
			c-0.79-0.98-1.77-1.47-2.94-1.47c-0.94,0-1.74,0.31-2.41,0.92c-0.67,0.61-1,1.44-1,2.48s0.31,1.88,0.94,2.5
			C217.17,31.66,217.94,31.98,218.83,31.98z"/>
		<path class="st3" d="M233.3,34.18l-1.04-2.42h-4.69l-1.04,2.42h-2.66L228.7,23h2.42l4.83,11.18H233.3z M229.92,26.33l-1.41,3.25
			h2.8L229.92,26.33z"/>
		<path class="st3" d="M245.07,23h2.5v11.18h-2.5l-5.33-7.01v7.01h-2.5V23h2.34l5.49,7.2V23z"/>
		<path class="st3" d="M255.46,31.98c1.23,0,2.23-0.49,3.01-1.46l1.6,1.65c-1.27,1.43-2.77,2.14-4.49,2.14s-3.14-0.54-4.26-1.63
			c-1.12-1.09-1.67-2.46-1.67-4.12c0-1.66,0.57-3.04,1.7-4.15c1.14-1.11,2.52-1.66,4.17-1.66c1.83,0,3.37,0.7,4.61,2.1l-1.55,1.76
			c-0.79-0.98-1.77-1.47-2.94-1.47c-0.94,0-1.74,0.31-2.41,0.92c-0.67,0.61-1,1.44-1,2.48s0.32,1.88,0.94,2.5
			C253.8,31.66,254.56,31.98,255.46,31.98z"/>
		<path class="st3" d="M270.09,23v2.22h-5.57v2.3h5.01v2.13h-5.01v2.32h5.74v2.21h-8.24V23H270.09z"/>
		<path class="st3" d="M281.57,26.71c0,1.79-0.71,2.95-2.13,3.47l2.83,4h-3.07l-2.48-3.57h-1.73v3.57h-2.5V23h4.24
			c1.74,0,2.98,0.29,3.72,0.88S281.57,25.41,281.57,26.71z M278.56,28.04c0.31-0.28,0.46-0.72,0.46-1.32s-0.16-1.02-0.48-1.24
			s-0.88-0.34-1.68-0.34h-1.87v3.31h1.82C277.67,28.46,278.25,28.32,278.56,28.04z"/>
		<path class="st3" d="M288.35,23h2.5v11.18h-2.5V23z"/>
		<path class="st3" d="M301.42,23h2.5v11.18h-2.5l-5.33-7.01v7.01h-2.5V23h2.34l5.49,7.2V23z"/>
		<path class="st3" d="M309.29,25.23c-0.24,0.2-0.36,0.46-0.36,0.78s0.15,0.58,0.44,0.78c0.29,0.19,0.97,0.42,2.03,0.68
			s1.89,0.65,2.47,1.18c0.59,0.52,0.88,1.29,0.88,2.29c0,1-0.38,1.82-1.13,2.44s-1.74,0.94-2.97,0.94c-1.77,0-3.37-0.66-4.78-1.97
			l1.49-1.82c1.21,1.06,2.32,1.58,3.34,1.58c0.46,0,0.82-0.1,1.08-0.3c0.26-0.2,0.39-0.46,0.39-0.8s-0.14-0.6-0.42-0.8
			s-0.83-0.4-1.65-0.6c-1.3-0.31-2.25-0.71-2.86-1.21s-0.9-1.27-0.9-2.34s0.38-1.88,1.14-2.46c0.76-0.58,1.71-0.86,2.86-0.86
			c0.75,0,1.49,0.13,2.24,0.38c0.75,0.26,1.4,0.62,1.95,1.09l-1.26,1.82c-0.97-0.74-1.97-1.1-3.01-1.1
			C309.85,24.94,309.53,25.03,309.29,25.23z"/>
		<path class="st3" d="M321.52,25.16v9.02h-2.5v-9.02h-3.17V23h8.83v2.16H321.52z"/>
		<path class="st3" d="M326.51,23h2.5v11.18h-2.5V23z"/>
		<path class="st3" d="M336.49,25.16v9.02H334v-9.02h-3.17V23h8.83v2.16H336.49z"/>
		<path class="st3" d="M344.45,31.3c0.42,0.52,0.98,0.78,1.68,0.78s1.26-0.26,1.67-0.78c0.41-0.52,0.62-1.22,0.62-2.12V23h2.5v6.26
			c0,1.62-0.45,2.87-1.34,3.74c-0.9,0.87-2.04,1.3-3.44,1.3c-1.4,0-2.55-0.44-3.45-1.31c-0.9-0.87-1.35-2.12-1.35-3.73V23h2.5v6.18
			C343.82,30.07,344.03,30.78,344.45,31.3z"/>
		<path class="st3" d="M358.24,25.16v9.02h-2.5v-9.02h-3.17V23h8.83v2.16H358.24z"/>
		<path class="st3" d="M371.29,23v2.22h-5.57v2.3h5.01v2.13h-5.01v2.32h5.74v2.21h-8.24V23H371.29z"/>
	</g>
</g>
<g>
	<path class="st4" d="M131.97,42.83c0.91,0.41,1.62,1,2.11,1.76c0.49,0.76,0.74,1.66,0.74,2.7c0,1.03-0.25,1.92-0.74,2.69
		s-1.2,1.35-2.11,1.76c-0.91,0.41-1.99,0.61-3.23,0.61h-2.82v3.86h-3.24v-14h6.06C129.98,42.21,131.05,42.41,131.97,42.83z
		 M130.77,49.08c0.51-0.42,0.76-1.02,0.76-1.79c0-0.79-0.25-1.39-0.76-1.81s-1.25-0.63-2.22-0.63h-2.64v4.86h2.64
		C129.53,49.71,130.27,49.5,130.77,49.08z"/>
	<path class="st4" d="M141.38,45.69c0.63-0.27,1.36-0.4,2.19-0.4v2.88c-0.35-0.03-0.58-0.04-0.7-0.04c-0.89,0-1.59,0.25-2.1,0.75
		c-0.51,0.5-0.76,1.25-0.76,2.25v5.08h-3.12V45.45h2.98v1.42C140.25,46.35,140.75,45.95,141.38,45.69z"/>
	<path class="st4" d="M155.81,51.71h-8.14c0.15,0.67,0.49,1.19,1.04,1.58c0.55,0.39,1.23,0.58,2.04,0.58c0.56,0,1.06-0.08,1.49-0.25
		c0.43-0.17,0.84-0.43,1.21-0.79l1.66,1.8c-1.01,1.16-2.49,1.74-4.44,1.74c-1.21,0-2.29-0.24-3.22-0.71
		c-0.93-0.47-1.65-1.13-2.16-1.97c-0.51-0.84-0.76-1.79-0.76-2.86c0-1.05,0.25-2,0.75-2.85s1.19-1.51,2.06-1.98
		c0.87-0.47,1.85-0.71,2.93-0.71c1.05,0,2.01,0.23,2.86,0.68c0.85,0.45,1.52,1.1,2.01,1.95c0.49,0.85,0.73,1.83,0.73,2.95
		C155.88,50.91,155.85,51.19,155.81,51.71z M148.52,48.25c-0.48,0.4-0.77,0.95-0.88,1.64h5.3c-0.11-0.68-0.4-1.22-0.88-1.63
		c-0.48-0.41-1.07-0.61-1.76-0.61C149.59,47.65,148.99,47.85,148.52,48.25z"/>
	<path class="st4" d="M168.92,41.37v14.84h-2.98v-1.24c-0.77,0.93-1.89,1.4-3.36,1.4c-1.01,0-1.93-0.23-2.75-0.68
		c-0.82-0.45-1.46-1.1-1.93-1.94s-0.7-1.81-0.7-2.92c0-1.11,0.23-2.08,0.7-2.92s1.11-1.49,1.93-1.94c0.82-0.45,1.74-0.68,2.75-0.68
		c1.37,0,2.45,0.43,3.22,1.3v-5.22H168.92z M165.07,53c0.52-0.54,0.78-1.26,0.78-2.17s-0.26-1.63-0.78-2.17
		c-0.52-0.54-1.17-0.81-1.96-0.81c-0.8,0-1.46,0.27-1.98,0.81c-0.52,0.54-0.78,1.26-0.78,2.17s0.26,1.63,0.78,2.17
		c0.52,0.54,1.18,0.81,1.98,0.81C163.9,53.8,164.56,53.54,165.07,53z"/>
	<path class="st4" d="M171.95,43.45c-0.36-0.33-0.54-0.75-0.54-1.24c0-0.49,0.18-0.91,0.54-1.24c0.36-0.33,0.83-0.5,1.4-0.5
		s1.04,0.16,1.4,0.48c0.36,0.32,0.54,0.72,0.54,1.2c0,0.52-0.18,0.95-0.54,1.29c-0.36,0.34-0.83,0.51-1.4,0.51
		S172.31,43.78,171.95,43.45z M171.8,45.45h3.12v10.76h-3.12V45.45z"/>
	<path class="st4" d="M179.92,55.66c-0.91-0.47-1.63-1.13-2.14-1.97c-0.51-0.84-0.77-1.79-0.77-2.86s0.26-2.02,0.77-2.86
		c0.51-0.84,1.23-1.5,2.14-1.97c0.91-0.47,1.94-0.71,3.09-0.71c1.13,0,2.12,0.24,2.97,0.71c0.85,0.47,1.46,1.15,1.85,2.03l-2.42,1.3
		c-0.56-0.99-1.37-1.48-2.42-1.48c-0.81,0-1.49,0.27-2.02,0.8s-0.8,1.26-0.8,2.18s0.27,1.65,0.8,2.18s1.21,0.8,2.02,0.8
		c1.07,0,1.87-0.49,2.42-1.48l2.42,1.32c-0.39,0.85-1,1.52-1.85,2c-0.85,0.48-1.84,0.72-2.97,0.72
		C181.87,56.37,180.84,56.13,179.92,55.66z"/>
	<path class="st4" d="M196.73,55.69c-0.31,0.23-0.68,0.4-1.13,0.51c-0.45,0.11-0.92,0.17-1.41,0.17c-1.28,0-2.27-0.33-2.97-0.98
		c-0.7-0.65-1.05-1.61-1.05-2.88v-4.42h-1.66v-2.4h1.66v-2.62h3.12v2.62h2.68v2.4h-2.68v4.38c0,0.45,0.12,0.8,0.35,1.05
		c0.23,0.25,0.56,0.37,0.99,0.37c0.49,0,0.91-0.13,1.26-0.4L196.73,55.69z"/>
	<path class="st4" d="M198.65,43.45c-0.36-0.33-0.54-0.75-0.54-1.24c0-0.49,0.18-0.91,0.54-1.24c0.36-0.33,0.83-0.5,1.4-0.5
		s1.04,0.16,1.4,0.48c0.36,0.32,0.54,0.72,0.54,1.2c0,0.52-0.18,0.95-0.54,1.29c-0.36,0.34-0.83,0.51-1.4,0.51
		S199.01,43.78,198.65,43.45z M198.49,45.45h3.12v10.76h-3.12V45.45z"/>
	<path class="st4" d="M215.19,45.45l-4.54,10.76h-3.22l-4.52-10.76h3.22l2.98,7.32l3.08-7.32H215.19z"/>
	<path class="st4" d="M226.65,51.71h-8.14c0.15,0.67,0.49,1.19,1.04,1.58c0.55,0.39,1.23,0.58,2.04,0.58c0.56,0,1.06-0.08,1.49-0.25
		c0.43-0.17,0.84-0.43,1.21-0.79l1.66,1.8c-1.01,1.16-2.49,1.74-4.44,1.74c-1.21,0-2.29-0.24-3.22-0.71
		c-0.93-0.47-1.65-1.13-2.16-1.97c-0.51-0.84-0.76-1.79-0.76-2.86c0-1.05,0.25-2,0.75-2.85s1.19-1.51,2.06-1.98
		c0.87-0.47,1.85-0.71,2.93-0.71c1.05,0,2.01,0.23,2.86,0.68c0.85,0.45,1.52,1.1,2.01,1.95c0.49,0.85,0.73,1.83,0.73,2.95
		C226.71,50.91,226.69,51.19,226.65,51.71z M219.35,48.25c-0.48,0.4-0.77,0.95-0.88,1.64h5.3c-0.11-0.68-0.4-1.22-0.88-1.63
		c-0.48-0.41-1.07-0.61-1.76-0.61C220.43,47.65,219.83,47.85,219.35,48.25z"/>
	<path class="st4" d="M237.52,55.5c-1.17-0.63-2.08-1.49-2.74-2.59c-0.66-1.1-0.99-2.34-0.99-3.71c0-1.37,0.33-2.61,0.99-3.71
		c0.66-1.1,1.57-1.96,2.74-2.59s2.48-0.94,3.93-0.94c1.45,0,2.76,0.31,3.92,0.94c1.16,0.63,2.07,1.49,2.74,2.59
		c0.67,1.1,1,2.34,1,3.71c0,1.37-0.33,2.61-1,3.71c-0.67,1.1-1.58,1.96-2.74,2.59c-1.16,0.63-2.47,0.94-3.92,0.94
		C240,56.45,238.69,56.13,237.52,55.5z M243.69,53.12c0.67-0.38,1.19-0.91,1.57-1.59c0.38-0.68,0.57-1.45,0.57-2.32
		c0-0.87-0.19-1.64-0.57-2.32c-0.38-0.68-0.9-1.21-1.57-1.59c-0.67-0.38-1.41-0.57-2.24-0.57c-0.83,0-1.57,0.19-2.24,0.57
		c-0.67,0.38-1.19,0.91-1.57,1.59c-0.38,0.68-0.57,1.45-0.57,2.32c0,0.87,0.19,1.64,0.57,2.32c0.38,0.68,0.9,1.21,1.57,1.59
		c0.67,0.38,1.41,0.57,2.24,0.57C242.28,53.69,243.03,53.5,243.69,53.12z"/>
	<path class="st4" d="M261.1,46.49c0.82,0.8,1.23,1.99,1.23,3.56v6.16h-3.12v-5.68c0-0.85-0.19-1.49-0.56-1.91s-0.91-0.63-1.62-0.63
		c-0.79,0-1.41,0.24-1.88,0.73c-0.47,0.49-0.7,1.21-0.7,2.17v5.32h-3.12V45.45h2.98v1.26c0.41-0.45,0.93-0.8,1.54-1.05
		c0.61-0.25,1.29-0.37,2.02-0.37C259.21,45.29,260.28,45.69,261.1,46.49z"/>
	<path class="st4" d="M267.38,55.66c-0.91-0.47-1.63-1.13-2.14-1.97c-0.51-0.84-0.77-1.79-0.77-2.86s0.26-2.02,0.77-2.86
		c0.51-0.84,1.23-1.5,2.14-1.97c0.91-0.47,1.94-0.71,3.09-0.71c1.13,0,2.12,0.24,2.97,0.71c0.85,0.47,1.46,1.15,1.85,2.03l-2.42,1.3
		c-0.56-0.99-1.37-1.48-2.42-1.48c-0.81,0-1.49,0.27-2.02,0.8s-0.8,1.26-0.8,2.18s0.27,1.65,0.8,2.18s1.21,0.8,2.02,0.8
		c1.07,0,1.87-0.49,2.42-1.48l2.42,1.32c-0.39,0.85-1,1.52-1.85,2c-0.85,0.48-1.84,0.72-2.97,0.72
		C269.33,56.37,268.3,56.13,267.38,55.66z"/>
	<path class="st4" d="M279.02,55.66c-0.9-0.47-1.6-1.13-2.11-1.97c-0.51-0.84-0.76-1.79-0.76-2.86s0.25-2.02,0.76-2.86
		c0.51-0.84,1.21-1.5,2.11-1.97c0.9-0.47,1.92-0.71,3.05-0.71c1.13,0,2.15,0.24,3.04,0.71c0.89,0.47,1.59,1.13,2.1,1.97
		c0.51,0.84,0.76,1.79,0.76,2.86s-0.25,2.02-0.76,2.86c-0.51,0.84-1.21,1.5-2.1,1.97c-0.89,0.47-1.91,0.71-3.04,0.71
		C280.94,56.37,279.92,56.13,279.02,55.66z M284.04,53c0.51-0.54,0.77-1.26,0.77-2.17s-0.26-1.63-0.77-2.17
		c-0.51-0.54-1.17-0.81-1.97-0.81c-0.8,0-1.46,0.27-1.98,0.81c-0.52,0.54-0.78,1.26-0.78,2.17s0.26,1.63,0.78,2.17
		c0.52,0.54,1.18,0.81,1.98,0.81C282.87,53.8,283.53,53.54,284.04,53z"/>
	<path class="st4" d="M290.05,41.37h3.12v14.84h-3.12V41.37z"/>
	<path class="st4" d="M298.14,55.66c-0.9-0.47-1.6-1.13-2.11-1.97c-0.51-0.84-0.76-1.79-0.76-2.86s0.25-2.02,0.76-2.86
		c0.51-0.84,1.21-1.5,2.11-1.97c0.9-0.47,1.92-0.71,3.05-0.71c1.13,0,2.15,0.24,3.04,0.71c0.89,0.47,1.59,1.13,2.1,1.97
		c0.51,0.84,0.76,1.79,0.76,2.86s-0.25,2.02-0.76,2.86c-0.51,0.84-1.21,1.5-2.1,1.97c-0.89,0.47-1.91,0.71-3.04,0.71
		C300.06,56.37,299.04,56.13,298.14,55.66z M303.16,53c0.51-0.54,0.77-1.26,0.77-2.17s-0.26-1.63-0.77-2.17
		c-0.51-0.54-1.17-0.81-1.97-0.81c-0.8,0-1.46,0.27-1.98,0.81c-0.52,0.54-0.78,1.26-0.78,2.17s0.26,1.63,0.78,2.17
		c0.52,0.54,1.18,0.81,1.98,0.81C301.99,53.8,302.65,53.54,303.16,53z"/>
	<path class="st4" d="M320.27,45.45v8.96c0,1.97-0.51,3.44-1.54,4.4c-1.03,0.96-2.53,1.44-4.5,1.44c-1.04,0-2.03-0.13-2.96-0.38
		c-0.93-0.25-1.71-0.62-2.32-1.1l1.24-2.24c0.45,0.37,1.03,0.67,1.72,0.89s1.39,0.33,2.08,0.33c1.08,0,1.88-0.24,2.39-0.73
		c0.51-0.49,0.77-1.22,0.77-2.21v-0.46c-0.81,0.89-1.95,1.34-3.4,1.34c-0.99,0-1.89-0.22-2.71-0.65c-0.82-0.43-1.47-1.04-1.95-1.83
		c-0.48-0.79-0.72-1.69-0.72-2.72s0.24-1.93,0.72-2.72c0.48-0.79,1.13-1.4,1.95-1.83c0.82-0.43,1.72-0.65,2.71-0.65
		c1.56,0,2.75,0.51,3.56,1.54v-1.38H320.27z M316.4,52.4c0.53-0.49,0.79-1.12,0.79-1.91c0-0.79-0.26-1.42-0.79-1.91
		c-0.53-0.49-1.2-0.73-2.03-0.73c-0.83,0-1.51,0.24-2.04,0.73c-0.53,0.49-0.8,1.12-0.8,1.91c0,0.79,0.27,1.42,0.8,1.91
		s1.21,0.73,2.04,0.73C315.2,53.12,315.88,52.88,316.4,52.4z"/>
	<path class="st4" d="M333.85,45.45l-4.86,11.42c-0.49,1.24-1.1,2.11-1.83,2.62c-0.73,0.51-1.6,0.76-2.63,0.76
		c-0.56,0-1.11-0.09-1.66-0.26c-0.55-0.17-0.99-0.41-1.34-0.72l1.14-2.22c0.24,0.21,0.52,0.38,0.83,0.5
		c0.31,0.12,0.62,0.18,0.93,0.18c0.43,0,0.77-0.1,1.04-0.31c0.27-0.21,0.51-0.55,0.72-1.03l0.04-0.1l-4.66-10.84h3.22l3.02,7.3
		l3.04-7.3H333.85z"/>
	<path class="st4" d="M353.75,56.21l-0.02-8.4l-4.12,6.92h-1.46l-4.1-6.74v8.22h-3.04v-14h2.68l5.24,8.7l5.16-8.7h2.66l0.04,14
		H353.75z"/>
	<path class="st4" d="M361.96,55.66c-0.9-0.47-1.6-1.13-2.11-1.97c-0.51-0.84-0.76-1.79-0.76-2.86s0.25-2.02,0.76-2.86
		c0.51-0.84,1.21-1.5,2.11-1.97c0.9-0.47,1.92-0.71,3.05-0.71c1.13,0,2.15,0.24,3.04,0.71c0.89,0.47,1.59,1.13,2.1,1.97
		c0.51,0.84,0.76,1.79,0.76,2.86s-0.25,2.02-0.76,2.86c-0.51,0.84-1.21,1.5-2.1,1.97c-0.89,0.47-1.91,0.71-3.04,0.71
		C363.88,56.37,362.86,56.13,361.96,55.66z M366.98,53c0.51-0.54,0.77-1.26,0.77-2.17s-0.26-1.63-0.77-2.17
		c-0.51-0.54-1.17-0.81-1.97-0.81c-0.8,0-1.46,0.27-1.98,0.81c-0.52,0.54-0.78,1.26-0.78,2.17s0.26,1.63,0.78,2.17
		c0.52,0.54,1.18,0.81,1.98,0.81C365.81,53.8,366.47,53.54,366.98,53z"/>
	<path class="st4" d="M383.95,41.37v14.84h-2.98v-1.24c-0.77,0.93-1.89,1.4-3.36,1.4c-1.01,0-1.93-0.23-2.75-0.68
		c-0.82-0.45-1.46-1.1-1.93-1.94s-0.7-1.81-0.7-2.92c0-1.11,0.23-2.08,0.7-2.92s1.11-1.49,1.93-1.94c0.82-0.45,1.74-0.68,2.75-0.68
		c1.37,0,2.45,0.43,3.22,1.3v-5.22H383.95z M380.11,53c0.52-0.54,0.78-1.26,0.78-2.17s-0.26-1.63-0.78-2.17
		c-0.52-0.54-1.17-0.81-1.96-0.81c-0.8,0-1.46,0.27-1.98,0.81c-0.52,0.54-0.78,1.26-0.78,2.17s0.26,1.63,0.78,2.17
		c0.52,0.54,1.18,0.81,1.98,0.81C378.94,53.8,379.59,53.54,380.11,53z"/>
	<path class="st4" d="M397.31,51.71h-8.14c0.15,0.67,0.49,1.19,1.04,1.58c0.55,0.39,1.23,0.58,2.04,0.58c0.56,0,1.06-0.08,1.49-0.25
		c0.43-0.17,0.84-0.43,1.21-0.79l1.66,1.8c-1.01,1.16-2.49,1.74-4.44,1.74c-1.21,0-2.29-0.24-3.22-0.71
		c-0.93-0.47-1.65-1.13-2.16-1.97c-0.51-0.84-0.76-1.79-0.76-2.86c0-1.05,0.25-2,0.75-2.85s1.19-1.51,2.06-1.98
		c0.87-0.47,1.85-0.71,2.93-0.71c1.05,0,2.01,0.23,2.86,0.68c0.85,0.45,1.52,1.1,2.01,1.95c0.49,0.85,0.73,1.83,0.73,2.95
		C397.37,50.91,397.35,51.19,397.31,51.71z M390.01,48.25c-0.48,0.4-0.77,0.95-0.88,1.64h5.3c-0.11-0.68-0.4-1.22-0.88-1.63
		c-0.48-0.41-1.07-0.61-1.76-0.61C391.09,47.65,390.49,47.85,390.01,48.25z"/>
	<path class="st4" d="M399.45,41.37h3.12v14.84h-3.12V41.37z"/>
	<path class="st4" d="M422.11,56.45l-1.68-1.56c-1.33,1.04-2.89,1.56-4.68,1.56c-1.01,0-1.93-0.16-2.74-0.49
		c-0.81-0.33-1.45-0.78-1.91-1.37s-0.69-1.25-0.69-1.98c0-0.87,0.24-1.63,0.73-2.29c0.49-0.66,1.27-1.29,2.35-1.89
		c-0.51-0.52-0.87-1.02-1.1-1.49c-0.23-0.47-0.34-0.96-0.34-1.47c0-0.68,0.18-1.28,0.54-1.8c0.36-0.52,0.87-0.92,1.53-1.21
		c0.66-0.29,1.42-0.43,2.29-0.43c1.21,0,2.19,0.29,2.92,0.87s1.1,1.36,1.1,2.35c0,0.72-0.22,1.36-0.65,1.92
		c-0.43,0.56-1.13,1.1-2.09,1.62l2.56,2.38c0.31-0.64,0.54-1.37,0.7-2.18l2.5,0.78c-0.27,1.24-0.69,2.3-1.28,3.18l1.64,1.52
		L422.11,56.45z M418.59,53.19l-3.38-3.16c-0.63,0.36-1.07,0.71-1.34,1.06c-0.27,0.35-0.4,0.74-0.4,1.18c0,0.52,0.23,0.94,0.68,1.26
		c0.45,0.32,1.06,0.48,1.82,0.48C416.94,54,417.82,53.73,418.59,53.19z M415.3,44.5c-0.27,0.24-0.41,0.55-0.41,0.92
		c0,0.28,0.07,0.54,0.22,0.79c0.15,0.25,0.43,0.58,0.86,0.99c0.68-0.36,1.15-0.68,1.42-0.97c0.27-0.29,0.4-0.6,0.4-0.93
		c0-0.35-0.12-0.63-0.36-0.84c-0.24-0.21-0.58-0.32-1.02-0.32C415.94,44.15,415.57,44.27,415.3,44.5z"/>
	<path class="st4" d="M122.68,63.21h6.36c1.52,0,2.86,0.29,4.03,0.87s2.07,1.4,2.72,2.45c0.65,1.05,0.97,2.28,0.97,3.68
		s-0.32,2.63-0.97,3.68c-0.65,1.05-1.55,1.87-2.72,2.45s-2.51,0.87-4.03,0.87h-6.36V63.21z M128.88,74.54c1.4,0,2.52-0.39,3.35-1.17
		s1.25-1.84,1.25-3.17s-0.42-2.39-1.25-3.17s-1.95-1.17-3.35-1.17h-2.96v8.68H128.88z"/>
	<path class="st4" d="M147.15,67.47c0.89,0.79,1.34,1.99,1.34,3.59v6.14h-2.92v-1.34c-0.59,1-1.68,1.5-3.28,1.5
		c-0.83,0-1.54-0.14-2.15-0.42c-0.61-0.28-1.07-0.67-1.39-1.16c-0.32-0.49-0.48-1.05-0.48-1.68c0-1,0.38-1.79,1.13-2.36
		c0.75-0.57,1.92-0.86,3.49-0.86h2.48c0-0.68-0.21-1.2-0.62-1.57c-0.41-0.37-1.03-0.55-1.86-0.55c-0.57,0-1.14,0.09-1.69,0.27
		c-0.55,0.18-1.02,0.42-1.41,0.73l-1.12-2.18c0.59-0.41,1.29-0.73,2.11-0.96s1.66-0.34,2.53-0.34
		C144.98,66.29,146.26,66.68,147.15,67.47z M144.49,74.9c0.41-0.25,0.71-0.61,0.88-1.09v-1.1h-2.14c-1.28,0-1.92,0.42-1.92,1.26
		c0,0.4,0.16,0.72,0.47,0.95s0.74,0.35,1.29,0.35C143.61,75.26,144.08,75.14,144.49,74.9z"/>
	<path class="st4" d="M158.25,76.69c-0.31,0.23-0.68,0.4-1.13,0.51c-0.45,0.11-0.92,0.17-1.41,0.17c-1.28,0-2.27-0.33-2.97-0.98
		c-0.7-0.65-1.05-1.61-1.05-2.88v-4.42h-1.66v-2.4h1.66v-2.62h3.12v2.62h2.68v2.4h-2.68v4.38c0,0.45,0.12,0.8,0.35,1.05
		c0.23,0.25,0.56,0.37,0.99,0.37c0.49,0,0.91-0.13,1.26-0.4L158.25,76.69z"/>
	<path class="st4" d="M168.19,67.47c0.89,0.79,1.34,1.99,1.34,3.59v6.14h-2.92v-1.34c-0.59,1-1.68,1.5-3.28,1.5
		c-0.83,0-1.54-0.14-2.15-0.42c-0.61-0.28-1.07-0.67-1.39-1.16c-0.32-0.49-0.48-1.05-0.48-1.68c0-1,0.38-1.79,1.13-2.36
		c0.75-0.57,1.92-0.86,3.49-0.86h2.48c0-0.68-0.21-1.2-0.62-1.57c-0.41-0.37-1.03-0.55-1.86-0.55c-0.57,0-1.14,0.09-1.69,0.27
		c-0.55,0.18-1.02,0.42-1.41,0.73l-1.12-2.18c0.59-0.41,1.29-0.73,2.11-0.96s1.66-0.34,2.53-0.34
		C166.02,66.29,167.3,66.68,168.19,67.47z M165.53,74.9c0.41-0.25,0.71-0.61,0.88-1.09v-1.1h-2.14c-1.28,0-1.92,0.42-1.92,1.26
		c0,0.4,0.16,0.72,0.47,0.95s0.74,0.35,1.29,0.35C164.65,75.26,165.12,75.14,165.53,74.9z"/>
	<path class="st4" d="M181.06,76.51c-1.15-0.62-2.06-1.48-2.72-2.58c-0.66-1.1-0.99-2.34-0.99-3.73s0.33-2.63,0.99-3.73
		c0.66-1.1,1.57-1.96,2.72-2.58c1.15-0.62,2.45-0.93,3.89-0.93c1.21,0,2.31,0.21,3.29,0.64c0.98,0.43,1.8,1.04,2.47,1.84l-2.08,1.92
		c-0.95-1.09-2.12-1.64-3.52-1.64c-0.87,0-1.64,0.19-2.32,0.57c-0.68,0.38-1.21,0.91-1.59,1.59c-0.38,0.68-0.57,1.45-0.57,2.32
		c0,0.87,0.19,1.64,0.57,2.32c0.38,0.68,0.91,1.21,1.59,1.59c0.68,0.38,1.45,0.57,2.32,0.57c1.4,0,2.57-0.55,3.52-1.66l2.08,1.92
		c-0.67,0.81-1.49,1.43-2.48,1.86c-0.99,0.43-2.09,0.64-3.3,0.64C183.51,77.45,182.22,77.13,181.06,76.51z"/>
	<path class="st4" d="M192.68,62.37h3.12v14.84h-3.12V62.37z"/>
	<path class="st4" d="M209.17,72.71h-8.14c0.15,0.67,0.49,1.19,1.04,1.58c0.55,0.39,1.23,0.58,2.04,0.58c0.56,0,1.06-0.08,1.49-0.25
		c0.43-0.17,0.84-0.43,1.21-0.79l1.66,1.8c-1.01,1.16-2.49,1.74-4.44,1.74c-1.21,0-2.29-0.24-3.22-0.71
		c-0.93-0.47-1.65-1.13-2.16-1.97c-0.51-0.84-0.76-1.79-0.76-2.86c0-1.05,0.25-2,0.75-2.85c0.5-0.85,1.19-1.51,2.06-1.98
		c0.87-0.47,1.85-0.71,2.93-0.71c1.05,0,2.01,0.23,2.86,0.68c0.85,0.45,1.52,1.1,2.01,1.95c0.49,0.85,0.73,1.83,0.73,2.95
		C209.23,71.91,209.21,72.19,209.17,72.71z M201.87,69.25c-0.48,0.4-0.77,0.95-0.88,1.64h5.3c-0.11-0.68-0.4-1.22-0.88-1.63
		c-0.48-0.41-1.07-0.61-1.76-0.61C202.95,68.65,202.35,68.84,201.87,69.25z"/>
	<path class="st4" d="M219.19,67.47c0.89,0.79,1.34,1.99,1.34,3.59v6.14h-2.92v-1.34c-0.59,1-1.68,1.5-3.28,1.5
		c-0.83,0-1.54-0.14-2.15-0.42c-0.61-0.28-1.07-0.67-1.39-1.16c-0.32-0.49-0.48-1.05-0.48-1.68c0-1,0.38-1.79,1.13-2.36
		c0.75-0.57,1.92-0.86,3.49-0.86h2.48c0-0.68-0.21-1.2-0.62-1.57c-0.41-0.37-1.03-0.55-1.86-0.55c-0.57,0-1.14,0.09-1.69,0.27
		c-0.55,0.18-1.02,0.42-1.41,0.73l-1.12-2.18c0.59-0.41,1.29-0.73,2.11-0.96s1.66-0.34,2.53-0.34
		C217.02,66.29,218.3,66.68,219.19,67.47z M216.53,74.9c0.41-0.25,0.71-0.61,0.88-1.09v-1.1h-2.14c-1.28,0-1.92,0.42-1.92,1.26
		c0,0.4,0.16,0.72,0.47,0.95s0.74,0.35,1.29,0.35C215.65,75.26,216.12,75.14,216.53,74.9z"/>
	<path class="st4" d="M227.84,66.69c0.63-0.27,1.36-0.4,2.19-0.4v2.88c-0.35-0.03-0.58-0.04-0.7-0.04c-0.89,0-1.59,0.25-2.1,0.75
		c-0.51,0.5-0.76,1.25-0.76,2.25v5.08h-3.12V66.45h2.98v1.42C226.71,67.34,227.21,66.95,227.84,66.69z"/>
	<path class="st4" d="M232.05,64.45c-0.36-0.33-0.54-0.75-0.54-1.24s0.18-0.91,0.54-1.24c0.36-0.33,0.83-0.5,1.4-0.5
		s1.04,0.16,1.4,0.48c0.36,0.32,0.54,0.72,0.54,1.2c0,0.52-0.18,0.95-0.54,1.29c-0.36,0.34-0.83,0.51-1.4,0.51
		S232.41,64.78,232.05,64.45z M231.9,66.45h3.12v10.76h-3.12V66.45z"/>
	<path class="st4" d="M247.68,67.49c0.82,0.8,1.23,1.99,1.23,3.56v6.16h-3.12v-5.68c0-0.85-0.19-1.49-0.56-1.91
		s-0.91-0.63-1.62-0.63c-0.79,0-1.41,0.24-1.88,0.73c-0.47,0.49-0.7,1.21-0.7,2.17v5.32h-3.12V66.45h2.98v1.26
		c0.41-0.45,0.93-0.8,1.54-1.05s1.29-0.37,2.02-0.37C245.79,66.29,246.86,66.69,247.68,67.49z"/>
	<path class="st4" d="M262.95,66.45v8.96c0,1.97-0.51,3.44-1.54,4.4c-1.03,0.96-2.53,1.44-4.5,1.44c-1.04,0-2.03-0.13-2.96-0.38
		c-0.93-0.25-1.71-0.62-2.32-1.1l1.24-2.24c0.45,0.37,1.03,0.67,1.72,0.89s1.39,0.33,2.08,0.33c1.08,0,1.88-0.24,2.39-0.73
		c0.51-0.49,0.77-1.22,0.77-2.21v-0.46c-0.81,0.89-1.95,1.34-3.4,1.34c-0.99,0-1.89-0.22-2.71-0.65c-0.82-0.43-1.47-1.04-1.95-1.83
		c-0.48-0.79-0.72-1.69-0.72-2.72s0.24-1.93,0.72-2.72c0.48-0.79,1.13-1.4,1.95-1.83c0.82-0.43,1.72-0.65,2.71-0.65
		c1.56,0,2.75,0.51,3.56,1.54v-1.38H262.95z M259.08,73.4c0.53-0.49,0.79-1.12,0.79-1.91c0-0.79-0.26-1.42-0.79-1.91
		s-1.2-0.73-2.03-0.73c-0.83,0-1.51,0.24-2.04,0.73s-0.8,1.12-0.8,1.91c0,0.79,0.27,1.42,0.8,1.91c0.53,0.49,1.21,0.73,2.04,0.73
		C257.88,74.12,258.56,73.88,259.08,73.4z"/>
	<path class="st4" d="M275.62,67.49c0.82,0.8,1.23,1.99,1.23,3.56v6.16h-3.12v-5.68c0-0.85-0.19-1.49-0.56-1.91
		s-0.91-0.63-1.62-0.63c-0.79,0-1.41,0.24-1.88,0.73c-0.47,0.49-0.7,1.21-0.7,2.17v5.32h-3.12V62.37h3.12v5.2
		c0.41-0.41,0.91-0.73,1.5-0.95s1.23-0.33,1.92-0.33C273.73,66.29,274.8,66.69,275.62,67.49z"/>
	<path class="st4" d="M281.86,76.66c-0.9-0.47-1.6-1.13-2.11-1.97c-0.51-0.84-0.76-1.79-0.76-2.86s0.25-2.02,0.76-2.86
		c0.51-0.84,1.21-1.5,2.11-1.97c0.9-0.47,1.92-0.71,3.05-0.71c1.13,0,2.15,0.24,3.04,0.71c0.89,0.47,1.59,1.13,2.1,1.97
		s0.76,1.79,0.76,2.86s-0.25,2.02-0.76,2.86c-0.51,0.84-1.21,1.5-2.1,1.97c-0.89,0.47-1.91,0.71-3.04,0.71
		C283.78,77.37,282.77,77.13,281.86,76.66z M286.89,74c0.51-0.54,0.77-1.26,0.77-2.17c0-0.91-0.26-1.63-0.77-2.17
		c-0.51-0.54-1.17-0.81-1.97-0.81c-0.8,0-1.46,0.27-1.98,0.81c-0.52,0.54-0.78,1.26-0.78,2.17c0,0.91,0.26,1.63,0.78,2.17
		c0.52,0.54,1.18,0.81,1.98,0.81C285.72,74.8,286.37,74.54,286.89,74z"/>
	<path class="st4" d="M303.73,66.45v10.76h-2.96v-1.28c-0.41,0.47-0.91,0.82-1.48,1.07c-0.57,0.25-1.19,0.37-1.86,0.37
		c-1.41,0-2.53-0.41-3.36-1.22c-0.83-0.81-1.24-2.02-1.24-3.62v-6.08h3.12v5.62c0,1.73,0.73,2.6,2.18,2.6c0.75,0,1.35-0.24,1.8-0.73
		c0.45-0.49,0.68-1.21,0.68-2.17v-5.32H303.73z"/>
	<path class="st4" d="M307.64,77.04c-0.85-0.22-1.53-0.5-2.04-0.83l1.04-2.24c0.48,0.31,1.06,0.56,1.74,0.75
		c0.68,0.19,1.35,0.29,2,0.29c1.32,0,1.98-0.33,1.98-0.98c0-0.31-0.18-0.53-0.54-0.66s-0.91-0.25-1.66-0.34
		c-0.88-0.13-1.61-0.29-2.18-0.46c-0.57-0.17-1.07-0.48-1.49-0.92c-0.42-0.44-0.63-1.07-0.63-1.88c0-0.68,0.2-1.28,0.59-1.81
		c0.39-0.53,0.97-0.94,1.72-1.23c0.75-0.29,1.64-0.44,2.67-0.44c0.76,0,1.52,0.08,2.27,0.25c0.75,0.17,1.38,0.4,1.87,0.69
		l-1.04,2.22c-0.95-0.53-1.98-0.8-3.1-0.8c-0.67,0-1.17,0.09-1.5,0.28c-0.33,0.19-0.5,0.43-0.5,0.72c0,0.33,0.18,0.57,0.54,0.7
		c0.36,0.13,0.93,0.26,1.72,0.38c0.88,0.15,1.6,0.3,2.16,0.47c0.56,0.17,1.05,0.47,1.46,0.91c0.41,0.44,0.62,1.05,0.62,1.84
		c0,0.67-0.2,1.26-0.6,1.78c-0.4,0.52-0.98,0.92-1.75,1.21c-0.77,0.29-1.68,0.43-2.73,0.43C309.36,77.37,308.49,77.25,307.64,77.04z
		"/>
	<path class="st4" d="M327.73,72.71h-8.14c0.15,0.67,0.49,1.19,1.04,1.58c0.55,0.39,1.23,0.58,2.04,0.58c0.56,0,1.06-0.08,1.49-0.25
		c0.43-0.17,0.84-0.43,1.21-0.79l1.66,1.8c-1.01,1.16-2.49,1.74-4.44,1.74c-1.21,0-2.29-0.24-3.22-0.71
		c-0.93-0.47-1.65-1.13-2.16-1.97c-0.51-0.84-0.76-1.79-0.76-2.86c0-1.05,0.25-2,0.75-2.85c0.5-0.85,1.19-1.51,2.06-1.98
		c0.87-0.47,1.85-0.71,2.93-0.71c1.05,0,2.01,0.23,2.86,0.68c0.85,0.45,1.52,1.1,2.01,1.95c0.49,0.85,0.73,1.83,0.73,2.95
		C327.8,71.91,327.77,72.19,327.73,72.71z M320.44,69.25c-0.48,0.4-0.77,0.95-0.88,1.64h5.3c-0.11-0.68-0.4-1.22-0.88-1.63
		c-0.48-0.41-1.07-0.61-1.76-0.61C321.51,68.65,320.91,68.84,320.44,69.25z"/>
</g>
</svg>
