<svg width="30" height="30" viewBox="0 0 30 30" fill="none" xmlns="http://www.w3.org/2000/svg">
<rect width="29.7417" height="29.7417" rx="8" fill="#E2682C"/>
<g clip-path="url(#clip0_1821_5531)">
<path d="M23.2135 14.4011C23.2135 12.9308 22.7976 11.5218 22.0845 10.2965C21.3121 9.01 20.2425 8.02979 18.9353 7.3559C17.6281 6.68201 16.202 6.43696 14.776 6.55948C13.2905 6.74327 11.9239 7.3559 10.7949 8.21358C9.60653 9.13252 8.77466 10.3578 8.23989 11.7668C7.76454 13.0533 7.6457 14.4011 7.82396 15.6876L6.695 15.075L5.80371 16.8516L9.01234 18.5057C9.1906 18.6283 9.36885 18.6283 9.48769 18.6283C9.66595 18.6283 9.8442 18.567 10.0225 18.5057C10.2007 18.3832 10.3196 18.2607 10.379 18.0769L11.9833 14.7687L10.2601 13.8498L9.72537 14.9525C9.66595 13.911 9.78479 12.9308 10.2007 12.0119C10.6761 10.8479 11.5079 9.92894 12.5775 9.31631C13.647 8.70368 14.8354 8.39737 16.0238 8.51989C17.2122 8.64242 18.3411 9.07126 19.2918 9.86767C20.2425 10.6641 20.8961 11.7056 21.1932 12.9308C21.4903 14.1561 21.4309 15.3813 21.015 16.6066C20.599 17.7706 19.8266 18.7508 18.8759 19.4859C17.8658 20.2211 16.6774 20.5887 15.489 20.5274H14.5383V22.4878H15.489C16.8556 22.4878 18.1629 22.1202 19.3512 21.4463C20.5396 20.7725 21.4903 19.731 22.1439 18.567C22.7976 17.3417 23.1541 15.994 23.1541 14.5849L23.2135 14.4011Z" fill="white"/>
</g>
<defs>
<clipPath id="clip0_1821_5531">
<rect width="17.4098" height="15.959" fill="white" transform="translate(5.80371 6.52867)"/>
</clipPath>
</defs>
</svg>
