<?xml version="1.0" encoding="utf-8"?>
<!-- Generator: Adobe Illustrator 27.0.0, SVG Export Plug-In . SVG Version: 6.00 Build 0)  -->
<svg version="1.1" id="Layer_1" xmlns="http://www.w3.org/2000/svg" xmlns:xlink="http://www.w3.org/1999/xlink" x="0px" y="0px"
	 viewBox="0 0 55.4 31.6" style="enable-background:new 0 0 55.4 31.6;" xml:space="preserve">
<style type="text/css">
	.st0{fill:#2870B8;}
	.st1{fill:#FFFFFF;}
</style>
<path class="st0" d="M43.9,31.3H11.4c-6.2,0-11.3-5.1-11.3-11.3v-8.4c0-6.2,5.1-11.3,11.3-11.3h32.4c6.2,0,11.3,5.1,11.3,11.3v8.4
	C55.2,26.3,50.1,31.3,43.9,31.3z"/>
<path class="st1" d="M25.6,24.7L25.6,24.7c-0.7,0.7-1.8,0.7-2.5,0l-7.6-7.6c-0.7-0.7-0.7-1.8,0-2.5L23.1,7c0.7-0.7,1.8-0.7,2.5,0
	l0,0c0.7,0.7,0.7,1.8,0,2.5L21,14l17.6-0.1c1,0,1.8,0.8,1.8,1.8l0,0c0,1-0.8,1.8-1.8,1.8L21,17.6l4.6,4.6
	C26.3,22.9,26.3,24,25.6,24.7z"/>
</svg>
