<?xml version="1.0" encoding="utf-8"?>
<!-- Generator: Adobe Illustrator 25.2.3, SVG Export Plug-In . SVG Version: 6.00 Build 0)  -->
<svg version="1.1" id="Layer_1" xmlns="http://www.w3.org/2000/svg" xmlns:xlink="http://www.w3.org/1999/xlink" x="0px" y="0px"
	 viewBox="0 0 18 18" style="enable-background:new 0 0 18 18;" xml:space="preserve">
<style type="text/css">
	.st0{fill:#FFFFFF;}
</style>
<path class="st0" d="M17.78,16.72l-5.76-5.76c0.92-1.15,1.48-2.62,1.48-4.21C13.5,3.02,10.48,0,6.75,0S0,3.02,0,6.75
	s3.02,6.75,6.75,6.75c1.59,0,3.06-0.56,4.21-1.48l5.76,5.76c0.15,0.15,0.34,0.22,0.53,0.22s0.38-0.07,0.53-0.22
	C18.07,17.49,18.07,17.01,17.78,16.72z M6.75,12.05c-2.92,0-5.3-2.38-5.3-5.3s2.38-5.3,5.3-5.3s5.3,2.38,5.3,5.3
	S9.67,12.05,6.75,12.05z"/>
</svg>
