<?xml version="1.0" encoding="utf-8"?>
<!-- Generator: Adobe Illustrator 26.5.0, SVG Export Plug-In . SVG Version: 6.00 Build 0)  -->
<svg version="1.1" id="Layer_1" xmlns="http://www.w3.org/2000/svg" xmlns:xlink="http://www.w3.org/1999/xlink" x="0px" y="0px"
	 viewBox="0 0 13 13" style="enable-background:new 0 0 13 13;" xml:space="preserve">
<style type="text/css">
	.st0{display:none;}
	.st1{display:inline;}
	.st2{fill:#F39530;}
	.st3{fill:#E17605;}
</style>
<g id="Layer_1_00000073692319540022920690000004771239698724556960_" class="st0">
	<g class="st1">
		<polygon class="st2" points="12.2,9.1 11,9.1 11,11.6 1.4,11.6 1.4,2.1 3.9,2.1 3.9,0.9 0.3,0.9 0.3,12.8 12.2,12.8 		"/>
		<path class="st2" d="M4.4,6.2l-1,3.4l3.4-0.9l5.9-5.9l-2.5-2.5L4.4,6.2z M6.2,7.6L5.1,7.9l0.3-1.1l3.4-3.4l0.8,0.8L6.2,7.6z
			 M10.4,3.4L9.6,2.6l0.7-0.7l0.8,0.8L10.4,3.4z"/>
	</g>
</g>
<g id="Layer_2_00000000223800132418170150000013708525775280267657_">
	<g>
		<path class="st3" d="M10,7.2C9.4,7.6,8.7,7.8,8,7.8c-0.8,0-1.5-0.2-2.1-0.6C5.7,7.3,5.6,7.4,5.4,7.4C4.1,8,3.2,9.3,3.2,10.8v1.4
			c0,0.3,0.2,0.5,0.5,0.5h8.5c0.3,0,0.5-0.2,0.5-0.5v-1.4C12.7,9.1,11.6,7.7,10,7.2z"/>
		<path class="st3" d="M4,7.6c-0.2,0-0.3,0-0.5,0c-0.5,0-1-0.1-1.4-0.4c-1,0.4-1.8,1.4-1.8,2.5v1c0,0.2,0.2,0.3,0.3,0.3h2v-0.3
			C2.6,9.5,3.1,8.4,4,7.6z"/>
		<path class="st3" d="M8,7c1.7,0,3-1.3,3-3V3.2c0-1.6-1.4-3-3-3s-3,1.3-3,3V4C4.9,5.7,6.3,7,8,7z"/>
		<path class="st3" d="M3.6,6.8c0.6,0,1.1-0.2,1.5-0.6C4.6,5.6,4.3,4.8,4.3,4V3.2c0-0.3,0-0.6,0.1-0.9C4.1,2.2,3.9,2.1,3.6,2.1
			c-1.2,0-2.1,0.9-2.1,2v0.6C1.5,5.9,2.4,6.8,3.6,6.8z"/>
	</g>
</g>
</svg>
