<?xml version="1.0" encoding="utf-8"?>
<!-- Generator: Adobe Illustrator 26.5.0, SVG Export Plug-In . SVG Version: 6.00 Build 0)  -->
<svg version="1.1" id="Layer_1" xmlns="http://www.w3.org/2000/svg" xmlns:xlink="http://www.w3.org/1999/xlink" x="0px" y="0px"
	 viewBox="0 0 18 18" style="enable-background:new 0 0 18 18;" xml:space="preserve">
<style type="text/css">
	.st0{fill:#E87B05;}
</style>
<g>
	<path class="st0" d="M15.3,12.6c-0.2,0-0.5,0.1-0.6,0.3c-0.2,0.2-0.3,0.4-0.3,0.6v1.8v0c0,0.2-0.1,0.5-0.3,0.6
		c-0.2,0.2-0.4,0.3-0.6,0.3H2.8c-0.2,0-0.5-0.1-0.6-0.3c-0.2-0.2-0.3-0.4-0.3-0.6V4.6c0-0.2,0.1-0.5,0.3-0.6
		c0.2-0.2,0.4-0.3,0.6-0.3h1.8c0,0.5,0.2,0.9,0.5,1.3c0.3,0.3,0.8,0.5,1.3,0.5h3.6c0.5,0,0.9-0.2,1.3-0.5c0.3-0.3,0.5-0.8,0.5-1.3
		h1.8c0.2,0,0.5,0.1,0.6,0.3c0.2,0.2,0.3,0.4,0.3,0.6v3.6c0,0.3,0.2,0.6,0.4,0.8c0.3,0.2,0.6,0.2,0.9,0c0.3-0.2,0.4-0.5,0.4-0.8V4.6
		c0-0.7-0.3-1.4-0.8-1.9s-1.2-0.8-1.9-0.8h-1.8c0-0.5-0.2-0.9-0.5-1.3c-0.3-0.3-0.8-0.5-1.3-0.5H6.4c-0.5,0-0.9,0.2-1.3,0.5
		C4.8,1,4.6,1.4,4.6,1.9H2.8c-0.7,0-1.4,0.3-1.9,0.8C0.4,3.2,0.1,3.9,0.1,4.6v10.7c0,0.7,0.3,1.4,0.8,1.9c0.5,0.5,1.2,0.8,1.9,0.8
		h10.7c0.7,0,1.4-0.3,1.9-0.8c0.5-0.5,0.8-1.2,0.8-1.9v-1.8c0-0.2-0.1-0.5-0.3-0.6S15.5,12.6,15.3,12.6L15.3,12.6z M6.4,1.9h3.6v1.8
		H6.4V1.9z"/>
	<path class="st0" d="M17,9.9H8.9l1.2-1.1l0,0c0.2-0.2,0.3-0.6,0.2-0.9C10.3,7.6,10,7.3,9.7,7.3c-0.3-0.1-0.6,0-0.9,0.2l-2.7,2.7
		c-0.2,0.2-0.3,0.4-0.3,0.6c0,0.2,0.1,0.5,0.3,0.6l2.7,2.7c0.2,0.2,0.4,0.3,0.6,0.3c0.2,0,0.5-0.1,0.6-0.3c0.2-0.2,0.3-0.4,0.3-0.6
		c0-0.2-0.1-0.5-0.3-0.6l-1.2-1.1H17c0.3,0,0.6-0.2,0.8-0.4c0.2-0.3,0.2-0.6,0-0.9C17.7,10.1,17.4,9.9,17,9.9L17,9.9z"/>
</g>
</svg>
