<?xml version="1.0" encoding="utf-8"?>
<!-- Generator: Adobe Illustrator 26.5.0, SVG Export Plug-In . SVG Version: 6.00 Build 0)  -->
<svg version="1.1" id="Layer_1" xmlns="http://www.w3.org/2000/svg" xmlns:xlink="http://www.w3.org/1999/xlink" x="0px" y="0px"
	 viewBox="0 0 57 33" style="enable-background:new 0 0 57 33;" xml:space="preserve">
<style type="text/css">
	.st0{fill:#4D91D5;}
	.st1{fill:#FFFFFF;}
</style>
<g>
	<path class="st0" d="M40.4,32.9H16.5c-9,0-16.3-7.4-16.3-16.3v0c0-9,7.4-16.3,16.3-16.3h23.9c9,0,16.3,7.4,16.3,16.3v0
		C56.8,25.5,49.4,32.9,40.4,32.9z"/>
</g>
<path class="st1" d="M26.5,25.5L26.5,25.5c-0.7,0.7-1.8,0.7-2.5,0l-7.6-7.6c-0.7-0.7-0.7-1.8,0-2.5L24,7.8c0.7-0.7,1.8-0.7,2.5,0
	l0,0c0.7,0.7,0.7,1.8,0,2.5l-4.6,4.5l17.6-0.1c1,0,1.8,0.8,1.8,1.8l0,0c0,1-0.8,1.8-1.8,1.8l-17.6,0.1l4.6,4.6
	C27.2,23.7,27.2,24.8,26.5,25.5z"/>
</svg>
