<?xml version="1.0" encoding="utf-8"?>
<!-- Generator: Adobe Illustrator 26.5.0, SVG Export Plug-In . SVG Version: 6.00 Build 0)  -->
<svg version="1.1" id="Layer_1" xmlns="http://www.w3.org/2000/svg" xmlns:xlink="http://www.w3.org/1999/xlink" x="0px" y="0px"
	 viewBox="0 0 14 14" style="enable-background:new 0 0 14 14;" xml:space="preserve">
<style type="text/css">
	.st0{fill:#DE7417;}
</style>
<path class="st0" d="M11.6,13.5L0.5,2.4C0,1.9,0,1.2,0.5,0.6l0.1-0.1C1.1,0,1.9,0,2.4,0.5l11.1,11.1c0.5,0.5,0.5,1.3,0,1.8l-0.1,0.1
	C12.9,14,12,14,11.6,13.5z"/>
<path class="st0" d="M13.5,2.4L2.4,13.5c-0.5,0.5-1.3,0.5-1.8,0l-0.1-0.1c-0.5-0.5-0.5-1.3,0-1.8L11.6,0.5C12,0,12.8,0,13.4,0.5
	l0.1,0.1C14,1.1,14,1.9,13.5,2.4z"/>
</svg>
