<svg width="27" height="24" viewBox="0 0 27 24" fill="none" xmlns="http://www.w3.org/2000/svg">
<g clip-path="url(#clip0_1_586)">
<path d="M21.2285 11.0562H9.23447C8.51303 11.0562 7.97194 10.5169 7.97194 9.79775C7.97194 9.07865 8.51303 8.53933 9.23447 8.53933H21.2285C21.9499 8.53933 22.491 9.07865 22.491 9.79775C22.491 10.5169 21.9499 11.0562 21.2285 11.0562ZM27 3.32584C27 2.60674 26.4589 2.06742 25.7375 2.06742H9.23447C8.51303 2.06742 7.97194 2.60674 7.97194 3.32584C7.97194 4.04494 8.51303 4.58427 9.23447 4.58427H25.7375C26.4589 4.58427 27 4.04494 27 3.32584V3.32584ZM17.982 16.2697C17.982 15.5506 17.4409 15.0112 16.7194 15.0112H9.23447C8.51303 15.0112 7.97194 15.5506 7.97194 16.2697C7.97194 16.9888 8.51303 17.5281 9.23447 17.5281H16.7194C17.4409 17.5281 17.982 16.9888 17.982 16.2697ZM8.24249 19.6854C7.88176 19.1461 7.07014 19.0562 6.52906 19.4157L5.53707 20.1348V1.25843C5.53707 0.539326 4.99599 0 4.27455 0C3.55311 0 2.92184 0.629213 2.92184 1.34831V20.2247L1.92986 19.5056C1.38878 19.1461 0.577154 19.236 0.216433 19.7753C-0.144289 20.3146 -0.0541082 21.1236 0.486974 21.4831L3.46293 23.7303C3.64329 23.9101 4.00401 24 4.18437 24C4.45491 24 4.72545 23.9101 4.90581 23.7303L7.97194 21.4831C8.51303 21.0337 8.60321 20.2247 8.24249 19.6854V19.6854Z" fill="#70808D"/>
</g>
<defs>
<clipPath id="clip0_1_586">
<rect width="27" height="24" fill="white"/>
</clipPath>
</defs>
</svg>
