<?xml version="1.0" encoding="utf-8"?>
<!-- Generator: Adobe Illustrator 24.2.1, SVG Export Plug-In . SVG Version: 6.00 Build 0)  -->
<svg version="1.1" xmlns="http://www.w3.org/2000/svg" xmlns:xlink="http://www.w3.org/1999/xlink" x="0px" y="0px"
	 viewBox="0 0 193 193" style="enable-background:new 0 0 193 193;" xml:space="preserve">
<style type="text/css">
	.st0{fill:#FFFFFF;}
	.st1{display:none;}
	.st2{display:inline;}
	.st3{fill:#F08E25;}
	.st4{display:inline;fill:none;}
	.st5{font-family:'ProximaNova-Regular';}
	.st6{font-size:18px;}
	.st7{display:inline;fill:#AF5B00;}
	.st8{font-family:'Raleway-Regular';}
	.st9{font-size:11px;}
	.st10{fill:#AF5B00;}
	.st11{font-size:12px;}
	.st12{fill:none;}
	.st13{fill:#F08E25;stroke:#F08E25;stroke-width:0.5;stroke-miterlimit:10;}
</style>
<g id="Layer_1">
	<circle class="st0" cx="96.5" cy="96.5" r="96.1"/>
</g>
<g id="Layer_2" class="st1">
	<g class="st2">
		<path class="st3" d="M96.5,71.7c12.2,0,22.2-10,22.2-22.2c0-12.2-10-22.2-22.2-22.2s-22.2,10-22.2,22.2
			C74.3,61.8,84.3,71.7,96.5,71.7z M75.9,49.5c0-11.4,9.3-20.7,20.7-20.7s20.7,9.3,20.7,20.7c0,2.9-0.6,5.7-1.7,8.2
			c-2.8-4.7-7.2-8.2-12.4-9.8c1.5-1.6,2.4-3.7,2.4-6.1c0-4.9-4-9-9-9c-4.9,0-9,4-9,9c0,2.3,0.9,4.5,2.4,6.1
			c-5.2,1.6-9.6,5.1-12.4,9.8C76.5,55.3,75.9,52.5,75.9,49.5z M96.5,49.3c-4.1,0-7.4-3.3-7.4-7.4s3.3-7.4,7.4-7.4
			c4.1,0,7.4,3.3,7.4,7.4S100.6,49.3,96.5,49.3z M91.3,49.2c1.5,1.1,3.3,1.7,5.2,1.7c1.9,0,3.7-0.6,5.2-1.7
			c5.6,1.5,10.2,5.2,12.9,10.3c-3.5,6.4-10.3,10.8-18.1,10.8c-7.8,0-14.6-4.4-18.1-10.8C81.1,54.4,85.8,50.6,91.3,49.2z"/>
		<path class="st3" d="M78.5,74.3c-0.4,0-0.8,0.3-0.8,0.8v8.8c0,0.4,0.3,0.8,0.8,0.8h36.1c0.4,0,0.8-0.3,0.8-0.8v-8.8
			c0-0.4-0.3-0.8-0.8-0.8H78.5z M113.8,83.1H79.2v-7.3h34.6V83.1z"/>
		<rect x="85.6" y="78.7" class="st3" width="3.4" height="1.5"/>
		<rect x="91.8" y="78.7" class="st3" width="3.4" height="1.5"/>
		<rect x="97.9" y="78.7" class="st3" width="3.4" height="1.5"/>
		<rect x="104.1" y="78.7" class="st3" width="3.4" height="1.5"/>
	</g>
	<rect x="36.1" y="90.9" class="st4" width="120.8" height="35"/>
	<text transform="matrix(1 0 0 1 66.2302 102.9196)" class="st2"><tspan x="0" y="0" class="st3 st5 st6">Already </tspan><tspan x="-13.7" y="17.7" class="st3 st5 st6">a Member?</tspan></text>
	<rect x="36.1" y="136.9" class="st4" width="120.8" height="35"/>
	<text transform="matrix(1 0 0 1 77.5891 144.892)" class="st7 st8 st9">Sign in.</text>
</g>
<g id="Layer_2_copy" class="st1">
	<rect x="36.1" y="90.9" class="st4" width="120.8" height="35"/>
	<text transform="matrix(1 0 0 1 67.9851 102.9196)" class="st2"><tspan x="0" y="0" class="st3 st5 st6">Upload</tspan><tspan x="-10.9" y="17.7" class="st3 st5 st6">Your Data</tspan></text>
	<rect x="20.3" y="136.9" class="st4" width="152.5" height="44.2"/>
	<text transform="matrix(1 0 0 1 49.5778 144.892)" class="st2"><tspan x="0" y="0" class="st10 st8 st9">Add collections &amp; </tspan><tspan x="8.2" y="12" class="st10 st8 st9">upload bulk or </tspan><tspan x="17.6" y="24" class="st10 st8 st9">single files.</tspan></text>
	<g class="st2">
		<g>
			<g>
				<path class="st3" d="M109.6,60.1H84.1c-0.4,0-0.7-0.3-0.7-0.7v-9c0-0.4,0.3-0.7,0.7-0.7h7.8c0.4,0,0.7,0.3,0.7,0.7v3h8.3v-3
					c0-0.4,0.3-0.7,0.7-0.7h8.1c0.4,0,0.7,0.3,0.7,0.7v9C110.3,59.8,110,60.1,109.6,60.1z M84.8,58.7h24.2v-7.6h-6.7v3
					c0,0.4-0.3,0.7-0.7,0.7h-9.7c-0.4,0-0.7-0.3-0.7-0.7v-3h-6.4V58.7z"/>
			</g>
			<g>
				<path class="st3" d="M109.6,51.1c-0.1,0-0.3,0-0.4-0.1l-6.8-4.1h-3.8c-0.4,0-0.7-0.3-0.7-0.7c0-0.4,0.3-0.7,0.7-0.7h4
					c0.1,0,0.3,0,0.4,0.1l6.9,4.2c0.3,0.2,0.4,0.6,0.2,1C110.1,51,109.9,51.1,109.6,51.1z"/>
			</g>
			<g>
				<path class="st3" d="M84.1,51.1c-0.2,0-0.5-0.1-0.6-0.3c-0.2-0.3-0.1-0.8,0.2-1l6.3-4.2c0.1-0.1,0.3-0.1,0.4-0.1h4
					c0.4,0,0.7,0.3,0.7,0.7c0,0.4-0.3,0.7-0.7,0.7h-3.8L84.5,51C84.3,51.1,84.2,51.1,84.1,51.1z"/>
			</g>
			<g>
				<path class="st3" d="M96.7,50.7c-0.4,0-0.7-0.3-0.7-0.7V37.6c0-0.4,0.3-0.7,0.7-0.7c0.4,0,0.7,0.3,0.7,0.7V50
					C97.4,50.4,97,50.7,96.7,50.7z"/>
			</g>
			<g>
				<path class="st3" d="M92,42.4c-0.2,0-0.4-0.1-0.5-0.2c-0.3-0.3-0.3-0.7,0-1l4.6-4.6c0.3-0.3,0.7-0.3,1,0l4.6,4.6
					c0.3,0.3,0.3,0.7,0,1c-0.3,0.3-0.7,0.3-1,0L96.7,38l-4.1,4.1C92.4,42.3,92.2,42.4,92,42.4z"/>
			</g>
		</g>
		<g>
			<g>
				<path class="st3" d="M124.5,68.1H69.2c-1.4,0-2.6-1.2-2.6-2.6V32.1c0-1.4,1.2-2.6,2.6-2.6h55.4c1.4,0,2.6,1.2,2.6,2.6v33.4
					C127.1,67,126,68.1,124.5,68.1z M69.2,31c-0.6,0-1.2,0.5-1.2,1.2v33.4c0,0.6,0.5,1.2,1.2,1.2h55.4c0.6,0,1.2-0.5,1.2-1.2V32.1
					c0-0.6-0.5-1.2-1.2-1.2L69.2,31z"/>
			</g>
			<g>
				<path class="st3" d="M104.1,77.6H89.6c-0.4,0-0.7-0.3-0.7-0.7v-9.4c0-0.4,0.3-0.7,0.7-0.7h14.5c0.4,0,0.7,0.3,0.7,0.7v9.4
					C104.8,77.2,104.5,77.6,104.1,77.6z M90.3,76.2h13v-8h-13V76.2z"/>
			</g>
			<g>
				<path class="st3" d="M111,82.6H82.7c-0.4,0-0.7-0.3-0.7-0.7v-5c0-0.4,0.3-0.7,0.7-0.7H111c0.4,0,0.7,0.3,0.7,0.7v5
					C111.7,82.3,111.4,82.6,111,82.6z M83.4,81.2h26.9v-3.6H83.4V81.2z"/>
			</g>
		</g>
	</g>
</g>
<g id="Layer_2_copy_2" class="st1">
	<rect x="36.1" y="90.9" class="st4" width="120.8" height="35"/>
	<text transform="matrix(1 0 0 1 71.342 102.9196)" class="st2"><tspan x="0" y="0" class="st3 st5 st6">Check</tspan><tspan x="-20.3" y="17.7" class="st3 st5 st6">Your Status</tspan></text>
	<rect x="20.3" y="136.9" class="st4" width="152.5" height="44.2"/>
	<text transform="matrix(1 0 0 1 51.8723 145.622)" class="st2"><tspan x="0" y="0" class="st10 st8 st11">View the status  </tspan><tspan x="-9.6" y="13" class="st10 st8 st11">of your downloads  </tspan><tspan x="14.3" y="26" class="st10 st8 st11">&amp; uploads.</tspan></text>
	<g class="st2">
		<path class="st3" d="M79.6,28h35.5c0.9,0,1.8,0.4,2.4,1s1,1.5,1,2.4v46.8c0,0.9-0.4,1.8-1,2.4c-0.6,0.6-1.5,1-2.4,1H79.6
			c-0.9,0-1.8-0.4-2.4-1c-0.6-0.6-1-1.5-1-2.4V31.4c0-0.9,0.4-1.8,1-2.4C77.8,28.3,78.7,28,79.6,28z M115.1,29.6H79.6
			c-0.5,0-0.9,0.2-1.2,0.5c-0.3,0.3-0.5,0.8-0.5,1.2v46.8c0,0.5,0.2,0.9,0.5,1.2c0.3,0.3,0.8,0.5,1.2,0.5h35.5
			c0.5,0,0.9-0.2,1.2-0.5c0.3-0.3,0.5-0.8,0.5-1.2V31.4c0-0.5-0.2-0.9-0.5-1.2C116.1,29.8,115.6,29.6,115.1,29.6z"/>
		<path class="st3" d="M85.2,33.8H88c0.6,0,1.2,0.3,1.6,0.7c0.4,0.4,0.7,1,0.7,1.6V39c0,0.6-0.3,1.2-0.7,1.6c-0.4,0.4-1,0.7-1.6,0.7
			h-2.9c-0.6,0-1.2-0.3-1.6-0.7c-0.4-0.4-0.7-1-0.7-1.6v-2.9c0-0.6,0.3-1.2,0.7-1.6C83.9,34.1,84.5,33.8,85.2,33.8z M88,35.5h-2.9
			c-0.2,0-0.3,0.1-0.5,0.2c-0.1,0.1-0.2,0.3-0.2,0.5V39c0,0.2,0.1,0.3,0.2,0.5c0.1,0.1,0.3,0.2,0.5,0.2H88c0.2,0,0.3-0.1,0.5-0.2
			c0.1-0.1,0.2-0.3,0.2-0.5v-2.9c0-0.2-0.1-0.3-0.2-0.5C88.4,35.5,88.2,35.5,88,35.5z"/>
		<path class="st3" d="M85.2,45.3H88c0.6,0,1.2,0.3,1.6,0.7c0.4,0.4,0.7,1,0.7,1.6v2.9c0,0.6-0.3,1.2-0.7,1.6
			c-0.4,0.4-1,0.7-1.6,0.7h-2.9c-0.6,0-1.2-0.3-1.6-0.7c-0.4-0.4-0.7-1-0.7-1.6v-2.9c0-0.6,0.3-1.2,0.7-1.6
			C83.9,45.6,84.5,45.3,85.2,45.3z M88,47h-2.9c-0.2,0-0.3,0.1-0.5,0.2c-0.1,0.1-0.2,0.3-0.2,0.5v2.9c0,0.2,0.1,0.3,0.2,0.5
			c0.1,0.1,0.3,0.2,0.5,0.2H88c0.2,0,0.3-0.1,0.5-0.2c0.1-0.1,0.2-0.3,0.2-0.5v-2.9c0-0.2-0.1-0.3-0.2-0.5C88.4,47.1,88.2,47,88,47z
			"/>
		<path class="st3" d="M85.2,56.8H88c0.6,0,1.2,0.3,1.6,0.7c0.4,0.4,0.7,1,0.7,1.6V62c0,0.6-0.3,1.2-0.7,1.6c-0.4,0.4-1,0.7-1.6,0.7
			h-2.9c-0.6,0-1.2-0.3-1.6-0.7c-0.4-0.4-0.7-1-0.7-1.6v-2.9c0-0.6,0.3-1.2,0.7-1.6C83.9,57.1,84.5,56.8,85.2,56.8z M88,58.5h-2.9
			c-0.2,0-0.3,0.1-0.5,0.2c-0.1,0.1-0.2,0.3-0.2,0.5V62c0,0.2,0.1,0.3,0.2,0.5c0.1,0.1,0.3,0.2,0.5,0.2H88c0.2,0,0.3-0.1,0.5-0.2
			c0.1-0.1,0.2-0.3,0.2-0.5v-2.9c0-0.2-0.1-0.3-0.2-0.5C88.4,58.6,88.2,58.5,88,58.5z"/>
		<path class="st3" d="M85.2,68.3H88c0.6,0,1.2,0.3,1.6,0.7c0.4,0.4,0.7,1,0.7,1.6v2.9c0,0.6-0.3,1.2-0.7,1.6
			c-0.4,0.4-1,0.7-1.6,0.7h-2.9c-0.6,0-1.2-0.3-1.6-0.7c-0.4-0.4-0.7-1-0.7-1.6v-2.9c0-0.6,0.3-1.2,0.7-1.6
			C83.9,68.6,84.5,68.3,85.2,68.3z M88,70h-2.9c-0.2,0-0.3,0.1-0.5,0.2c-0.1,0.1-0.2,0.3-0.2,0.5v2.9c0,0.2,0.1,0.3,0.2,0.5
			c0.1,0.1,0.3,0.2,0.5,0.2H88c0.2,0,0.3-0.1,0.5-0.2c0.1-0.1,0.2-0.3,0.2-0.5v-2.9c0-0.2-0.1-0.3-0.2-0.5C88.4,70.1,88.2,70,88,70z
			"/>
		<path class="st3" d="M93.2,40.2c-0.5,0-0.8,0.4-0.8,0.8c0,0.5,0.4,0.8,0.8,0.8h17.2c0.5,0,0.8-0.4,0.8-0.8c0-0.5-0.4-0.8-0.8-0.8
			H93.2z"/>
		<path class="st3" d="M99.2,36.4c-0.3-0.3-0.9-0.3-1.2,0c-0.3,0.3-0.3,0.9,0,1.2l1.7,1.7l0,0c0.3,0.3,0.9,0.3,1.2,0l0,0l4.6-4.6
			c0.3-0.3,0.3-0.9,0-1.2c-0.3-0.3-0.9-0.3-1.2,0l-4.1,4.1L99.2,36.4L99.2,36.4z"/>
		<path class="st3" d="M93.2,51.7c-0.5,0-0.8,0.4-0.8,0.8c0,0.5,0.4,0.8,0.8,0.8h17.2c0.5,0,0.8-0.4,0.8-0.8c0-0.5-0.4-0.8-0.8-0.8
			H93.2z"/>
		<path class="st3" d="M99.2,48c-0.3-0.3-0.9-0.3-1.2,0c-0.3,0.3-0.3,0.9,0,1.2l1.7,1.7l0,0c0.3,0.3,0.9,0.3,1.2,0l0,0l4.6-4.6
			c0.3-0.3,0.3-0.9,0-1.2c-0.3-0.3-0.9-0.3-1.2,0l-4.1,4.1L99.2,48L99.2,48z"/>
		<path class="st3" d="M93.2,63.2c-0.5,0-0.8,0.4-0.8,0.8c0,0.5,0.4,0.8,0.8,0.8h17.2c0.5,0,0.8-0.4,0.8-0.8c0-0.5-0.4-0.8-0.8-0.8
			H93.2z"/>
		<path class="st3" d="M99.2,59.5c-0.3-0.3-0.9-0.3-1.2,0c-0.3,0.3-0.3,0.9,0,1.2l1.7,1.7l0,0c0.3,0.3,0.9,0.3,1.2,0l0,0l4.6-4.6
			c0.3-0.3,0.3-0.9,0-1.2c-0.3-0.3-0.9-0.3-1.2,0l-4.1,4.1L99.2,59.5L99.2,59.5z"/>
		<path class="st3" d="M93.2,74.7c-0.5,0-0.8,0.4-0.8,0.8s0.4,0.8,0.8,0.8h17.2c0.5,0,0.8-0.4,0.8-0.8s-0.4-0.8-0.8-0.8H93.2z"/>
		<path class="st3" d="M99.2,71c-0.3-0.3-0.9-0.3-1.2,0c-0.3,0.3-0.3,0.9,0,1.2l1.7,1.7l0,0c0.3,0.3,0.9,0.3,1.2,0l0,0l4.6-4.6
			c0.3-0.3,0.3-0.9,0-1.2c-0.3-0.3-0.9-0.3-1.2,0l-4.1,4.1L99.2,71L99.2,71z"/>
	</g>
	<rect x="61.6" y="19" class="st4" width="71.6" height="71.6"/>
</g>
<g id="Layer_2_copy_3">
	<rect x="36.1" y="90.9" class="st12" width="120.8" height="35"/>
	<text transform="matrix(1 0 0 1 69.0651 102.9196)"><tspan x="0" y="0" class="st3 st5 st6">Search</tspan><tspan x="-2.1" y="17.7" class="st3 st5 st6">MoDaC</tspan></text>
	<rect x="20.3" y="136.9" class="st12" width="152.5" height="44.2"/>
	<text transform="matrix(1 0 0 1 31.1008 145.622)"><tspan x="0" y="0" class="st10 st8 st11">Explore investigations, </tspan><tspan x="9.4" y="13" class="st10 st8 st11">studies, &amp; datasets.</tspan></text>
	<rect x="64.6" y="19" class="st12" width="71.6" height="71.6"/>
	<g>
		<path class="st3" d="M91.5,65.6h-22c-0.1,0-0.2-0.1-0.2-0.2V35.3c0-0.1,0.1-0.2,0.2-0.2h42.7c0.1,0,0.2,0.1,0.2,0.2v11.3
			c0.5,0.2,1,0.3,1.5,0.5V35.3c0-1-0.8-1.7-1.7-1.7H111v-2.7c0-0.5-0.2-0.9-0.5-1.2c-0.5-0.5-1.2-0.5-2-0.5l-20.1,0l-2.6-3.2
			c-0.1-0.2-0.4-0.3-0.6-0.3H74c-1.5,0-2.7,1.2-2.7,2.7v5.2h-1.7c-1,0-1.7,0.8-1.7,1.7v30.1c0,1,0.8,1.7,1.7,1.7h22.3
			C91.7,66.6,91.6,66.1,91.5,65.6z M72.8,28.3c0-0.7,0.6-1.2,1.2-1.2h10.8l2.6,3.2c0.1,0.2,0.4,0.3,0.6,0.3h20.2l0.3,0
			c0.3,0,0.8,0,0.9,0.1c0,0,0,0.1,0,0.2v2.7H72.8V28.3z"/>
		<path class="st3" d="M73,42.1c-0.4,0-0.7,0.3-0.7,0.7c0,0.4,0.3,0.7,0.7,0.7l10.4,0c0.4,0,0.7-0.3,0.7-0.7c0-0.4-0.3-0.7-0.7-0.7
			L73,42.1z"/>
		<path class="st3" d="M88.2,39.2c0-0.4-0.3-0.7-0.7-0.7l-14.4,0c-0.4,0-0.7,0.3-0.7,0.7c0,0.4,0.3,0.7,0.7,0.7l14.4,0
			C87.8,39.9,88.2,39.6,88.2,39.2z"/>
	</g>
	<g>
		<path class="st13" d="M107.7,49.3c-7,0-12.7,5.7-12.7,12.7c0,0.3,0.2,0.5,0.5,0.5c0.3,0,0.5-0.2,0.5-0.5c0-6.5,5.2-11.7,11.7-11.7
			c0.3,0,0.5-0.2,0.5-0.5S108,49.3,107.7,49.3z"/>
		<path class="st13" d="M121.3,71.5c1.9-2.7,3-6,3-9.5c0-9.2-7.4-16.6-16.6-16.6S91.1,52.8,91.1,62s7.4,16.6,16.6,16.6
			c3.3,0,6.4-0.9,8.9-2.6l10.8,10.3c0.6,0.6,1.4,0.9,2.3,0.9s1.6-0.3,2.3-0.9c0.6-0.6,0.9-1.4,0.9-2.3c0-0.8-0.3-1.7-0.9-2.3
			L121.3,71.5z M107.7,77.6c-8.6,0-15.6-7-15.6-15.6s7-15.6,15.6-15.6c8.6,0,15.6,7,15.6,15.6S116.4,77.6,107.7,77.6z M131.4,85.6
			c-0.9,0.9-2.3,0.9-3.2,0l-10.7-10.2c1.2-0.9,2.3-1.9,3.2-3.1l10.6,10.1c0.4,0.4,0.6,1,0.6,1.6S131.8,85.2,131.4,85.6z"/>
	</g>
</g>
</svg>
