<svg width="28" height="25" viewBox="0 0 28 25" fill="none" xmlns="http://www.w3.org/2000/svg">
<g clip-path="url(#clip0_1_585)">
<path d="M22.0308 16.6667H9.62571C8.87954 16.6667 8.31992 16.1049 8.31992 15.3558C8.31992 14.6067 8.87954 14.0449 9.62571 14.0449H22.0308C22.7769 14.0449 23.3366 14.6067 23.3366 15.3558C23.3366 16.1049 22.7769 16.6667 22.0308 16.6667ZM28.0001 8.61423C28.0001 7.86517 27.4405 7.30337 26.6943 7.30337H9.62571C8.87954 7.30337 8.31992 7.86517 8.31992 8.61423C8.31992 9.3633 8.87954 9.92509 9.62571 9.92509H26.6943C27.4405 9.92509 28.0001 9.3633 28.0001 8.61423V8.61423ZM18.673 22.191C18.673 21.4419 18.1134 20.8801 17.3672 20.8801H9.62571C8.87954 20.8801 8.31992 21.4419 8.31992 22.191C8.31992 22.9401 8.87954 23.5019 9.62571 23.5019H17.3672C18.1134 23.5019 18.673 22.8464 18.673 22.191ZM8.31992 2.62172L5.1487 0.280899C4.68234 -0.0936329 4.12271 -0.0936329 3.65636 0.280899L0.48514 2.62172C-0.0744873 3.08989 -0.167758 3.93258 0.298597 4.49438C0.671682 5.05618 1.51112 5.14981 2.07075 4.77528L3.09673 4.02622V23.6891C3.09673 24.4382 3.65636 25 4.40253 25C5.1487 25 5.70832 24.4382 5.70832 23.6891V4.02622L6.73431 4.77528C6.92085 4.96255 7.29393 5.05618 7.48048 5.05618C7.94683 4.96255 8.31992 4.86891 8.59973 4.49438C8.97281 3.93258 8.87954 3.08989 8.31992 2.62172V2.62172Z" fill="#004187"/>
</g>
<defs>
<clipPath id="clip0_1_585">
<rect width="28" height="25" fill="white"/>
</clipPath>
</defs>
</svg>
