<svg width="14" height="21" viewBox="0 0 14 21" fill="none" xmlns="http://www.w3.org/2000/svg">
<rect width="14" height="21" fill="#B5B7B9"/>
<g id="Search Logged In" clip-path="url(#clip0_0_1)">
<rect width="1440" height="2016" transform="translate(-766 -490)" fill="white"/>
<g id="Group 95">
<g id="MS Card Expanded" filter="url(#filter0_d_0_1)">
<g clip-path="url(#clip1_0_1)">
<rect x="-376" y="-19" width="1006" height="227" rx="20" fill="white"/>
</g>
</g>
<path id="Vector" fill-rule="evenodd" clip-rule="evenodd" d="M1.88667 8.88889H1.77778C0.795556 8.88889 0 9.68444 0 10.6689V18.2222C0 19.2067 0.795556 20.0022 1.77778 20.0022H11.5556C12.5378 20.0022 13.3333 19.2067 13.3333 18.2222V10.6689C13.3333 9.68444 12.5378 8.88889 11.5556 8.88889H3.66444V4.78222C3.66444 3.12222 5.00889 1.77778 6.66667 1.77778C8.32444 1.77778 9.66889 3.12222 9.66889 4.78222V6.07556C9.66889 6.56667 10.0667 6.96444 10.5578 6.96444C11.0489 6.96444 11.4467 6.56667 11.4467 6.07556V4.78222C11.4467 2.14222 9.30667 0 6.66667 0C4.02667 0 1.88667 2.14 1.88667 4.78222V8.88889ZM7.26889 14.3178C7.57556 14.12 7.78 13.7756 7.78 13.3822C7.78 12.7689 7.28222 12.2711 6.66889 12.2711C6.05556 12.2711 5.55778 12.7689 5.55778 13.3822C5.55778 13.7756 5.76 14.12 6.06889 14.3178L5.57778 16.1778C5.50222 16.42 5.65556 16.6156 5.93111 16.6156H7.40889C7.68 16.6156 7.83778 16.4178 7.76222 16.1778L7.27111 14.3178H7.26889Z" fill="#E66F05"/>
</g>
</g>
<defs>
<filter id="filter0_d_0_1" x="-404" y="-39" width="1066" height="287" filterUnits="userSpaceOnUse" color-interpolation-filters="sRGB">
<feFlood flood-opacity="0" result="BackgroundImageFix"/>
<feColorMatrix in="SourceAlpha" type="matrix" values="0 0 0 0 0 0 0 0 0 0 0 0 0 0 0 0 0 0 127 0" result="hardAlpha"/>
<feOffset dx="2" dy="10"/>
<feGaussianBlur stdDeviation="15"/>
<feComposite in2="hardAlpha" operator="out"/>
<feColorMatrix type="matrix" values="0 0 0 0 0 0 0 0 0 0 0 0 0 0 0 0 0 0 0.3 0"/>
<feBlend mode="normal" in2="BackgroundImageFix" result="effect1_dropShadow_0_1"/>
<feBlend mode="normal" in="SourceGraphic" in2="effect1_dropShadow_0_1" result="shape"/>
</filter>
<clipPath id="clip0_0_1">
<rect width="1440" height="2016" fill="white" transform="translate(-766 -490)"/>
</clipPath>
<clipPath id="clip1_0_1">
<rect x="-376" y="-19" width="1006" height="227" rx="20" fill="white"/>
</clipPath>
</defs>
</svg>
