<svg width="32" height="32" viewBox="0 0 32 32" fill="none" xmlns="http://www.w3.org/2000/svg">
<g clip-path="url(#clip0_307_7479)">
<path d="M23.9898 20.5396C27.885 14.7526 26.3269 6.96223 20.5398 3.06707C14.7527 -0.828091 6.96241 0.729974 3.06725 6.51707C-0.827908 12.3042 0.730157 20.0945 6.51725 23.9896C10.7463 26.8832 16.3108 26.8832 20.5398 23.9896L27.7737 31.2235C28.7753 32.1138 30.3334 32.1138 31.2237 31.1122C32.114 30.2219 32.114 28.7751 31.2237 27.7735L23.9898 20.5396ZM13.5285 21.3187C9.18822 21.3187 5.73822 17.8687 5.73822 13.5284C5.73822 9.18804 9.18822 5.73804 13.5285 5.73804C17.8689 5.73804 21.3189 9.18804 21.3189 13.5284C21.3189 17.8687 17.8689 21.3187 13.5285 21.3187Z" fill="#E66F05"/>
</g>
<defs>
<clipPath id="clip0_307_7479">
<rect width="30.9721" height="30.961" fill="white" transform="translate(0.919434 0.919342)"/>
</clipPath>
</defs>
</svg>
