<?xml version="1.0" encoding="utf-8"?>
<!-- Generator: Adobe Illustrator 24.3.0, SVG Export Plug-In . SVG Version: 6.00 Build 0)  -->
<svg version="1.1" id="Layer_1" xmlns="http://www.w3.org/2000/svg" xmlns:xlink="http://www.w3.org/1999/xlink" x="0px" y="0px"
	 viewBox="0 0 193 193" style="enable-background:new 0 0 193 193;" xml:space="preserve">
<style type="text/css">
	.st0{fill:#FFFFFF;}
	.st1{fill:#F08E25;}
	.st2{fill:none;}
	.st3{enable-background:new    ;}
	.st4{fill:#AF5B00;}
</style>
<g id="Layer_1_1_">
	<circle class="st0" cx="96.5" cy="96.5" r="96.1"/>
</g>
<g id="Layer_2_1_">
	<g>
		<path class="st1" d="M96.5,71.7c12.2,0,22.2-10,22.2-22.2s-10-22.2-22.2-22.2s-22.2,10-22.2,22.2C74.3,61.8,84.3,71.7,96.5,71.7z
			 M75.9,49.5c0-11.4,9.3-20.7,20.7-20.7s20.7,9.3,20.7,20.7c0,2.9-0.6,5.7-1.7,8.2c-2.8-4.7-7.2-8.2-12.4-9.8
			c1.5-1.6,2.4-3.7,2.4-6.1c0-4.9-4-9-9-9c-4.9,0-9,4-9,9c0,2.3,0.9,4.5,2.4,6.1c-5.2,1.6-9.6,5.1-12.4,9.8
			C76.5,55.3,75.9,52.5,75.9,49.5z M96.5,49.3c-4.1,0-7.4-3.3-7.4-7.4s3.3-7.4,7.4-7.4s7.4,3.3,7.4,7.4S100.6,49.3,96.5,49.3z
			 M91.3,49.2c1.5,1.1,3.3,1.7,5.2,1.7c1.9,0,3.7-0.6,5.2-1.7c5.6,1.5,10.2,5.2,12.9,10.3c-3.5,6.4-10.3,10.8-18.1,10.8
			s-14.6-4.4-18.1-10.8C81.1,54.4,85.8,50.6,91.3,49.2z"/>
		<path class="st1" d="M78.5,74.3c-0.4,0-0.8,0.3-0.8,0.8v8.8c0,0.4,0.3,0.8,0.8,0.8h36.1c0.4,0,0.8-0.3,0.8-0.8v-8.8
			c0-0.4-0.3-0.8-0.8-0.8H78.5z M113.8,83.1H79.2v-7.3h34.6C113.8,75.8,113.8,83.1,113.8,83.1z"/>
		<rect x="85.6" y="78.7" class="st1" width="3.4" height="1.5"/>
		<rect x="91.8" y="78.7" class="st1" width="3.4" height="1.5"/>
		<rect x="97.9" y="78.7" class="st1" width="3.4" height="1.5"/>
		<rect x="104.1" y="78.7" class="st1" width="3.4" height="1.5"/>
	</g>
	<rect x="36.1" y="90.9" class="st2" width="120.8" height="35"/>
	<g class="st3">
		<path class="st1" d="M78.4,102.9h-1.3c-0.2,0-0.3,0-0.4-0.1c-0.1-0.1-0.2-0.2-0.2-0.3l-1.2-3.1h-5.8l-1.2,3.1
			c0,0.1-0.1,0.2-0.2,0.3s-0.2,0.1-0.4,0.1h-1.4L71.5,90h1.8L78.4,102.9z M70,98.1h4.8l-2-5.2c-0.1-0.3-0.3-0.7-0.4-1.2
			c-0.1,0.2-0.1,0.5-0.2,0.7S72,92.7,72,92.9L70,98.1z"/>
		<path class="st1" d="M81.6,89.7v13.3H80V89.7H81.6z"/>
		<path class="st1" d="M84.4,102.9v-9.1h0.9c0.2,0,0.3,0,0.4,0.1c0.1,0.1,0.1,0.2,0.1,0.3l0.1,1.4c0.3-0.6,0.7-1.1,1.2-1.5
			c0.5-0.4,1-0.5,1.6-0.5c0.3,0,0.5,0,0.7,0.1s0.4,0.1,0.6,0.2l-0.2,1.2c0,0.1-0.1,0.2-0.3,0.2c-0.1,0-0.2,0-0.4-0.1
			c-0.2-0.1-0.4-0.1-0.7-0.1c-0.6,0-1,0.2-1.4,0.5s-0.7,0.8-0.9,1.4v5.8H84.4z"/>
		<path class="st1" d="M95.3,93.7c0.5,0,1,0.1,1.5,0.3c0.5,0.2,0.9,0.4,1.2,0.8s0.6,0.8,0.8,1.3c0.2,0.5,0.3,1.1,0.3,1.7
			c0,0.3,0,0.4-0.1,0.5s-0.2,0.1-0.3,0.1h-6.1c0,0.6,0.1,1.1,0.2,1.5c0.1,0.4,0.3,0.8,0.6,1.1s0.6,0.5,0.9,0.6
			c0.3,0.1,0.7,0.2,1.2,0.2c0.4,0,0.7,0,1-0.1s0.5-0.2,0.8-0.3c0.2-0.1,0.4-0.2,0.5-0.3c0.1-0.1,0.3-0.1,0.4-0.1
			c0.1,0,0.2,0.1,0.3,0.2l0.5,0.6c-0.2,0.2-0.4,0.4-0.7,0.6s-0.6,0.3-0.9,0.4c-0.3,0.1-0.6,0.2-1,0.3c-0.3,0.1-0.7,0.1-1,0.1
			c-0.6,0-1.2-0.1-1.7-0.3s-1-0.5-1.4-0.9c-0.4-0.4-0.7-0.9-0.9-1.5C91.1,99.7,91,99,91,98.2c0-0.6,0.1-1.2,0.3-1.8
			c0.2-0.6,0.5-1,0.8-1.4c0.4-0.4,0.8-0.7,1.3-1C94,93.8,94.6,93.7,95.3,93.7z M95.3,94.8c-0.8,0-1.4,0.2-1.8,0.7
			c-0.4,0.4-0.7,1.1-0.8,1.9h5c0-0.4-0.1-0.7-0.2-1c-0.1-0.3-0.3-0.6-0.5-0.8c-0.2-0.2-0.4-0.4-0.7-0.5S95.7,94.8,95.3,94.8z"/>
		<path class="st1" d="M107.8,102.9h-0.7c-0.2,0-0.3,0-0.4-0.1c-0.1,0-0.2-0.1-0.2-0.3l-0.2-0.8c-0.2,0.2-0.5,0.4-0.7,0.6
			c-0.2,0.2-0.5,0.3-0.7,0.4c-0.3,0.1-0.5,0.2-0.8,0.3c-0.3,0.1-0.6,0.1-0.9,0.1c-0.4,0-0.7,0-1-0.1c-0.3-0.1-0.6-0.2-0.8-0.4
			c-0.2-0.2-0.4-0.5-0.5-0.8s-0.2-0.7-0.2-1.1c0-0.4,0.1-0.7,0.3-1s0.5-0.6,1-0.9c0.4-0.3,1-0.5,1.7-0.6c0.7-0.2,1.6-0.2,2.6-0.2
			v-0.7c0-0.7-0.2-1.3-0.5-1.6c-0.3-0.4-0.8-0.5-1.3-0.5c-0.4,0-0.7,0-1,0.1c-0.3,0.1-0.5,0.2-0.7,0.3c-0.2,0.1-0.4,0.2-0.5,0.3
			c-0.1,0.1-0.3,0.1-0.4,0.1c-0.1,0-0.2,0-0.3-0.1c-0.1-0.1-0.1-0.1-0.2-0.2l-0.3-0.5c0.5-0.5,1-0.8,1.6-1.1
			c0.6-0.2,1.2-0.4,1.9-0.4c0.5,0,1,0.1,1.4,0.3c0.4,0.2,0.7,0.4,1,0.7c0.3,0.3,0.5,0.7,0.6,1.1c0.1,0.4,0.2,0.9,0.2,1.4V102.9z
			 M103.6,101.9c0.3,0,0.5,0,0.8-0.1s0.5-0.1,0.7-0.2c0.2-0.1,0.4-0.2,0.6-0.4c0.2-0.1,0.4-0.3,0.6-0.5v-1.9c-0.7,0-1.4,0-1.9,0.1
			c-0.5,0.1-0.9,0.2-1.3,0.4c-0.3,0.2-0.6,0.3-0.7,0.5c-0.1,0.2-0.2,0.4-0.2,0.7c0,0.2,0,0.5,0.1,0.6c0.1,0.2,0.2,0.3,0.3,0.4
			c0.1,0.1,0.3,0.2,0.5,0.2C103.2,101.9,103.4,101.9,103.6,101.9z"/>
		<path class="st1" d="M116.6,102.9c-0.2,0-0.4-0.1-0.4-0.3l-0.1-1.1c-0.4,0.5-0.8,0.9-1.3,1.1c-0.5,0.3-1.1,0.4-1.7,0.4
			c-0.5,0-1-0.1-1.4-0.3c-0.4-0.2-0.8-0.5-1.1-0.9c-0.3-0.4-0.5-0.9-0.7-1.5s-0.2-1.3-0.2-2c0-0.7,0.1-1.3,0.3-1.9
			c0.2-0.6,0.4-1.1,0.8-1.5s0.8-0.8,1.2-1c0.5-0.2,1-0.4,1.7-0.4c0.6,0,1,0.1,1.4,0.3c0.4,0.2,0.7,0.5,1.1,0.8v-5.1h1.6v13.3H116.6z
			 M113.5,101.8c0.5,0,1-0.1,1.4-0.4c0.4-0.2,0.8-0.6,1.1-1V96c-0.3-0.4-0.6-0.7-1-0.8c-0.4-0.2-0.7-0.2-1.2-0.2
			c-0.9,0-1.5,0.3-2,0.9c-0.5,0.6-0.7,1.5-0.7,2.6c0,0.6,0.1,1.1,0.2,1.5c0.1,0.4,0.3,0.8,0.5,1c0.2,0.3,0.4,0.5,0.7,0.6
			S113.1,101.8,113.5,101.8z"/>
		<path class="st1" d="M122.9,105.6c-0.1,0.1-0.1,0.2-0.2,0.3c-0.1,0.1-0.2,0.1-0.4,0.1h-1.2l1.7-3.6l-3.8-8.6h1.4
			c0.1,0,0.2,0,0.3,0.1c0.1,0.1,0.1,0.1,0.2,0.2l2.4,5.7c0.1,0.1,0.1,0.3,0.1,0.4c0,0.1,0.1,0.3,0.1,0.4c0-0.1,0.1-0.3,0.1-0.4
			c0-0.1,0.1-0.3,0.1-0.4l2.4-5.7c0-0.1,0.1-0.2,0.2-0.2c0.1-0.1,0.2-0.1,0.3-0.1h1.3L122.9,105.6z"/>
	</g>
	<g class="st3">
		<path class="st1" d="M60.5,120.6h-0.7c-0.2,0-0.3,0-0.4-0.1c-0.1,0-0.2-0.1-0.2-0.3l-0.2-0.8c-0.2,0.2-0.5,0.4-0.7,0.6
			s-0.5,0.3-0.7,0.4c-0.3,0.1-0.5,0.2-0.8,0.3c-0.3,0.1-0.6,0.1-0.9,0.1c-0.4,0-0.7,0-1-0.1c-0.3-0.1-0.6-0.2-0.8-0.4
			c-0.2-0.2-0.4-0.5-0.5-0.8c-0.1-0.3-0.2-0.7-0.2-1.1c0-0.4,0.1-0.7,0.3-1s0.5-0.6,1-0.9s1-0.5,1.7-0.6c0.7-0.2,1.6-0.2,2.6-0.2
			v-0.7c0-0.7-0.2-1.3-0.5-1.6c-0.3-0.4-0.8-0.5-1.3-0.5c-0.4,0-0.7,0-1,0.1c-0.3,0.1-0.5,0.2-0.7,0.3c-0.2,0.1-0.4,0.2-0.5,0.3
			c-0.1,0.1-0.3,0.1-0.4,0.1c-0.1,0-0.2,0-0.3-0.1s-0.1-0.1-0.2-0.2l-0.3-0.5c0.5-0.5,1-0.8,1.6-1.1s1.2-0.4,1.9-0.4
			c0.5,0,1,0.1,1.4,0.3s0.7,0.4,1,0.7s0.5,0.7,0.6,1.1c0.1,0.4,0.2,0.9,0.2,1.4V120.6z M56.4,119.6c0.3,0,0.5,0,0.8-0.1
			s0.5-0.1,0.7-0.2c0.2-0.1,0.4-0.2,0.6-0.4c0.2-0.1,0.4-0.3,0.6-0.5v-1.9c-0.7,0-1.4,0-1.9,0.1c-0.5,0.1-0.9,0.2-1.3,0.4
			c-0.3,0.2-0.6,0.3-0.7,0.5s-0.2,0.4-0.2,0.7c0,0.2,0,0.5,0.1,0.6s0.2,0.3,0.3,0.4c0.1,0.1,0.3,0.2,0.5,0.2
			C56,119.6,56.2,119.6,56.4,119.6z"/>
		<path class="st1" d="M73.3,116.4c0.1,0.2,0.1,0.3,0.2,0.5c0.1-0.2,0.1-0.3,0.2-0.5c0.1-0.2,0.1-0.3,0.2-0.5l4.4-7.9
			c0.1-0.1,0.2-0.2,0.2-0.3c0.1,0,0.2,0,0.4,0h1.3v12.9h-1.5v-9.5c0-0.1,0-0.3,0-0.4c0-0.1,0-0.3,0-0.4l-4.4,8.1
			c-0.2,0.3-0.4,0.4-0.6,0.4h-0.3c-0.3,0-0.5-0.1-0.6-0.4l-4.5-8.1c0,0.2,0,0.3,0,0.5c0,0.1,0,0.3,0,0.4v9.5h-1.5v-12.9H68
			c0.2,0,0.3,0,0.4,0c0.1,0,0.2,0.1,0.2,0.3L73,116C73.1,116.1,73.2,116.3,73.3,116.4z"/>
		<path class="st1" d="M86.6,111.4c0.5,0,1,0.1,1.5,0.3c0.5,0.2,0.9,0.4,1.2,0.8s0.6,0.8,0.8,1.3c0.2,0.5,0.3,1.1,0.3,1.7
			c0,0.3,0,0.4-0.1,0.5s-0.2,0.1-0.3,0.1h-6.1c0,0.6,0.1,1.1,0.2,1.5c0.1,0.4,0.3,0.8,0.6,1.1s0.6,0.5,0.9,0.6
			c0.3,0.1,0.7,0.2,1.2,0.2c0.4,0,0.7,0,1-0.1s0.5-0.2,0.8-0.3c0.2-0.1,0.4-0.2,0.5-0.3c0.1-0.1,0.3-0.1,0.4-0.1
			c0.1,0,0.2,0.1,0.3,0.2l0.5,0.6c-0.2,0.2-0.4,0.4-0.7,0.6s-0.6,0.3-0.9,0.4c-0.3,0.1-0.6,0.2-1,0.3c-0.3,0.1-0.7,0.1-1,0.1
			c-0.6,0-1.2-0.1-1.7-0.3s-1-0.5-1.4-0.9c-0.4-0.4-0.7-0.9-0.9-1.5c-0.2-0.6-0.3-1.3-0.3-2.1c0-0.6,0.1-1.2,0.3-1.8
			c0.2-0.6,0.5-1,0.8-1.4c0.4-0.4,0.8-0.7,1.3-1C85.4,111.5,86,111.4,86.6,111.4z M86.6,112.5c-0.8,0-1.4,0.2-1.8,0.7
			c-0.4,0.4-0.7,1.1-0.8,1.9h5c0-0.4-0.1-0.7-0.2-1c-0.1-0.3-0.3-0.6-0.5-0.8c-0.2-0.2-0.4-0.4-0.7-0.5S87,112.5,86.6,112.5z"/>
		<path class="st1" d="M92.4,120.6v-9.1h1c0.2,0,0.4,0.1,0.4,0.3l0.1,0.9c0.3-0.4,0.7-0.8,1.1-1c0.4-0.3,0.9-0.4,1.5-0.4
			c0.6,0,1.1,0.2,1.5,0.5s0.7,0.8,0.8,1.4c0.1-0.3,0.3-0.6,0.5-0.9s0.4-0.4,0.7-0.6c0.3-0.2,0.5-0.3,0.8-0.3
			c0.3-0.1,0.6-0.1,0.9-0.1c0.5,0,0.9,0.1,1.3,0.2c0.4,0.2,0.7,0.4,1,0.7c0.3,0.3,0.5,0.7,0.6,1.1s0.2,0.9,0.2,1.5v5.8h-1.6v-5.8
			c0-0.7-0.2-1.3-0.5-1.6c-0.3-0.4-0.8-0.6-1.4-0.6c-0.3,0-0.5,0-0.8,0.1c-0.2,0.1-0.4,0.2-0.6,0.4c-0.2,0.2-0.3,0.4-0.4,0.7
			c-0.1,0.3-0.2,0.6-0.2,1v5.8h-1.6v-5.8c0-0.7-0.1-1.3-0.4-1.6c-0.3-0.4-0.7-0.5-1.3-0.5c-0.4,0-0.8,0.1-1.1,0.3s-0.6,0.5-0.9,0.9
			v6.8H92.4z"/>
		<path class="st1" d="M107.3,120.6v-13.3h1.6v5.5c0.4-0.4,0.8-0.8,1.3-1.1s1-0.4,1.7-0.4c0.5,0,1,0.1,1.4,0.3
			c0.4,0.2,0.8,0.5,1.1,0.9c0.3,0.4,0.5,0.9,0.7,1.5s0.2,1.2,0.2,2c0,0.7-0.1,1.3-0.3,1.9c-0.2,0.6-0.4,1.1-0.8,1.5s-0.8,0.8-1.2,1
			c-0.5,0.2-1,0.4-1.7,0.4c-0.6,0-1.1-0.1-1.5-0.3c-0.4-0.2-0.8-0.5-1.1-1l-0.1,0.8c0,0.2-0.2,0.3-0.4,0.3H107.3z M111.3,112.6
			c-0.5,0-1,0.1-1.4,0.4s-0.8,0.6-1.1,1v4.4c0.3,0.4,0.6,0.7,1,0.8s0.7,0.2,1.2,0.2c0.9,0,1.5-0.3,2-0.9c0.5-0.6,0.7-1.5,0.7-2.6
			c0-0.6-0.1-1.1-0.2-1.5c-0.1-0.4-0.3-0.8-0.5-1c-0.2-0.3-0.4-0.5-0.7-0.6S111.7,112.6,111.3,112.6z"/>
		<path class="st1" d="M120.9,111.4c0.5,0,1,0.1,1.5,0.3c0.5,0.2,0.9,0.4,1.2,0.8s0.6,0.8,0.8,1.3c0.2,0.5,0.3,1.1,0.3,1.7
			c0,0.3,0,0.4-0.1,0.5s-0.2,0.1-0.3,0.1h-6.1c0,0.6,0.1,1.1,0.2,1.5c0.1,0.4,0.3,0.8,0.6,1.1s0.6,0.5,0.9,0.6
			c0.3,0.1,0.7,0.2,1.2,0.2c0.4,0,0.7,0,1-0.1s0.5-0.2,0.8-0.3c0.2-0.1,0.4-0.2,0.5-0.3c0.1-0.1,0.3-0.1,0.4-0.1
			c0.1,0,0.2,0.1,0.3,0.2l0.5,0.6c-0.2,0.2-0.4,0.4-0.7,0.6s-0.6,0.3-0.9,0.4c-0.3,0.1-0.6,0.2-1,0.3c-0.3,0.1-0.7,0.1-1,0.1
			c-0.6,0-1.2-0.1-1.7-0.3s-1-0.5-1.4-0.9c-0.4-0.4-0.7-0.9-0.9-1.5c-0.2-0.6-0.3-1.3-0.3-2.1c0-0.6,0.1-1.2,0.3-1.8
			c0.2-0.6,0.5-1,0.8-1.4c0.4-0.4,0.8-0.7,1.3-1C119.6,111.5,120.2,111.4,120.9,111.4z M120.9,112.5c-0.8,0-1.4,0.2-1.8,0.7
			c-0.4,0.4-0.7,1.1-0.8,1.9h5c0-0.4-0.1-0.7-0.2-1c-0.1-0.3-0.3-0.6-0.5-0.8c-0.2-0.2-0.4-0.4-0.7-0.5S121.3,112.5,120.9,112.5z"/>
		<path class="st1" d="M126.7,120.6v-9.1h0.9c0.2,0,0.3,0,0.4,0.1c0.1,0.1,0.1,0.2,0.1,0.3l0.1,1.4c0.3-0.6,0.7-1.1,1.2-1.5
			c0.5-0.4,1-0.5,1.6-0.5c0.3,0,0.5,0,0.7,0.1s0.4,0.1,0.6,0.2l-0.2,1.2c0,0.1-0.1,0.2-0.3,0.2c-0.1,0-0.2,0-0.4-0.1
			c-0.2-0.1-0.4-0.1-0.7-0.1c-0.6,0-1,0.2-1.4,0.5s-0.7,0.8-0.9,1.4v5.8H126.7z"/>
		<path class="st1" d="M133,108.9c0.2-0.2,0.4-0.3,0.6-0.5c0.2-0.2,0.5-0.3,0.7-0.4c0.3-0.1,0.6-0.2,0.9-0.3s0.6-0.1,1-0.1
			c0.5,0,0.9,0.1,1.3,0.2s0.8,0.3,1,0.6s0.5,0.6,0.7,0.9s0.3,0.8,0.3,1.2c0,0.5-0.1,0.8-0.2,1.2c-0.1,0.3-0.3,0.6-0.5,0.9
			c-0.2,0.2-0.4,0.5-0.7,0.6c-0.2,0.2-0.5,0.4-0.7,0.5c-0.2,0.2-0.4,0.3-0.5,0.5c-0.2,0.2-0.2,0.3-0.3,0.5l-0.2,1.4h-1.1l-0.1-1.5
			v-0.1c0-0.3,0.1-0.5,0.2-0.7c0.1-0.2,0.3-0.4,0.5-0.5s0.4-0.3,0.7-0.5c0.2-0.2,0.5-0.4,0.7-0.6s0.4-0.4,0.5-0.7
			c0.1-0.3,0.2-0.6,0.2-0.9c0-0.3-0.1-0.5-0.2-0.7c-0.1-0.2-0.2-0.4-0.4-0.5c-0.2-0.1-0.4-0.3-0.6-0.3c-0.2-0.1-0.5-0.1-0.8-0.1
			c-0.4,0-0.7,0-0.9,0.1c-0.3,0.1-0.5,0.2-0.7,0.3s-0.3,0.2-0.4,0.3s-0.2,0.1-0.3,0.1c-0.2,0-0.3-0.1-0.4-0.2L133,108.9z
			 M134.7,119.6c0-0.2,0-0.3,0.1-0.4c0.1-0.1,0.1-0.3,0.2-0.4c0.1-0.1,0.2-0.2,0.4-0.2c0.1-0.1,0.3-0.1,0.4-0.1c0.2,0,0.3,0,0.4,0.1
			c0.1,0.1,0.3,0.1,0.4,0.2c0.1,0.1,0.2,0.2,0.2,0.4c0.1,0.1,0.1,0.3,0.1,0.4c0,0.2,0,0.3-0.1,0.4c-0.1,0.1-0.1,0.3-0.2,0.4
			c-0.1,0.1-0.2,0.2-0.4,0.2c-0.1,0.1-0.3,0.1-0.4,0.1c-0.2,0-0.3,0-0.4-0.1c-0.1-0.1-0.3-0.1-0.4-0.2c-0.1-0.1-0.2-0.2-0.2-0.4
			C134.7,119.9,134.7,119.8,134.7,119.6z"/>
	</g>
	<rect x="36.1" y="136.9" class="st2" width="120.8" height="35"/>
	<g class="st3">
		<path class="st4" d="M83.1,138.5c-0.2-0.2-0.5-0.5-0.9-0.6s-0.8-0.2-1.3-0.2c-0.7,0-1.2,0.1-1.5,0.4c-0.3,0.3-0.5,0.6-0.5,1.1
			c0,0.2,0,0.4,0.1,0.6c0.1,0.2,0.2,0.3,0.4,0.4c0.2,0.1,0.4,0.2,0.7,0.3c0.3,0.1,0.6,0.2,1,0.2c0.4,0.1,0.8,0.2,1.1,0.3
			c0.3,0.1,0.6,0.2,0.9,0.4c0.2,0.2,0.4,0.4,0.5,0.6c0.1,0.2,0.2,0.5,0.2,0.9c0,0.4-0.1,0.7-0.2,0.9c-0.1,0.3-0.3,0.5-0.6,0.7
			c-0.2,0.2-0.5,0.3-0.9,0.4s-0.7,0.1-1.1,0.1c-1.2,0-2.3-0.4-3.1-1.1l0.4-0.6c0.1,0.1,0.3,0.3,0.5,0.4c0.2,0.1,0.4,0.2,0.6,0.3
			c0.2,0.1,0.5,0.2,0.8,0.2c0.3,0.1,0.6,0.1,0.9,0.1c0.6,0,1.1-0.1,1.5-0.3c0.3-0.2,0.5-0.6,0.5-1c0-0.2,0-0.4-0.1-0.6
			c-0.1-0.2-0.2-0.3-0.4-0.4c-0.2-0.1-0.4-0.2-0.7-0.3c-0.3-0.1-0.6-0.2-1-0.3c-0.4-0.1-0.8-0.2-1.1-0.3s-0.6-0.2-0.8-0.4
			c-0.2-0.2-0.4-0.3-0.5-0.6c-0.1-0.2-0.2-0.5-0.2-0.8c0-0.4,0.1-0.7,0.2-1c0.1-0.3,0.3-0.5,0.6-0.7c0.2-0.2,0.5-0.3,0.9-0.4
			c0.3-0.1,0.7-0.1,1.1-0.1c0.5,0,1,0.1,1.4,0.2c0.4,0.2,0.8,0.4,1.1,0.7L83.1,138.5z"/>
		<path class="st4" d="M85.1,138v-1.1h0.7v1.1H85.1z M85.1,144.9v-5.7h0.7v5.7H85.1z"/>
		<path class="st4" d="M89.8,145c-0.4,0-0.8-0.1-1.1-0.2c-0.3-0.2-0.6-0.4-0.8-0.7s-0.4-0.6-0.6-0.9c-0.1-0.4-0.2-0.7-0.2-1.1
			c0-0.4,0.1-0.8,0.2-1.1s0.3-0.7,0.5-1c0.2-0.3,0.5-0.5,0.8-0.6c0.3-0.2,0.7-0.2,1.1-0.2c0.5,0,0.9,0.1,1.3,0.4
			c0.4,0.2,0.7,0.6,0.9,0.9v-1.2h0.7v5.8c0,0.4-0.1,0.7-0.2,1c-0.2,0.3-0.4,0.6-0.6,0.8s-0.6,0.4-0.9,0.5s-0.7,0.2-1.1,0.2
			c-0.7,0-1.2-0.1-1.6-0.4c-0.4-0.2-0.7-0.5-1-0.9l0.5-0.4c0.2,0.4,0.5,0.6,0.9,0.8c0.4,0.2,0.8,0.3,1.2,0.3c0.3,0,0.5,0,0.8-0.1
			c0.2-0.1,0.5-0.2,0.7-0.3c0.2-0.2,0.3-0.3,0.4-0.6c0.1-0.2,0.2-0.5,0.2-0.8v-1.1c-0.2,0.4-0.5,0.7-0.9,0.9
			C90.6,144.9,90.2,145,89.8,145z M90,144.3c0.2,0,0.4,0,0.6-0.1s0.4-0.2,0.6-0.3s0.3-0.3,0.4-0.5c0.1-0.2,0.2-0.3,0.2-0.5v-1.8
			c-0.1-0.2-0.2-0.4-0.3-0.6c-0.1-0.2-0.3-0.3-0.5-0.5c-0.2-0.1-0.4-0.2-0.6-0.3s-0.4-0.1-0.6-0.1c-0.3,0-0.6,0.1-0.9,0.2
			s-0.5,0.3-0.6,0.5c-0.2,0.2-0.3,0.5-0.4,0.7c-0.1,0.3-0.1,0.6-0.1,0.8c0,0.3,0.1,0.6,0.2,0.9c0.1,0.3,0.3,0.5,0.5,0.7
			s0.4,0.4,0.7,0.5C89.4,144.3,89.7,144.3,90,144.3z"/>
		<path class="st4" d="M99.1,144.9h-0.7v-3.2c0-0.7-0.1-1.2-0.3-1.5c-0.2-0.3-0.5-0.5-0.9-0.5c-0.2,0-0.4,0-0.7,0.1
			c-0.2,0.1-0.4,0.2-0.6,0.3c-0.2,0.1-0.4,0.3-0.5,0.5c-0.1,0.2-0.3,0.4-0.3,0.7v3.5h-0.7v-5.7H95v1.3c0.2-0.4,0.6-0.8,1-1
			c0.4-0.3,0.9-0.4,1.4-0.4c0.3,0,0.6,0.1,0.8,0.2c0.2,0.1,0.4,0.3,0.5,0.5c0.1,0.2,0.2,0.5,0.3,0.8s0.1,0.6,0.1,1V144.9z"/>
		<path class="st4" d="M103.5,138v-1.1h0.7v1.1H103.5z M103.5,144.9v-5.7h0.7v5.7H103.5z"/>
		<path class="st4" d="M110.7,144.9H110v-3.2c0-0.7-0.1-1.2-0.3-1.5c-0.2-0.3-0.5-0.5-0.9-0.5c-0.2,0-0.4,0-0.7,0.1
			c-0.2,0.1-0.4,0.2-0.6,0.3c-0.2,0.1-0.4,0.3-0.5,0.5c-0.1,0.2-0.3,0.4-0.3,0.7v3.5h-0.7v-5.7h0.7v1.3c0.2-0.4,0.6-0.8,1-1
			c0.4-0.3,0.9-0.4,1.4-0.4c0.3,0,0.6,0.1,0.8,0.2c0.2,0.1,0.4,0.3,0.5,0.5c0.1,0.2,0.2,0.5,0.3,0.8s0.1,0.6,0.1,1V144.9z"/>
		<path class="st4" d="M112.2,144.9v-1.1h0.6v1.1H112.2z"/>
	</g>
</g>
</svg>
