<?xml version="1.0" encoding="utf-8"?>
<!-- Generator: Adobe Illustrator 24.3.0, SVG Export Plug-In . SVG Version: 6.00 Build 0)  -->
<svg version="1.1" id="Layer_1" xmlns="http://www.w3.org/2000/svg" xmlns:xlink="http://www.w3.org/1999/xlink" x="0px" y="0px"
	 viewBox="0 0 193 193" style="enable-background:new 0 0 193 193;" xml:space="preserve">
<style type="text/css">
	.st0{fill:#FFFFFF;}
	.st1{fill:none;}
	.st2{enable-background:new    ;}
	.st3{fill:#F08E25;}
	.st4{fill:#AF5B00;}
</style>
<g id="Layer_1_1_">
	<circle class="st0" cx="96.5" cy="96.5" r="96.1"/>
</g>
<g id="Layer_2_copy_2">
	<rect x="36.1" y="90.9" class="st1" width="120.8" height="35"/>
	<g class="st2">
		<path class="st3" d="M82,100.3c0.1,0,0.2,0,0.3,0.1l0.7,0.7c-0.5,0.6-1.2,1.1-1.9,1.4c-0.8,0.3-1.7,0.5-2.7,0.5
			c-0.9,0-1.8-0.2-2.5-0.5c-0.8-0.3-1.4-0.8-1.9-1.3c-0.5-0.6-0.9-1.3-1.2-2.1c-0.3-0.8-0.4-1.7-0.4-2.7c0-1,0.2-1.9,0.5-2.7
			c0.3-0.8,0.8-1.5,1.3-2.1c0.6-0.6,1.3-1,2-1.4c0.8-0.3,1.7-0.5,2.6-0.5c0.9,0,1.8,0.1,2.5,0.4c0.7,0.3,1.3,0.7,1.8,1.2l-0.6,0.8
			c0,0.1-0.1,0.1-0.1,0.1c-0.1,0-0.1,0.1-0.2,0.1c-0.1,0-0.2,0-0.2-0.1s-0.2-0.1-0.3-0.2c-0.1-0.1-0.3-0.2-0.4-0.3s-0.4-0.2-0.6-0.3
			c-0.2-0.1-0.5-0.2-0.8-0.2s-0.6-0.1-1-0.1c-0.7,0-1.3,0.1-1.9,0.4c-0.6,0.2-1.1,0.6-1.5,1c-0.4,0.4-0.7,1-1,1.6
			c-0.2,0.6-0.3,1.3-0.3,2.1c0,0.8,0.1,1.5,0.3,2.2s0.5,1.2,0.9,1.6c0.4,0.4,0.9,0.8,1.4,1c0.5,0.2,1.1,0.3,1.8,0.3
			c0.4,0,0.7,0,1-0.1c0.3,0,0.6-0.1,0.9-0.2c0.3-0.1,0.5-0.2,0.7-0.4c0.2-0.1,0.5-0.3,0.7-0.5C81.8,100.3,81.9,100.3,82,100.3z"/>
		<path class="st3" d="M85,102.9V89.7h1.6V95c0.4-0.4,0.8-0.7,1.3-1s1-0.4,1.6-0.4c0.5,0,0.9,0.1,1.3,0.2s0.7,0.4,1,0.7
			c0.3,0.3,0.4,0.7,0.6,1.1s0.2,0.9,0.2,1.4v5.8H91v-5.8c0-0.7-0.2-1.2-0.5-1.6s-0.8-0.6-1.4-0.6c-0.5,0-0.9,0.1-1.3,0.3
			c-0.4,0.2-0.8,0.5-1.1,0.9v6.7H85z"/>
		<path class="st3" d="M98.6,93.7c0.5,0,1,0.1,1.5,0.3c0.5,0.2,0.9,0.4,1.2,0.8s0.6,0.8,0.8,1.3c0.2,0.5,0.3,1.1,0.3,1.7
			c0,0.3,0,0.4-0.1,0.5s-0.2,0.1-0.3,0.1h-6.1c0,0.6,0.1,1.1,0.2,1.5c0.1,0.4,0.3,0.8,0.6,1.1s0.6,0.5,0.9,0.6
			c0.3,0.1,0.7,0.2,1.2,0.2c0.4,0,0.7,0,1-0.1s0.5-0.2,0.8-0.3c0.2-0.1,0.4-0.2,0.5-0.3c0.1-0.1,0.3-0.1,0.4-0.1
			c0.1,0,0.2,0.1,0.3,0.2l0.5,0.6c-0.2,0.2-0.4,0.4-0.7,0.6s-0.6,0.3-0.9,0.4c-0.3,0.1-0.6,0.2-1,0.3c-0.3,0.1-0.7,0.1-1,0.1
			c-0.6,0-1.2-0.1-1.7-0.3s-1-0.5-1.4-0.9c-0.4-0.4-0.7-0.9-0.9-1.5c-0.2-0.6-0.3-1.3-0.3-2.1c0-0.6,0.1-1.2,0.3-1.8
			c0.2-0.6,0.5-1,0.8-1.4c0.4-0.4,0.8-0.7,1.3-1C97.3,93.8,97.9,93.7,98.6,93.7z M98.6,94.8c-0.8,0-1.4,0.2-1.8,0.7
			c-0.4,0.4-0.7,1.1-0.8,1.9h5c0-0.4-0.1-0.7-0.2-1c-0.1-0.3-0.3-0.6-0.5-0.8c-0.2-0.2-0.4-0.4-0.7-0.5S99,94.8,98.6,94.8z"/>
		<path class="st3" d="M110.6,95.4c0,0.1-0.1,0.1-0.1,0.2s-0.1,0.1-0.2,0.1c-0.1,0-0.2,0-0.3-0.1c-0.1-0.1-0.2-0.2-0.4-0.2
			c-0.2-0.1-0.4-0.2-0.6-0.2s-0.5-0.1-0.9-0.1c-0.4,0-0.8,0.1-1.2,0.2s-0.6,0.4-0.9,0.7c-0.2,0.3-0.4,0.7-0.5,1.1
			c-0.1,0.4-0.2,0.9-0.2,1.4c0,0.6,0.1,1,0.2,1.5c0.1,0.4,0.3,0.8,0.5,1.1c0.2,0.3,0.5,0.5,0.8,0.7c0.3,0.2,0.7,0.2,1.1,0.2
			c0.4,0,0.7,0,1-0.1c0.3-0.1,0.5-0.2,0.6-0.3c0.2-0.1,0.3-0.2,0.4-0.3c0.1-0.1,0.2-0.1,0.3-0.1c0.1,0,0.2,0.1,0.3,0.2l0.4,0.6
			c-0.4,0.5-0.9,0.8-1.5,1.1c-0.6,0.2-1.2,0.3-1.9,0.3c-0.6,0-1.1-0.1-1.6-0.3s-0.9-0.5-1.3-0.9c-0.4-0.4-0.6-0.9-0.9-1.5
			s-0.3-1.2-0.3-2c0-0.7,0.1-1.3,0.3-1.9c0.2-0.6,0.5-1.1,0.8-1.5s0.8-0.7,1.3-1c0.5-0.2,1.1-0.4,1.8-0.4c0.6,0,1.2,0.1,1.7,0.3
			c0.5,0.2,0.9,0.5,1.3,0.9L110.6,95.4z"/>
		<path class="st3" d="M114.5,89.7v7.8h0.4c0.1,0,0.2,0,0.3,0c0.1,0,0.2-0.1,0.3-0.2l2.9-3.1c0.1-0.1,0.2-0.2,0.3-0.2
			c0.1-0.1,0.2-0.1,0.4-0.1h1.5l-3.4,3.6c-0.1,0.1-0.2,0.2-0.2,0.3c-0.1,0.1-0.2,0.1-0.3,0.2c0.1,0.1,0.2,0.2,0.3,0.2
			s0.2,0.2,0.2,0.3l3.6,4.5h-1.4c-0.1,0-0.2,0-0.3-0.1s-0.2-0.1-0.3-0.2l-3-3.7c-0.1-0.1-0.2-0.2-0.3-0.2s-0.2-0.1-0.4-0.1h-0.5v4.4
			h-1.6V89.7H114.5z"/>
	</g>
	<g class="st2">
		<path class="st3" d="M57.6,115.5v5.1h-1.7v-5.1l-4.7-7.8h1.5c0.2,0,0.3,0,0.4,0.1c0.1,0.1,0.2,0.2,0.2,0.3l3,5
			c0.1,0.2,0.2,0.4,0.3,0.6c0.1,0.2,0.2,0.4,0.2,0.5c0.1-0.2,0.1-0.4,0.2-0.6c0.1-0.2,0.2-0.4,0.3-0.6l2.9-5
			c0.1-0.1,0.1-0.2,0.2-0.3c0.1-0.1,0.2-0.1,0.4-0.1h1.5L57.6,115.5z"/>
		<path class="st3" d="M65.9,111.4c0.7,0,1.3,0.1,1.8,0.3c0.5,0.2,1,0.5,1.4,0.9c0.4,0.4,0.7,0.9,0.9,1.5c0.2,0.6,0.3,1.2,0.3,1.9
			c0,0.7-0.1,1.4-0.3,1.9c-0.2,0.6-0.5,1.1-0.9,1.5c-0.4,0.4-0.8,0.7-1.4,0.9c-0.5,0.2-1.1,0.3-1.8,0.3s-1.3-0.1-1.8-0.3
			c-0.5-0.2-1-0.5-1.4-0.9c-0.4-0.4-0.7-0.9-0.9-1.5c-0.2-0.6-0.3-1.2-0.3-1.9c0-0.7,0.1-1.4,0.3-1.9c0.2-0.6,0.5-1.1,0.9-1.5
			c0.4-0.4,0.8-0.7,1.4-0.9C64.7,111.5,65.3,111.4,65.9,111.4z M65.9,119.5c0.9,0,1.6-0.3,2-0.9c0.4-0.6,0.7-1.4,0.7-2.5
			c0-1.1-0.2-1.9-0.7-2.5c-0.4-0.6-1.1-0.9-2-0.9c-0.5,0-0.9,0.1-1.2,0.2c-0.3,0.2-0.6,0.4-0.8,0.7s-0.4,0.7-0.5,1.1
			c-0.1,0.4-0.2,0.9-0.2,1.5s0.1,1,0.2,1.4c0.1,0.4,0.3,0.8,0.5,1.1s0.5,0.5,0.8,0.7C65.1,119.4,65.5,119.5,65.9,119.5z"/>
		<path class="st3" d="M73.6,111.5v5.8c0,0.7,0.2,1.2,0.5,1.6c0.3,0.4,0.8,0.6,1.4,0.6c0.5,0,0.9-0.1,1.3-0.3s0.8-0.5,1.1-0.9v-6.7
			h1.6v9.1h-1c-0.2,0-0.4-0.1-0.4-0.3l-0.1-1c-0.4,0.4-0.8,0.8-1.3,1.1c-0.5,0.3-1.1,0.4-1.7,0.4c-0.5,0-0.9-0.1-1.3-0.2
			s-0.7-0.4-1-0.7s-0.5-0.7-0.6-1.1c-0.1-0.4-0.2-0.9-0.2-1.4v-5.8H73.6z"/>
		<path class="st3" d="M82.3,120.6v-9.1h0.9c0.2,0,0.3,0,0.4,0.1c0.1,0.1,0.1,0.2,0.1,0.3l0.1,1.4c0.3-0.6,0.7-1.1,1.2-1.5
			c0.5-0.4,1-0.5,1.6-0.5c0.3,0,0.5,0,0.7,0.1s0.4,0.1,0.6,0.2l-0.2,1.2c0,0.1-0.1,0.2-0.3,0.2c-0.1,0-0.2,0-0.4-0.1
			c-0.2-0.1-0.4-0.1-0.7-0.1c-0.6,0-1,0.2-1.4,0.5s-0.7,0.8-0.9,1.4v5.8H82.3z"/>
		<path class="st3" d="M99.8,109.7c-0.1,0.1-0.1,0.2-0.2,0.2s-0.1,0.1-0.2,0.1c-0.1,0-0.2-0.1-0.4-0.2c-0.1-0.1-0.3-0.2-0.5-0.3
			s-0.5-0.2-0.7-0.3c-0.3-0.1-0.6-0.2-1.1-0.2c-0.4,0-0.7,0.1-1,0.2c-0.3,0.1-0.5,0.2-0.8,0.4s-0.4,0.4-0.5,0.6
			c-0.1,0.2-0.2,0.5-0.2,0.8c0,0.4,0.1,0.7,0.3,0.9c0.2,0.2,0.4,0.4,0.7,0.6c0.3,0.2,0.6,0.3,1,0.4s0.7,0.3,1.1,0.4
			c0.4,0.1,0.8,0.3,1.1,0.4s0.7,0.4,1,0.6s0.5,0.6,0.7,0.9c0.2,0.4,0.3,0.8,0.3,1.3c0,0.6-0.1,1.1-0.3,1.6c-0.2,0.5-0.5,0.9-0.8,1.3
			c-0.4,0.4-0.8,0.7-1.4,0.9s-1.1,0.3-1.8,0.3c-0.8,0-1.6-0.2-2.3-0.5c-0.7-0.3-1.3-0.7-1.8-1.2l0.5-0.8c0-0.1,0.1-0.1,0.2-0.2
			c0.1,0,0.1-0.1,0.2-0.1c0.1,0,0.3,0.1,0.4,0.2s0.4,0.3,0.6,0.4s0.5,0.3,0.9,0.4c0.3,0.1,0.8,0.2,1.3,0.2c0.4,0,0.8-0.1,1.1-0.2
			c0.3-0.1,0.6-0.3,0.8-0.5c0.2-0.2,0.4-0.5,0.5-0.7c0.1-0.3,0.2-0.6,0.2-1c0-0.4-0.1-0.7-0.3-1s-0.4-0.5-0.7-0.6s-0.6-0.3-1-0.4
			c-0.4-0.1-0.7-0.2-1.1-0.4c-0.4-0.1-0.8-0.3-1.1-0.4s-0.7-0.4-1-0.6s-0.5-0.6-0.7-1c-0.2-0.4-0.3-0.9-0.3-1.4
			c0-0.5,0.1-0.9,0.3-1.3c0.2-0.4,0.4-0.8,0.8-1.1s0.8-0.6,1.2-0.8s1.1-0.3,1.7-0.3c0.7,0,1.4,0.1,2,0.3c0.6,0.2,1.1,0.6,1.6,1
			L99.8,109.7z"/>
		<path class="st3" d="M105.3,120.8c-0.7,0-1.3-0.2-1.7-0.6c-0.4-0.4-0.6-1-0.6-1.7v-5.6h-1.1c-0.1,0-0.2,0-0.2-0.1
			c-0.1-0.1-0.1-0.1-0.1-0.3v-0.6l1.5-0.2l0.4-2.8c0-0.1,0.1-0.2,0.1-0.2c0.1-0.1,0.2-0.1,0.3-0.1h0.8v3.1h2.6v1.2h-2.6v5.5
			c0,0.4,0.1,0.7,0.3,0.9c0.2,0.2,0.4,0.3,0.7,0.3c0.2,0,0.3,0,0.4-0.1s0.2-0.1,0.3-0.1c0.1-0.1,0.2-0.1,0.2-0.1
			c0.1,0,0.1-0.1,0.2-0.1c0.1,0,0.2,0.1,0.2,0.2l0.5,0.8c-0.3,0.3-0.6,0.5-1,0.6C106.1,120.7,105.7,120.8,105.3,120.8z"/>
		<path class="st3" d="M115.9,120.6h-0.7c-0.2,0-0.3,0-0.4-0.1c-0.1,0-0.2-0.1-0.2-0.3l-0.2-0.8c-0.2,0.2-0.5,0.4-0.7,0.6
			c-0.2,0.2-0.5,0.3-0.7,0.4c-0.3,0.1-0.5,0.2-0.8,0.3c-0.3,0.1-0.6,0.1-0.9,0.1c-0.4,0-0.7,0-1-0.1c-0.3-0.1-0.6-0.2-0.8-0.4
			c-0.2-0.2-0.4-0.5-0.5-0.8s-0.2-0.7-0.2-1.1c0-0.4,0.1-0.7,0.3-1s0.5-0.6,1-0.9c0.4-0.3,1-0.5,1.7-0.6c0.7-0.2,1.6-0.2,2.6-0.2
			v-0.7c0-0.7-0.2-1.3-0.5-1.6c-0.3-0.4-0.8-0.5-1.3-0.5c-0.4,0-0.7,0-1,0.1c-0.3,0.1-0.5,0.2-0.7,0.3c-0.2,0.1-0.4,0.2-0.5,0.3
			c-0.1,0.1-0.3,0.1-0.4,0.1c-0.1,0-0.2,0-0.3-0.1c-0.1-0.1-0.1-0.1-0.2-0.2l-0.3-0.5c0.5-0.5,1-0.8,1.6-1.1
			c0.6-0.2,1.2-0.4,1.9-0.4c0.5,0,1,0.1,1.4,0.3c0.4,0.2,0.7,0.4,1,0.7c0.3,0.3,0.5,0.7,0.6,1.1c0.1,0.4,0.2,0.9,0.2,1.4V120.6z
			 M111.8,119.6c0.3,0,0.5,0,0.8-0.1s0.5-0.1,0.7-0.2c0.2-0.1,0.4-0.2,0.6-0.4c0.2-0.1,0.4-0.3,0.6-0.5v-1.9c-0.7,0-1.4,0-1.9,0.1
			c-0.5,0.1-0.9,0.2-1.3,0.4c-0.3,0.2-0.6,0.3-0.7,0.5c-0.1,0.2-0.2,0.4-0.2,0.7c0,0.2,0,0.5,0.1,0.6c0.1,0.2,0.2,0.3,0.3,0.4
			c0.1,0.1,0.3,0.2,0.5,0.2C111.4,119.6,111.6,119.6,111.8,119.6z"/>
		<path class="st3" d="M121.1,120.8c-0.7,0-1.3-0.2-1.7-0.6c-0.4-0.4-0.6-1-0.6-1.7v-5.6h-1.1c-0.1,0-0.2,0-0.2-0.1
			c-0.1-0.1-0.1-0.1-0.1-0.3v-0.6l1.5-0.2l0.4-2.8c0-0.1,0.1-0.2,0.1-0.2c0.1-0.1,0.2-0.1,0.3-0.1h0.8v3.1h2.6v1.2h-2.6v5.5
			c0,0.4,0.1,0.7,0.3,0.9c0.2,0.2,0.4,0.3,0.7,0.3c0.2,0,0.3,0,0.4-0.1s0.2-0.1,0.3-0.1c0.1-0.1,0.2-0.1,0.2-0.1
			c0.1,0,0.1-0.1,0.2-0.1c0.1,0,0.2,0.1,0.2,0.2l0.5,0.8c-0.3,0.3-0.6,0.5-1,0.6C121.9,120.7,121.5,120.8,121.1,120.8z"/>
		<path class="st3" d="M126.5,111.5v5.8c0,0.7,0.2,1.2,0.5,1.6c0.3,0.4,0.8,0.6,1.4,0.6c0.5,0,0.9-0.1,1.3-0.3
			c0.4-0.2,0.8-0.5,1.1-0.9v-6.7h1.6v9.1h-1c-0.2,0-0.4-0.1-0.4-0.3l-0.1-1c-0.4,0.4-0.8,0.8-1.3,1.1c-0.5,0.3-1.1,0.4-1.7,0.4
			c-0.5,0-0.9-0.1-1.3-0.2c-0.4-0.2-0.7-0.4-1-0.7s-0.5-0.7-0.6-1.1c-0.1-0.4-0.2-0.9-0.2-1.4v-5.8H126.5z"/>
		<path class="st3" d="M140.3,113c-0.1,0.1-0.2,0.2-0.3,0.2c-0.1,0-0.2,0-0.3-0.1c-0.1-0.1-0.3-0.1-0.4-0.2s-0.4-0.2-0.6-0.2
			c-0.2-0.1-0.5-0.1-0.8-0.1c-0.3,0-0.5,0-0.7,0.1c-0.2,0.1-0.4,0.2-0.6,0.3c-0.2,0.1-0.3,0.3-0.4,0.4c-0.1,0.2-0.1,0.3-0.1,0.5
			c0,0.2,0.1,0.4,0.2,0.6c0.1,0.2,0.3,0.3,0.5,0.4c0.2,0.1,0.5,0.2,0.8,0.3c0.3,0.1,0.6,0.2,0.9,0.3c0.3,0.1,0.6,0.2,0.9,0.3
			s0.5,0.3,0.8,0.5c0.2,0.2,0.4,0.4,0.5,0.7s0.2,0.6,0.2,0.9c0,0.4-0.1,0.8-0.2,1.2c-0.2,0.4-0.4,0.7-0.7,0.9
			c-0.3,0.3-0.7,0.5-1.1,0.6c-0.4,0.2-0.9,0.2-1.5,0.2c-0.6,0-1.2-0.1-1.7-0.3c-0.5-0.2-1-0.5-1.3-0.8l0.4-0.6
			c0-0.1,0.1-0.1,0.2-0.2c0.1,0,0.2-0.1,0.3-0.1c0.1,0,0.2,0,0.3,0.1c0.1,0.1,0.3,0.2,0.4,0.3c0.2,0.1,0.4,0.2,0.6,0.3
			s0.5,0.1,0.9,0.1c0.3,0,0.6,0,0.8-0.1s0.4-0.2,0.6-0.3s0.3-0.3,0.3-0.5c0.1-0.2,0.1-0.4,0.1-0.6c0-0.3-0.1-0.5-0.2-0.6
			c-0.1-0.2-0.3-0.3-0.5-0.4c-0.2-0.1-0.5-0.2-0.8-0.3c-0.3-0.1-0.6-0.2-0.9-0.3c-0.3-0.1-0.6-0.2-0.9-0.3c-0.3-0.1-0.5-0.3-0.8-0.5
			c-0.2-0.2-0.4-0.4-0.5-0.7c-0.1-0.3-0.2-0.6-0.2-1c0-0.3,0.1-0.7,0.2-1c0.1-0.3,0.4-0.6,0.6-0.8c0.3-0.2,0.6-0.4,1-0.6
			c0.4-0.1,0.9-0.2,1.4-0.2c0.6,0,1.1,0.1,1.6,0.3c0.5,0.2,0.9,0.4,1.2,0.8L140.3,113z"/>
	</g>
	<rect x="20.3" y="136.9" class="st1" width="152.5" height="44.2"/>
	<g class="st2">
		<path class="st4" d="M52.9,137.1l3,7.5l3-7.5h0.9l-3.6,8.5h-0.7l-3.6-8.5H52.9z"/>
		<path class="st4" d="M60.9,138.1v-1.2h0.8v1.2H60.9z M60.9,145.6v-6.3h0.8v6.3H60.9z"/>
		<path class="st4" d="M66.2,145.7c-0.5,0-0.9-0.1-1.3-0.3c-0.4-0.2-0.7-0.4-1-0.7c-0.3-0.3-0.5-0.6-0.7-1c-0.2-0.4-0.2-0.8-0.2-1.3
			c0-0.4,0.1-0.9,0.2-1.2c0.2-0.4,0.4-0.7,0.6-1s0.6-0.5,1-0.7c0.4-0.2,0.8-0.3,1.2-0.3c0.5,0,0.9,0.1,1.3,0.3
			c0.4,0.2,0.7,0.4,1,0.7c0.3,0.3,0.5,0.6,0.6,1c0.2,0.4,0.2,0.8,0.2,1.2c0,0.1,0,0.1,0,0.2s0,0.1,0,0.1H64c0,0.3,0.1,0.6,0.2,0.9
			c0.1,0.3,0.3,0.5,0.5,0.7s0.4,0.4,0.7,0.5s0.6,0.2,0.9,0.2c0.2,0,0.4,0,0.6-0.1c0.2-0.1,0.4-0.1,0.6-0.2c0.2-0.1,0.3-0.2,0.5-0.4
			c0.1-0.1,0.2-0.3,0.3-0.5l0.7,0.2c-0.1,0.2-0.2,0.4-0.4,0.6c-0.2,0.2-0.4,0.4-0.6,0.5c-0.2,0.1-0.5,0.2-0.8,0.3
			C66.8,145.7,66.5,145.7,66.2,145.7z M68.5,142.2c0-0.3-0.1-0.6-0.2-0.9s-0.3-0.5-0.5-0.7s-0.4-0.4-0.7-0.5
			c-0.3-0.1-0.6-0.2-0.9-0.2c-0.3,0-0.6,0.1-0.9,0.2c-0.3,0.1-0.5,0.3-0.7,0.5s-0.4,0.4-0.5,0.7c-0.1,0.3-0.2,0.6-0.2,0.9H68.5z"/>
		<path class="st4" d="M78.3,139.4h0.8l-2.7,6.3h-0.7l-1.3-3.2l-1.3,3.2h-0.7l-2.7-6.3h0.8l2.3,5.4l1.2-2.9l-1.1-2.5h0.7l0.8,2
			l0.8-2h0.7l-1.1,2.5l1.2,2.9L78.3,139.4z"/>
		<path class="st4" d="M85.9,145.3c0,0-0.1,0.1-0.2,0.1c-0.1,0-0.2,0.1-0.3,0.1s-0.3,0.1-0.4,0.1c-0.2,0-0.3,0-0.5,0
			c-0.2,0-0.3,0-0.5-0.1c-0.2,0-0.3-0.1-0.4-0.2c-0.1-0.1-0.2-0.2-0.3-0.4c-0.1-0.2-0.1-0.3-0.1-0.5V140h-0.9v-0.6h0.9v-2.1H84v2.1
			h1.4v0.6H84v4.2c0,0.2,0.1,0.4,0.2,0.5c0.1,0.1,0.3,0.2,0.5,0.2c0.2,0,0.4,0,0.6-0.1s0.3-0.1,0.3-0.2L85.9,145.3z"/>
		<path class="st4" d="M92.2,145.6h-0.8v-3.5c0-0.7-0.1-1.2-0.4-1.6s-0.6-0.5-1.1-0.5c-0.2,0-0.5,0-0.7,0.1
			c-0.2,0.1-0.4,0.2-0.6,0.4c-0.2,0.2-0.4,0.3-0.5,0.6s-0.3,0.5-0.3,0.7v3.8h-0.8v-8.8h0.8v3.9c0.2-0.5,0.6-0.8,1-1.1
			c0.4-0.3,0.9-0.4,1.4-0.4c0.4,0,0.7,0.1,0.9,0.2s0.5,0.3,0.6,0.6c0.2,0.2,0.3,0.5,0.3,0.9s0.1,0.7,0.1,1.1V145.6z"/>
		<path class="st4" d="M96.6,145.7c-0.5,0-0.9-0.1-1.3-0.3s-0.7-0.4-1-0.7c-0.3-0.3-0.5-0.6-0.7-1s-0.2-0.8-0.2-1.3
			c0-0.4,0.1-0.9,0.2-1.2c0.2-0.4,0.4-0.7,0.6-1c0.3-0.3,0.6-0.5,1-0.7c0.4-0.2,0.8-0.3,1.2-0.3c0.5,0,0.9,0.1,1.3,0.3
			c0.4,0.2,0.7,0.4,1,0.7c0.3,0.3,0.5,0.6,0.6,1c0.2,0.4,0.2,0.8,0.2,1.2c0,0.1,0,0.1,0,0.2s0,0.1,0,0.1h-5.4c0,0.3,0.1,0.6,0.2,0.9
			c0.1,0.3,0.3,0.5,0.5,0.7c0.2,0.2,0.4,0.4,0.7,0.5c0.3,0.1,0.6,0.2,0.9,0.2c0.2,0,0.4,0,0.6-0.1c0.2-0.1,0.4-0.1,0.6-0.2
			c0.2-0.1,0.3-0.2,0.5-0.4c0.1-0.1,0.2-0.3,0.3-0.5l0.7,0.2c-0.1,0.2-0.2,0.4-0.4,0.6c-0.2,0.2-0.4,0.4-0.6,0.5
			c-0.2,0.1-0.5,0.2-0.8,0.3C97.2,145.7,96.9,145.7,96.6,145.7z M98.9,142.2c0-0.3-0.1-0.6-0.2-0.9s-0.3-0.5-0.5-0.7
			s-0.4-0.4-0.7-0.5c-0.3-0.1-0.6-0.2-0.9-0.2c-0.3,0-0.6,0.1-0.9,0.2c-0.3,0.1-0.5,0.3-0.7,0.5c-0.2,0.2-0.4,0.4-0.5,0.7
			c-0.1,0.3-0.2,0.6-0.2,0.9H98.9z"/>
		<path class="st4" d="M106.1,145.7c-0.5,0-1-0.1-1.4-0.2s-0.9-0.4-1.2-0.7l0.4-0.6c0.4,0.3,0.7,0.5,1.1,0.6
			c0.4,0.1,0.8,0.2,1.2,0.2c0.5,0,0.9-0.1,1.2-0.3c0.3-0.2,0.5-0.5,0.5-0.9c0-0.2,0-0.3-0.1-0.4c-0.1-0.1-0.2-0.2-0.4-0.3
			c-0.2-0.1-0.4-0.2-0.6-0.2c-0.2-0.1-0.5-0.1-0.8-0.2c-0.4-0.1-0.7-0.2-0.9-0.3c-0.3-0.1-0.5-0.2-0.7-0.3c-0.2-0.1-0.3-0.2-0.4-0.4
			s-0.1-0.4-0.1-0.6c0-0.3,0.1-0.6,0.2-0.8s0.3-0.4,0.5-0.6c0.2-0.2,0.5-0.3,0.7-0.4c0.3-0.1,0.6-0.1,0.9-0.1c0.5,0,0.9,0.1,1.3,0.2
			c0.4,0.2,0.7,0.4,0.9,0.6l-0.4,0.5c-0.2-0.2-0.5-0.4-0.8-0.5s-0.7-0.2-1-0.2c-0.2,0-0.4,0-0.6,0.1c-0.2,0-0.3,0.1-0.5,0.2
			c-0.1,0.1-0.2,0.2-0.3,0.4c-0.1,0.1-0.1,0.3-0.1,0.5c0,0.2,0,0.3,0.1,0.4c0.1,0.1,0.1,0.2,0.3,0.3c0.1,0.1,0.3,0.1,0.5,0.2
			c0.2,0.1,0.4,0.1,0.7,0.2c0.4,0.1,0.8,0.2,1.1,0.3c0.3,0.1,0.6,0.2,0.8,0.3s0.4,0.3,0.5,0.5c0.1,0.2,0.2,0.4,0.2,0.7
			c0,0.6-0.2,1-0.7,1.4C107.4,145.6,106.8,145.7,106.1,145.7z"/>
		<path class="st4" d="M112.9,145.3c0,0-0.1,0.1-0.2,0.1c-0.1,0-0.2,0.1-0.3,0.1s-0.3,0.1-0.4,0.1c-0.2,0-0.3,0-0.5,0
			c-0.2,0-0.3,0-0.5-0.1c-0.2,0-0.3-0.1-0.4-0.2c-0.1-0.1-0.2-0.2-0.3-0.4c-0.1-0.2-0.1-0.3-0.1-0.5V140h-0.9v-0.6h0.9v-2.1h0.8v2.1
			h1.4v0.6h-1.4v4.2c0,0.2,0.1,0.4,0.2,0.5c0.1,0.1,0.3,0.2,0.5,0.2c0.2,0,0.4,0,0.6-0.1s0.3-0.1,0.3-0.2L112.9,145.3z"/>
		<path class="st4" d="M115.5,145.7c-0.3,0-0.6,0-0.8-0.2c-0.3-0.1-0.5-0.2-0.7-0.4c-0.2-0.2-0.3-0.4-0.4-0.6
			c-0.1-0.2-0.2-0.5-0.2-0.8c0-0.3,0.1-0.5,0.2-0.8c0.1-0.2,0.3-0.4,0.5-0.6s0.5-0.3,0.8-0.4c0.3-0.1,0.7-0.1,1.1-0.1
			c0.3,0,0.6,0,1,0.1c0.3,0.1,0.6,0.1,0.9,0.2v-0.6c0-0.6-0.2-1-0.5-1.3c-0.3-0.3-0.7-0.5-1.3-0.5c-0.3,0-0.6,0.1-1,0.2
			s-0.7,0.3-1,0.6l-0.3-0.5c0.8-0.5,1.6-0.8,2.4-0.8c0.8,0,1.4,0.2,1.8,0.7c0.4,0.4,0.7,1,0.7,1.8v2.8c0,0.2,0.1,0.3,0.3,0.3v0.7
			c-0.1,0-0.2,0-0.3,0c-0.2,0-0.4-0.1-0.5-0.2c-0.1-0.1-0.2-0.2-0.2-0.4l0-0.5c-0.3,0.4-0.6,0.7-1.1,0.9
			C116.4,145.6,116,145.7,115.5,145.7z M115.7,145.1c0.4,0,0.8-0.1,1.2-0.2c0.4-0.2,0.6-0.4,0.8-0.6c0.1-0.1,0.1-0.2,0.2-0.2
			s0.1-0.2,0.1-0.2v-1c-0.3-0.1-0.6-0.2-0.8-0.2c-0.3-0.1-0.6-0.1-0.9-0.1c-0.6,0-1,0.1-1.4,0.4c-0.4,0.2-0.5,0.6-0.5,0.9
			c0,0.2,0,0.4,0.1,0.5s0.2,0.3,0.3,0.4c0.1,0.1,0.3,0.2,0.5,0.3C115.2,145.1,115.4,145.1,115.7,145.1z"/>
		<path class="st4" d="M123.4,145.3c0,0-0.1,0.1-0.2,0.1c-0.1,0-0.2,0.1-0.3,0.1s-0.3,0.1-0.4,0.1c-0.2,0-0.3,0-0.5,0
			c-0.2,0-0.3,0-0.5-0.1c-0.2,0-0.3-0.1-0.4-0.2c-0.1-0.1-0.2-0.2-0.3-0.4c-0.1-0.2-0.1-0.3-0.1-0.5V140h-0.9v-0.6h0.9v-2.1h0.8v2.1
			h1.4v0.6h-1.4v4.2c0,0.2,0.1,0.4,0.2,0.5c0.1,0.1,0.3,0.2,0.5,0.2c0.2,0,0.4,0,0.6-0.1s0.3-0.1,0.3-0.2L123.4,145.3z"/>
		<path class="st4" d="M126.4,145.7c-0.7,0-1.2-0.2-1.5-0.7s-0.5-1.1-0.5-2v-3.7h0.8v3.5c0,1.4,0.5,2.1,1.5,2.1c0.2,0,0.5,0,0.7-0.1
			c0.2-0.1,0.4-0.2,0.6-0.3c0.2-0.2,0.4-0.3,0.5-0.5c0.2-0.2,0.3-0.4,0.4-0.7v-3.9h0.8v5.2c0,0.2,0.1,0.3,0.3,0.3v0.7
			c-0.1,0-0.2,0-0.2,0c-0.1,0-0.1,0-0.1,0c-0.2,0-0.3-0.1-0.5-0.2s-0.2-0.3-0.2-0.5v-0.7c-0.3,0.5-0.6,0.9-1.1,1.1
			C127.4,145.6,126.9,145.7,126.4,145.7z"/>
		<path class="st4" d="M133.6,145.7c-0.5,0-1-0.1-1.4-0.2s-0.9-0.4-1.2-0.7l0.4-0.6c0.4,0.3,0.7,0.5,1.1,0.6
			c0.4,0.1,0.8,0.2,1.2,0.2c0.5,0,0.9-0.1,1.2-0.3c0.3-0.2,0.5-0.5,0.5-0.9c0-0.2,0-0.3-0.1-0.4c-0.1-0.1-0.2-0.2-0.4-0.3
			c-0.2-0.1-0.4-0.2-0.6-0.2c-0.2-0.1-0.5-0.1-0.8-0.2c-0.4-0.1-0.7-0.2-0.9-0.3c-0.3-0.1-0.5-0.2-0.7-0.3c-0.2-0.1-0.3-0.2-0.4-0.4
			s-0.1-0.4-0.1-0.6c0-0.3,0.1-0.6,0.2-0.8s0.3-0.4,0.5-0.6c0.2-0.2,0.5-0.3,0.7-0.4c0.3-0.1,0.6-0.1,0.9-0.1c0.5,0,0.9,0.1,1.3,0.2
			c0.4,0.2,0.7,0.4,0.9,0.6l-0.4,0.5c-0.2-0.2-0.5-0.4-0.8-0.5s-0.7-0.2-1-0.2c-0.2,0-0.4,0-0.6,0.1c-0.2,0-0.3,0.1-0.5,0.2
			c-0.1,0.1-0.2,0.2-0.3,0.4c-0.1,0.1-0.1,0.3-0.1,0.5c0,0.2,0,0.3,0.1,0.4c0.1,0.1,0.1,0.2,0.3,0.3c0.1,0.1,0.3,0.1,0.5,0.2
			c0.2,0.1,0.4,0.1,0.7,0.2c0.4,0.1,0.8,0.2,1.1,0.3c0.3,0.1,0.6,0.2,0.8,0.3s0.4,0.3,0.5,0.5c0.1,0.2,0.2,0.4,0.2,0.7
			c0,0.6-0.2,1-0.7,1.4C134.9,145.6,134.3,145.7,133.6,145.7z"/>
	</g>
	<g class="st2">
		<path class="st4" d="M45.8,158.7c-0.5,0-0.9-0.1-1.2-0.3s-0.7-0.4-1-0.7s-0.5-0.6-0.6-1c-0.2-0.4-0.2-0.8-0.2-1.2
			c0-0.4,0.1-0.9,0.2-1.2c0.2-0.4,0.4-0.7,0.6-1s0.6-0.5,1-0.7c0.4-0.2,0.8-0.3,1.2-0.3c0.4,0,0.9,0.1,1.2,0.3
			c0.4,0.2,0.7,0.4,1,0.7s0.5,0.6,0.6,1c0.2,0.4,0.2,0.8,0.2,1.2c0,0.4-0.1,0.8-0.2,1.2c-0.2,0.4-0.4,0.7-0.6,1
			c-0.3,0.3-0.6,0.5-1,0.7S46.3,158.7,45.8,158.7z M43.6,155.5c0,0.4,0.1,0.7,0.2,1s0.3,0.6,0.5,0.8c0.2,0.2,0.4,0.4,0.7,0.5
			c0.3,0.1,0.6,0.2,0.9,0.2s0.6-0.1,0.9-0.2c0.3-0.1,0.5-0.3,0.7-0.5c0.2-0.2,0.4-0.5,0.5-0.8s0.2-0.6,0.2-1c0-0.3-0.1-0.7-0.2-1
			c-0.1-0.3-0.3-0.6-0.5-0.8c-0.2-0.2-0.4-0.4-0.7-0.5c-0.3-0.1-0.6-0.2-0.9-0.2s-0.6,0.1-0.9,0.2c-0.3,0.1-0.5,0.3-0.7,0.5
			c-0.2,0.2-0.4,0.5-0.5,0.8S43.6,155.2,43.6,155.5z"/>
		<path class="st4" d="M50.5,158.6V153h-0.9v-0.6h0.9v-0.2c0-0.8,0.2-1.4,0.5-1.8c0.3-0.4,0.8-0.7,1.3-0.7c0.2,0,0.5,0,0.7,0.1
			c0.2,0.1,0.4,0.2,0.6,0.3l-0.3,0.6c-0.1-0.1-0.2-0.2-0.4-0.2c-0.2,0-0.3-0.1-0.5-0.1c-0.4,0-0.7,0.1-0.9,0.4s-0.3,0.7-0.3,1.3v0.2
			h1.7v0.6h-1.7v5.6H50.5z"/>
		<path class="st4" d="M57,160.5c0.1,0,0.1,0,0.2,0c0.1,0,0.1,0,0.2,0c0.1,0,0.3,0,0.3-0.1s0.2-0.1,0.2-0.3c0.1-0.1,0.2-0.3,0.3-0.6
			c0.1-0.3,0.2-0.6,0.4-1l-2.7-6.3h0.8l2.3,5.5l2.1-5.5H62l-3.2,8.1c-0.1,0.2-0.2,0.4-0.4,0.6s-0.5,0.3-0.8,0.3c-0.1,0-0.2,0-0.2,0
			c-0.1,0-0.2,0-0.3,0V160.5z"/>
		<path class="st4" d="M65.6,158.7c-0.5,0-0.9-0.1-1.2-0.3c-0.4-0.2-0.7-0.4-1-0.7s-0.5-0.6-0.6-1c-0.2-0.4-0.2-0.8-0.2-1.2
			c0-0.4,0.1-0.9,0.2-1.2c0.2-0.4,0.4-0.7,0.6-1c0.3-0.3,0.6-0.5,1-0.7s0.8-0.3,1.2-0.3c0.4,0,0.9,0.1,1.2,0.3s0.7,0.4,1,0.7
			s0.5,0.6,0.6,1c0.2,0.4,0.2,0.8,0.2,1.2c0,0.4-0.1,0.8-0.2,1.2c-0.2,0.4-0.4,0.7-0.6,1c-0.3,0.3-0.6,0.5-1,0.7
			C66.5,158.7,66.1,158.7,65.6,158.7z M63.3,155.5c0,0.4,0.1,0.7,0.2,1c0.1,0.3,0.3,0.6,0.5,0.8c0.2,0.2,0.4,0.4,0.7,0.5
			c0.3,0.1,0.6,0.2,0.9,0.2c0.3,0,0.6-0.1,0.9-0.2c0.3-0.1,0.5-0.3,0.7-0.5c0.2-0.2,0.4-0.5,0.5-0.8s0.2-0.6,0.2-1
			c0-0.3-0.1-0.7-0.2-1c-0.1-0.3-0.3-0.6-0.5-0.8c-0.2-0.2-0.5-0.4-0.7-0.5c-0.3-0.1-0.6-0.2-0.9-0.2c-0.3,0-0.6,0.1-0.9,0.2
			c-0.3,0.1-0.5,0.3-0.7,0.5c-0.2,0.2-0.4,0.5-0.5,0.8C63.4,154.8,63.3,155.2,63.3,155.5z"/>
		<path class="st4" d="M72,158.7c-0.7,0-1.2-0.2-1.5-0.7s-0.5-1.1-0.5-2v-3.7h0.8v3.5c0,1.4,0.5,2.1,1.5,2.1c0.2,0,0.5,0,0.7-0.1
			c0.2-0.1,0.4-0.2,0.6-0.3c0.2-0.2,0.4-0.3,0.5-0.5c0.2-0.2,0.3-0.4,0.4-0.7v-3.9h0.8v5.2c0,0.2,0.1,0.3,0.3,0.3v0.7
			c-0.1,0-0.2,0-0.2,0c-0.1,0-0.1,0-0.1,0c-0.2,0-0.3-0.1-0.5-0.2s-0.2-0.3-0.2-0.5v-0.7c-0.3,0.5-0.6,0.9-1.1,1.1
			C73.1,158.6,72.6,158.7,72,158.7z"/>
		<path class="st4" d="M80.3,153.1c-0.6,0-1,0.2-1.4,0.5s-0.7,0.7-0.9,1.2v3.9h-0.8v-6.3H78v1.5c0.2-0.5,0.5-0.9,0.9-1.1
			c0.4-0.3,0.8-0.4,1.3-0.4c0.1,0,0.1,0,0.2,0V153.1z"/>
		<path class="st4" d="M86.8,158.7c-0.4,0-0.8-0.1-1.2-0.3c-0.4-0.2-0.7-0.4-0.9-0.7c-0.3-0.3-0.5-0.6-0.6-1
			c-0.1-0.4-0.2-0.8-0.2-1.2c0-0.4,0.1-0.9,0.2-1.3c0.1-0.4,0.3-0.7,0.6-1c0.3-0.3,0.6-0.5,0.9-0.7c0.3-0.2,0.7-0.3,1.1-0.3
			c0.5,0,1,0.1,1.4,0.4c0.4,0.3,0.7,0.6,1,1v-3.8h0.8v7.7c0,0.2,0.1,0.3,0.3,0.3v0.7c-0.1,0-0.2,0-0.3,0c-0.2,0-0.4-0.1-0.5-0.2
			c-0.1-0.1-0.2-0.3-0.2-0.4v-0.6c-0.2,0.4-0.6,0.7-1,1S87.2,158.7,86.8,158.7z M86.9,158c0.2,0,0.4,0,0.6-0.1
			c0.2-0.1,0.4-0.2,0.6-0.3c0.2-0.1,0.4-0.3,0.5-0.5c0.1-0.2,0.2-0.4,0.3-0.6v-1.9c-0.1-0.2-0.2-0.4-0.3-0.6
			c-0.2-0.2-0.3-0.4-0.5-0.5c-0.2-0.1-0.4-0.3-0.6-0.3c-0.2-0.1-0.4-0.1-0.7-0.1c-0.3,0-0.6,0.1-0.9,0.2c-0.3,0.1-0.5,0.3-0.7,0.6
			c-0.2,0.2-0.3,0.5-0.5,0.8c-0.1,0.3-0.2,0.6-0.2,0.9c0,0.3,0.1,0.7,0.2,1c0.1,0.3,0.3,0.6,0.5,0.8c0.2,0.2,0.5,0.4,0.7,0.5
			C86.3,158,86.6,158,86.9,158z"/>
		<path class="st4" d="M94.3,158.7c-0.5,0-0.9-0.1-1.2-0.3c-0.4-0.2-0.7-0.4-1-0.7s-0.5-0.6-0.6-1c-0.2-0.4-0.2-0.8-0.2-1.2
			c0-0.4,0.1-0.9,0.2-1.2c0.2-0.4,0.4-0.7,0.6-1c0.3-0.3,0.6-0.5,1-0.7s0.8-0.3,1.2-0.3c0.4,0,0.9,0.1,1.2,0.3s0.7,0.4,1,0.7
			s0.5,0.6,0.6,1c0.2,0.4,0.2,0.8,0.2,1.2c0,0.4-0.1,0.8-0.2,1.2c-0.2,0.4-0.4,0.7-0.6,1c-0.3,0.3-0.6,0.5-1,0.7
			C95.2,158.7,94.8,158.7,94.3,158.7z M92,155.5c0,0.4,0.1,0.7,0.2,1c0.1,0.3,0.3,0.6,0.5,0.8c0.2,0.2,0.4,0.4,0.7,0.5
			c0.3,0.1,0.6,0.2,0.9,0.2c0.3,0,0.6-0.1,0.9-0.2c0.3-0.1,0.5-0.3,0.7-0.5c0.2-0.2,0.4-0.5,0.5-0.8s0.2-0.6,0.2-1
			c0-0.3-0.1-0.7-0.2-1c-0.1-0.3-0.3-0.6-0.5-0.8c-0.2-0.2-0.5-0.4-0.7-0.5c-0.3-0.1-0.6-0.2-0.9-0.2c-0.3,0-0.6,0.1-0.9,0.2
			c-0.3,0.1-0.5,0.3-0.7,0.5c-0.2,0.2-0.4,0.5-0.5,0.8C92.1,154.8,92,155.2,92,155.5z"/>
		<path class="st4" d="M106.4,152.4h0.8l-2.7,6.3h-0.7l-1.3-3.2l-1.3,3.2h-0.7l-2.7-6.3h0.8l2.3,5.4l1.2-2.9l-1.1-2.5h0.7l0.8,2
			l0.8-2h0.7l-1.1,2.5l1.2,2.9L106.4,152.4z"/>
		<path class="st4" d="M113.6,158.6h-0.8v-3.5c0-0.7-0.1-1.3-0.3-1.6s-0.6-0.5-1-0.5c-0.2,0-0.5,0-0.7,0.1c-0.2,0.1-0.5,0.2-0.7,0.4
			c-0.2,0.2-0.4,0.4-0.5,0.6c-0.2,0.2-0.3,0.5-0.3,0.7v3.8h-0.8v-6.3h0.7v1.4c0.3-0.5,0.6-0.8,1.1-1.1c0.5-0.3,1-0.4,1.6-0.4
			c0.3,0,0.6,0.1,0.9,0.2s0.4,0.3,0.6,0.5c0.1,0.2,0.2,0.5,0.3,0.9c0.1,0.3,0.1,0.7,0.1,1.1V158.6z"/>
		<path class="st4" d="M115.4,149.9h0.8v7.3c0,0.2,0.1,0.4,0.2,0.5s0.3,0.2,0.5,0.2c0.1,0,0.2,0,0.3,0s0.2-0.1,0.3-0.1l0.1,0.7
			c-0.2,0.1-0.3,0.1-0.6,0.2s-0.4,0.1-0.6,0.1c-0.4,0-0.7-0.1-0.9-0.3s-0.3-0.5-0.3-0.9V149.9z"/>
		<path class="st4" d="M121.2,158.7c-0.5,0-0.9-0.1-1.2-0.3c-0.4-0.2-0.7-0.4-1-0.7s-0.5-0.6-0.6-1c-0.2-0.4-0.2-0.8-0.2-1.2
			c0-0.4,0.1-0.9,0.2-1.2c0.2-0.4,0.4-0.7,0.6-1c0.3-0.3,0.6-0.5,1-0.7s0.8-0.3,1.2-0.3c0.4,0,0.9,0.1,1.2,0.3s0.7,0.4,1,0.7
			s0.5,0.6,0.6,1c0.2,0.4,0.2,0.8,0.2,1.2c0,0.4-0.1,0.8-0.2,1.2c-0.2,0.4-0.4,0.7-0.6,1c-0.3,0.3-0.6,0.5-1,0.7
			C122.1,158.7,121.7,158.7,121.2,158.7z M119,155.5c0,0.4,0.1,0.7,0.2,1c0.1,0.3,0.3,0.6,0.5,0.8c0.2,0.2,0.4,0.4,0.7,0.5
			c0.3,0.1,0.6,0.2,0.9,0.2c0.3,0,0.6-0.1,0.9-0.2c0.3-0.1,0.5-0.3,0.7-0.5c0.2-0.2,0.4-0.5,0.5-0.8s0.2-0.6,0.2-1
			c0-0.3-0.1-0.7-0.2-1c-0.1-0.3-0.3-0.6-0.5-0.8c-0.2-0.2-0.5-0.4-0.7-0.5c-0.3-0.1-0.6-0.2-0.9-0.2c-0.3,0-0.6,0.1-0.9,0.2
			c-0.3,0.1-0.5,0.3-0.7,0.5c-0.2,0.2-0.4,0.5-0.5,0.8C119,154.8,119,155.2,119,155.5z"/>
		<path class="st4" d="M127.3,158.7c-0.3,0-0.6,0-0.8-0.2c-0.3-0.1-0.5-0.2-0.7-0.4c-0.2-0.2-0.3-0.4-0.4-0.6
			c-0.1-0.2-0.2-0.5-0.2-0.8c0-0.3,0.1-0.5,0.2-0.8c0.1-0.2,0.3-0.4,0.5-0.6s0.5-0.3,0.8-0.4c0.3-0.1,0.7-0.1,1.1-0.1
			c0.3,0,0.6,0,1,0.1c0.3,0.1,0.6,0.1,0.9,0.2v-0.6c0-0.6-0.2-1-0.5-1.3c-0.3-0.3-0.7-0.5-1.3-0.5c-0.3,0-0.6,0.1-1,0.2
			s-0.7,0.3-1,0.6l-0.3-0.5c0.8-0.5,1.6-0.8,2.4-0.8c0.8,0,1.4,0.2,1.8,0.7c0.4,0.4,0.7,1,0.7,1.8v2.8c0,0.2,0.1,0.3,0.3,0.3v0.7
			c-0.1,0-0.2,0-0.3,0c-0.2,0-0.4-0.1-0.5-0.2c-0.1-0.1-0.2-0.2-0.2-0.4l0-0.5c-0.3,0.4-0.6,0.7-1.1,0.9
			C128.3,158.6,127.8,158.7,127.3,158.7z M127.5,158.1c0.4,0,0.8-0.1,1.2-0.2c0.4-0.2,0.6-0.4,0.8-0.6c0.1-0.1,0.1-0.2,0.2-0.2
			s0.1-0.2,0.1-0.2v-1c-0.3-0.1-0.6-0.2-0.8-0.2c-0.3-0.1-0.6-0.1-0.9-0.1c-0.6,0-1,0.1-1.4,0.4c-0.4,0.2-0.5,0.6-0.5,0.9
			c0,0.2,0,0.4,0.1,0.5s0.2,0.3,0.3,0.4c0.1,0.1,0.3,0.2,0.5,0.3C127.1,158.1,127.3,158.1,127.5,158.1z"/>
		<path class="st4" d="M134.8,158.7c-0.4,0-0.8-0.1-1.2-0.3c-0.4-0.2-0.7-0.4-0.9-0.7c-0.3-0.3-0.5-0.6-0.6-1
			c-0.1-0.4-0.2-0.8-0.2-1.2c0-0.4,0.1-0.9,0.2-1.3c0.1-0.4,0.3-0.7,0.6-1c0.3-0.3,0.6-0.5,0.9-0.7c0.3-0.2,0.7-0.3,1.1-0.3
			c0.5,0,1,0.1,1.4,0.4c0.4,0.3,0.7,0.6,1,1v-3.8h0.8v7.7c0,0.2,0.1,0.3,0.3,0.3v0.7c-0.1,0-0.2,0-0.3,0c-0.2,0-0.4-0.1-0.5-0.2
			c-0.1-0.1-0.2-0.3-0.2-0.4v-0.6c-0.2,0.4-0.6,0.7-1,1S135.3,158.7,134.8,158.7z M135,158c0.2,0,0.4,0,0.6-0.1
			c0.2-0.1,0.4-0.2,0.6-0.3c0.2-0.1,0.4-0.3,0.5-0.5c0.1-0.2,0.2-0.4,0.3-0.6v-1.9c-0.1-0.2-0.2-0.4-0.3-0.6
			c-0.2-0.2-0.3-0.4-0.5-0.5c-0.2-0.1-0.4-0.3-0.6-0.3c-0.2-0.1-0.4-0.1-0.7-0.1c-0.3,0-0.6,0.1-0.9,0.2c-0.3,0.1-0.5,0.3-0.7,0.6
			c-0.2,0.2-0.3,0.5-0.5,0.8c-0.1,0.3-0.2,0.6-0.2,0.9c0,0.3,0.1,0.7,0.2,1c0.1,0.3,0.3,0.6,0.5,0.8c0.2,0.2,0.5,0.4,0.7,0.5
			C134.4,158,134.7,158,135,158z"/>
		<path class="st4" d="M141.8,158.7c-0.5,0-1-0.1-1.4-0.2s-0.9-0.4-1.2-0.7l0.4-0.6c0.4,0.3,0.7,0.5,1.1,0.6
			c0.4,0.1,0.8,0.2,1.2,0.2c0.5,0,0.9-0.1,1.2-0.3c0.3-0.2,0.5-0.5,0.5-0.9c0-0.2,0-0.3-0.1-0.4c-0.1-0.1-0.2-0.2-0.4-0.3
			c-0.2-0.1-0.4-0.2-0.6-0.2c-0.2-0.1-0.5-0.1-0.8-0.2c-0.4-0.1-0.7-0.2-0.9-0.3c-0.3-0.1-0.5-0.2-0.7-0.3c-0.2-0.1-0.3-0.2-0.4-0.4
			s-0.1-0.4-0.1-0.6c0-0.3,0.1-0.6,0.2-0.8s0.3-0.4,0.5-0.6c0.2-0.2,0.5-0.3,0.7-0.4c0.3-0.1,0.6-0.1,0.9-0.1c0.5,0,0.9,0.1,1.3,0.2
			c0.4,0.2,0.7,0.4,0.9,0.6l-0.4,0.5c-0.2-0.2-0.5-0.4-0.8-0.5s-0.7-0.2-1-0.2c-0.2,0-0.4,0-0.6,0.1c-0.2,0-0.3,0.1-0.5,0.2
			c-0.1,0.1-0.2,0.2-0.3,0.4c-0.1,0.1-0.1,0.3-0.1,0.5c0,0.2,0,0.3,0.1,0.4c0.1,0.1,0.1,0.2,0.3,0.3c0.1,0.1,0.3,0.1,0.5,0.2
			c0.2,0.1,0.4,0.1,0.7,0.2c0.4,0.1,0.8,0.2,1.1,0.3c0.3,0.1,0.6,0.2,0.8,0.3s0.4,0.3,0.5,0.5c0.1,0.2,0.2,0.4,0.2,0.7
			c0,0.6-0.2,1-0.7,1.4C143.1,158.6,142.5,158.7,141.8,158.7z"/>
	</g>
	<g class="st2">
		<path class="st4" d="M73,171.6l-1-1c-0.3,0.4-0.7,0.6-1.2,0.8c-0.4,0.2-0.9,0.3-1.4,0.3c-0.4,0-0.7-0.1-1.1-0.2
			c-0.3-0.1-0.6-0.3-0.9-0.5c-0.2-0.2-0.4-0.4-0.6-0.7c-0.1-0.3-0.2-0.6-0.2-0.9c0-0.3,0-0.6,0.1-0.8c0.1-0.2,0.2-0.5,0.4-0.7
			s0.4-0.4,0.6-0.6c0.2-0.2,0.4-0.3,0.7-0.5c-0.2-0.2-0.4-0.4-0.5-0.6c-0.1-0.2-0.3-0.4-0.4-0.5c-0.1-0.2-0.2-0.3-0.2-0.4
			c0-0.1-0.1-0.3-0.1-0.4c0-0.3,0.1-0.5,0.2-0.7c0.1-0.2,0.3-0.4,0.5-0.6s0.4-0.3,0.7-0.4c0.3-0.1,0.5-0.1,0.8-0.1
			c0.3,0,0.5,0,0.8,0.1c0.2,0.1,0.4,0.2,0.6,0.3c0.2,0.1,0.3,0.3,0.4,0.5s0.2,0.4,0.2,0.7s-0.1,0.5-0.1,0.7
			c-0.1,0.2-0.2,0.4-0.4,0.6c-0.2,0.2-0.4,0.4-0.6,0.5s-0.5,0.3-0.7,0.5l2.4,2.5c0.2-0.3,0.3-0.6,0.4-1c0.1-0.4,0.1-0.7,0.1-1.1h0.7
			c0,0.5-0.1,1-0.2,1.4c-0.1,0.4-0.3,0.8-0.5,1.2l1.6,1.7H73z M69.5,171.1c0.4,0,0.8-0.1,1.1-0.3c0.3-0.2,0.6-0.4,0.9-0.7l-2.6-2.7
			c-0.4,0.3-0.8,0.6-1.1,0.9c-0.3,0.3-0.4,0.7-0.4,1.1c0,0.3,0.1,0.5,0.2,0.7c0.1,0.2,0.3,0.4,0.5,0.5c0.2,0.1,0.4,0.2,0.6,0.3
			C69.1,171,69.3,171.1,69.5,171.1z M68.1,164.8c0,0.1,0,0.2,0,0.3c0,0.1,0.1,0.2,0.2,0.3c0.1,0.1,0.2,0.3,0.3,0.4
			c0.1,0.2,0.3,0.4,0.5,0.6c0.5-0.3,0.8-0.6,1.1-0.9c0.3-0.3,0.4-0.6,0.4-0.9c0-0.3-0.1-0.6-0.3-0.8c-0.2-0.2-0.5-0.3-0.9-0.3
			c-0.2,0-0.4,0-0.6,0.1c-0.2,0.1-0.3,0.2-0.4,0.3c-0.1,0.1-0.2,0.2-0.3,0.4C68.2,164.5,68.1,164.7,68.1,164.8z"/>
		<path class="st4" d="M80.1,171.7c-0.7,0-1.2-0.2-1.5-0.7s-0.5-1.1-0.5-2v-3.7h0.8v3.5c0,1.4,0.5,2.1,1.5,2.1c0.2,0,0.5,0,0.7-0.1
			s0.4-0.2,0.6-0.3c0.2-0.2,0.4-0.3,0.5-0.5c0.2-0.2,0.3-0.4,0.4-0.7v-3.9h0.8v5.2c0,0.2,0.1,0.3,0.3,0.3v0.7c-0.1,0-0.2,0-0.2,0
			s-0.1,0-0.1,0c-0.2,0-0.3-0.1-0.5-0.2c-0.1-0.1-0.2-0.3-0.2-0.5v-0.7c-0.3,0.5-0.6,0.9-1.1,1.1C81.1,171.6,80.6,171.7,80.1,171.7z
			"/>
		<path class="st4" d="M88.5,171.7c-0.5,0-1-0.1-1.4-0.4c-0.4-0.3-0.7-0.6-1-1v3.9h-0.8v-8.8H86v1.2c0.3-0.4,0.6-0.7,1-1
			s0.9-0.4,1.3-0.4c0.4,0,0.8,0.1,1.2,0.3s0.7,0.4,0.9,0.7s0.5,0.6,0.6,1c0.1,0.4,0.2,0.8,0.2,1.2c0,0.4-0.1,0.9-0.2,1.2
			c-0.1,0.4-0.3,0.7-0.6,1s-0.6,0.5-0.9,0.7S88.9,171.7,88.5,171.7z M88.2,171c0.3,0,0.6-0.1,0.9-0.2c0.3-0.1,0.5-0.3,0.7-0.6
			c0.2-0.2,0.3-0.5,0.5-0.8c0.1-0.3,0.2-0.6,0.2-0.9c0-0.3-0.1-0.7-0.2-1c-0.1-0.3-0.3-0.6-0.5-0.8c-0.2-0.2-0.5-0.4-0.7-0.6
			c-0.3-0.1-0.6-0.2-0.9-0.2c-0.2,0-0.4,0-0.7,0.1c-0.2,0.1-0.4,0.2-0.6,0.3c-0.2,0.1-0.4,0.3-0.5,0.5c-0.1,0.2-0.2,0.4-0.3,0.6v1.9
			c0.1,0.2,0.2,0.4,0.4,0.6c0.1,0.2,0.3,0.4,0.5,0.5s0.4,0.2,0.6,0.3C87.8,171,88,171,88.2,171z"/>
		<path class="st4" d="M92.7,162.9h0.8v7.3c0,0.2,0.1,0.4,0.2,0.5s0.3,0.2,0.5,0.2c0.1,0,0.2,0,0.3,0s0.2-0.1,0.3-0.1l0.1,0.7
			c-0.2,0.1-0.3,0.1-0.6,0.2s-0.4,0.1-0.6,0.1c-0.4,0-0.7-0.1-0.9-0.3s-0.3-0.5-0.3-0.9V162.9z"/>
		<path class="st4" d="M98.6,171.7c-0.5,0-0.9-0.1-1.2-0.3c-0.4-0.2-0.7-0.4-1-0.7s-0.5-0.6-0.6-1c-0.2-0.4-0.2-0.8-0.2-1.2
			c0-0.4,0.1-0.9,0.2-1.2c0.2-0.4,0.4-0.7,0.6-1c0.3-0.3,0.6-0.5,1-0.7c0.4-0.2,0.8-0.3,1.2-0.3c0.4,0,0.9,0.1,1.2,0.3
			s0.7,0.4,1,0.7s0.5,0.6,0.6,1c0.2,0.4,0.2,0.8,0.2,1.2c0,0.4-0.1,0.8-0.2,1.2c-0.2,0.4-0.4,0.7-0.6,1c-0.3,0.3-0.6,0.5-1,0.7
			C99.5,171.7,99.1,171.7,98.6,171.7z M96.3,168.5c0,0.4,0.1,0.7,0.2,1c0.1,0.3,0.3,0.6,0.5,0.8c0.2,0.2,0.4,0.4,0.7,0.5
			c0.3,0.1,0.6,0.2,0.9,0.2c0.3,0,0.6-0.1,0.9-0.2c0.3-0.1,0.5-0.3,0.7-0.5c0.2-0.2,0.4-0.5,0.5-0.8s0.2-0.6,0.2-1
			c0-0.3-0.1-0.7-0.2-1c-0.1-0.3-0.3-0.6-0.5-0.8c-0.2-0.2-0.5-0.4-0.7-0.5c-0.3-0.1-0.6-0.2-0.9-0.2c-0.3,0-0.6,0.1-0.9,0.2
			c-0.3,0.1-0.5,0.3-0.7,0.5c-0.2,0.2-0.4,0.5-0.5,0.8C96.4,167.8,96.3,168.2,96.3,168.5z"/>
		<path class="st4" d="M104.6,171.7c-0.3,0-0.6,0-0.8-0.2c-0.3-0.1-0.5-0.2-0.7-0.4c-0.2-0.2-0.3-0.4-0.4-0.6
			c-0.1-0.2-0.2-0.5-0.2-0.8c0-0.3,0.1-0.5,0.2-0.8c0.1-0.2,0.3-0.4,0.5-0.6s0.5-0.3,0.8-0.4c0.3-0.1,0.7-0.1,1.1-0.1
			c0.3,0,0.6,0,1,0.1c0.3,0.1,0.6,0.1,0.9,0.2v-0.6c0-0.6-0.2-1-0.5-1.3c-0.3-0.3-0.7-0.5-1.3-0.5c-0.3,0-0.6,0.1-1,0.2
			s-0.7,0.3-1,0.6l-0.3-0.5c0.8-0.5,1.6-0.8,2.4-0.8c0.8,0,1.4,0.2,1.8,0.7c0.4,0.4,0.7,1,0.7,1.8v2.8c0,0.2,0.1,0.3,0.3,0.3v0.7
			c-0.1,0-0.2,0-0.3,0c-0.2,0-0.4-0.1-0.5-0.2c-0.1-0.1-0.2-0.2-0.2-0.4l0-0.5c-0.3,0.4-0.6,0.7-1.1,0.9
			C105.6,171.6,105.1,171.7,104.6,171.7z M104.8,171.1c0.4,0,0.8-0.1,1.2-0.2c0.4-0.2,0.6-0.4,0.8-0.6c0.1-0.1,0.1-0.2,0.2-0.2
			s0.1-0.2,0.1-0.2v-1c-0.3-0.1-0.6-0.2-0.8-0.2c-0.3-0.1-0.6-0.1-0.9-0.1c-0.6,0-1,0.1-1.4,0.4c-0.4,0.2-0.5,0.6-0.5,0.9
			c0,0.2,0,0.4,0.1,0.5s0.2,0.3,0.3,0.4c0.1,0.1,0.3,0.2,0.5,0.3C104.4,171.1,104.6,171.1,104.8,171.1z"/>
		<path class="st4" d="M112.2,171.7c-0.4,0-0.8-0.1-1.2-0.3c-0.4-0.2-0.7-0.4-0.9-0.7c-0.3-0.3-0.5-0.6-0.6-1
			c-0.1-0.4-0.2-0.8-0.2-1.2c0-0.4,0.1-0.9,0.2-1.3c0.1-0.4,0.3-0.7,0.6-1c0.3-0.3,0.6-0.5,0.9-0.7c0.3-0.2,0.7-0.3,1.1-0.3
			c0.5,0,1,0.1,1.4,0.4c0.4,0.3,0.7,0.6,1,1v-3.8h0.8v7.7c0,0.2,0.1,0.3,0.3,0.3v0.7c-0.1,0-0.2,0-0.3,0c-0.2,0-0.4-0.1-0.5-0.2
			c-0.1-0.1-0.2-0.3-0.2-0.4v-0.6c-0.2,0.4-0.6,0.7-1,1S112.6,171.7,112.2,171.7z M112.4,171c0.2,0,0.4,0,0.6-0.1
			c0.2-0.1,0.4-0.2,0.6-0.3c0.2-0.1,0.4-0.3,0.5-0.5c0.1-0.2,0.2-0.4,0.3-0.6v-1.9c-0.1-0.2-0.2-0.4-0.3-0.6
			c-0.2-0.2-0.3-0.4-0.5-0.5c-0.2-0.1-0.4-0.3-0.6-0.3c-0.2-0.1-0.4-0.1-0.7-0.1c-0.3,0-0.6,0.1-0.9,0.2c-0.3,0.1-0.5,0.3-0.7,0.6
			c-0.2,0.2-0.3,0.5-0.5,0.8c-0.1,0.3-0.2,0.6-0.2,0.9c0,0.3,0.1,0.7,0.2,1c0.1,0.3,0.3,0.6,0.5,0.8c0.2,0.2,0.5,0.4,0.7,0.5
			C111.7,171,112,171,112.4,171z"/>
		<path class="st4" d="M119.2,171.7c-0.5,0-1-0.1-1.4-0.2s-0.9-0.4-1.2-0.7l0.4-0.6c0.4,0.3,0.7,0.5,1.1,0.6
			c0.4,0.1,0.8,0.2,1.2,0.2c0.5,0,0.9-0.1,1.2-0.3c0.3-0.2,0.5-0.5,0.5-0.9c0-0.2,0-0.3-0.1-0.4c-0.1-0.1-0.2-0.2-0.4-0.3
			c-0.2-0.1-0.4-0.2-0.6-0.2c-0.2-0.1-0.5-0.1-0.8-0.2c-0.4-0.1-0.7-0.2-0.9-0.3c-0.3-0.1-0.5-0.2-0.7-0.3c-0.2-0.1-0.3-0.2-0.4-0.4
			s-0.1-0.4-0.1-0.6c0-0.3,0.1-0.6,0.2-0.8s0.3-0.4,0.5-0.6c0.2-0.2,0.5-0.3,0.7-0.4c0.3-0.1,0.6-0.1,0.9-0.1c0.5,0,0.9,0.1,1.3,0.2
			c0.4,0.2,0.7,0.4,0.9,0.6l-0.4,0.5c-0.2-0.2-0.5-0.4-0.8-0.5s-0.7-0.2-1-0.2c-0.2,0-0.4,0-0.6,0.1c-0.2,0-0.3,0.1-0.5,0.2
			c-0.1,0.1-0.2,0.2-0.3,0.4c-0.1,0.1-0.1,0.3-0.1,0.5c0,0.2,0,0.3,0.1,0.4c0.1,0.1,0.1,0.2,0.3,0.3c0.1,0.1,0.3,0.1,0.5,0.2
			c0.2,0.1,0.4,0.1,0.7,0.2c0.4,0.1,0.8,0.2,1.1,0.3c0.3,0.1,0.6,0.2,0.8,0.3s0.4,0.3,0.5,0.5c0.1,0.2,0.2,0.4,0.2,0.7
			c0,0.6-0.2,1-0.7,1.4C120.5,171.6,119.9,171.7,119.2,171.7z"/>
		<path class="st4" d="M122.8,171.6v-1.2h0.7v1.2H122.8z"/>
	</g>
	<g>
		<path class="st3" d="M79.6,28h35.5c0.9,0,1.8,0.4,2.4,1s1,1.5,1,2.4v46.8c0,0.9-0.4,1.8-1,2.4s-1.5,1-2.4,1H79.6
			c-0.9,0-1.8-0.4-2.4-1s-1-1.5-1-2.4V31.4c0-0.9,0.4-1.8,1-2.4C77.8,28.3,78.7,28,79.6,28z M115.1,29.6H79.6
			c-0.5,0-0.9,0.2-1.2,0.5c-0.3,0.3-0.5,0.8-0.5,1.2v46.8c0,0.5,0.2,0.9,0.5,1.2c0.3,0.3,0.8,0.5,1.2,0.5h35.5
			c0.5,0,0.9-0.2,1.2-0.5c0.3-0.3,0.5-0.8,0.5-1.2V31.4c0-0.5-0.2-0.9-0.5-1.2C116.1,29.8,115.6,29.6,115.1,29.6z"/>
		<path class="st3" d="M85.2,33.8H88c0.6,0,1.2,0.3,1.6,0.7s0.7,1,0.7,1.6V39c0,0.6-0.3,1.2-0.7,1.6c-0.4,0.4-1,0.7-1.6,0.7h-2.9
			c-0.6,0-1.2-0.3-1.6-0.7s-0.7-1-0.7-1.6v-2.9c0-0.6,0.3-1.2,0.7-1.6C83.9,34.1,84.5,33.8,85.2,33.8z M88,35.5h-2.9
			c-0.2,0-0.3,0.1-0.5,0.2c-0.1,0.1-0.2,0.3-0.2,0.5V39c0,0.2,0.1,0.3,0.2,0.5c0.1,0.1,0.3,0.2,0.5,0.2H88c0.2,0,0.3-0.1,0.5-0.2
			c0.1-0.1,0.2-0.3,0.2-0.5v-2.9c0-0.2-0.1-0.3-0.2-0.5C88.4,35.5,88.2,35.5,88,35.5z"/>
		<path class="st3" d="M85.2,45.3H88c0.6,0,1.2,0.3,1.6,0.7s0.7,1,0.7,1.6v2.9c0,0.6-0.3,1.2-0.7,1.6c-0.4,0.4-1,0.7-1.6,0.7h-2.9
			c-0.6,0-1.2-0.3-1.6-0.7s-0.7-1-0.7-1.6v-2.9c0-0.6,0.3-1.2,0.7-1.6C83.9,45.6,84.5,45.3,85.2,45.3z M88,47h-2.9
			c-0.2,0-0.3,0.1-0.5,0.2c-0.1,0.1-0.2,0.3-0.2,0.5v2.9c0,0.2,0.1,0.3,0.2,0.5c0.1,0.1,0.3,0.2,0.5,0.2H88c0.2,0,0.3-0.1,0.5-0.2
			c0.1-0.1,0.2-0.3,0.2-0.5v-2.9c0-0.2-0.1-0.3-0.2-0.5C88.4,47.1,88.2,47,88,47z"/>
		<path class="st3" d="M85.2,56.8H88c0.6,0,1.2,0.3,1.6,0.7s0.7,1,0.7,1.6V62c0,0.6-0.3,1.2-0.7,1.6c-0.4,0.4-1,0.7-1.6,0.7h-2.9
			c-0.6,0-1.2-0.3-1.6-0.7s-0.7-1-0.7-1.6v-2.9c0-0.6,0.3-1.2,0.7-1.6C83.9,57.1,84.5,56.8,85.2,56.8z M88,58.5h-2.9
			c-0.2,0-0.3,0.1-0.5,0.2c-0.1,0.1-0.2,0.3-0.2,0.5V62c0,0.2,0.1,0.3,0.2,0.5c0.1,0.1,0.3,0.2,0.5,0.2H88c0.2,0,0.3-0.1,0.5-0.2
			c0.1-0.1,0.2-0.3,0.2-0.5v-2.9c0-0.2-0.1-0.3-0.2-0.5C88.4,58.6,88.2,58.5,88,58.5z"/>
		<path class="st3" d="M85.2,68.3H88c0.6,0,1.2,0.3,1.6,0.7c0.4,0.4,0.7,1,0.7,1.6v2.9c0,0.6-0.3,1.2-0.7,1.6
			c-0.4,0.4-1,0.7-1.6,0.7h-2.9c-0.6,0-1.2-0.3-1.6-0.7c-0.4-0.4-0.7-1-0.7-1.6v-2.9c0-0.6,0.3-1.2,0.7-1.6
			C83.9,68.6,84.5,68.3,85.2,68.3z M88,70h-2.9c-0.2,0-0.3,0.1-0.5,0.2c-0.1,0.1-0.2,0.3-0.2,0.5v2.9c0,0.2,0.1,0.3,0.2,0.5
			c0.1,0.1,0.3,0.2,0.5,0.2H88c0.2,0,0.3-0.1,0.5-0.2c0.1-0.1,0.2-0.3,0.2-0.5v-2.9c0-0.2-0.1-0.3-0.2-0.5C88.4,70.1,88.2,70,88,70z
			"/>
		<path class="st3" d="M93.2,40.2c-0.5,0-0.8,0.4-0.8,0.8c0,0.5,0.4,0.8,0.8,0.8h17.2c0.5,0,0.8-0.4,0.8-0.8c0-0.5-0.4-0.8-0.8-0.8
			H93.2z"/>
		<path class="st3" d="M99.2,36.4c-0.3-0.3-0.9-0.3-1.2,0c-0.3,0.3-0.3,0.9,0,1.2l1.7,1.7l0,0c0.3,0.3,0.9,0.3,1.2,0l0,0l4.6-4.6
			c0.3-0.3,0.3-0.9,0-1.2s-0.9-0.3-1.2,0l-4.1,4.1L99.2,36.4L99.2,36.4z"/>
		<path class="st3" d="M93.2,51.7c-0.5,0-0.8,0.4-0.8,0.8c0,0.5,0.4,0.8,0.8,0.8h17.2c0.5,0,0.8-0.4,0.8-0.8c0-0.5-0.4-0.8-0.8-0.8
			H93.2z"/>
		<path class="st3" d="M99.2,48c-0.3-0.3-0.9-0.3-1.2,0c-0.3,0.3-0.3,0.9,0,1.2l1.7,1.7l0,0c0.3,0.3,0.9,0.3,1.2,0l0,0l4.6-4.6
			c0.3-0.3,0.3-0.9,0-1.2s-0.9-0.3-1.2,0l-4.1,4.1L99.2,48L99.2,48z"/>
		<path class="st3" d="M93.2,63.2c-0.5,0-0.8,0.4-0.8,0.8c0,0.5,0.4,0.8,0.8,0.8h17.2c0.5,0,0.8-0.4,0.8-0.8c0-0.5-0.4-0.8-0.8-0.8
			H93.2z"/>
		<path class="st3" d="M99.2,59.5c-0.3-0.3-0.9-0.3-1.2,0c-0.3,0.3-0.3,0.9,0,1.2l1.7,1.7l0,0c0.3,0.3,0.9,0.3,1.2,0l0,0l4.6-4.6
			c0.3-0.3,0.3-0.9,0-1.2s-0.9-0.3-1.2,0l-4.1,4.1L99.2,59.5L99.2,59.5z"/>
		<path class="st3" d="M93.2,74.7c-0.5,0-0.8,0.4-0.8,0.8s0.4,0.8,0.8,0.8h17.2c0.5,0,0.8-0.4,0.8-0.8s-0.4-0.8-0.8-0.8H93.2z"/>
		<path class="st3" d="M99.2,71c-0.3-0.3-0.9-0.3-1.2,0c-0.3,0.3-0.3,0.9,0,1.2l1.7,1.7l0,0c0.3,0.3,0.9,0.3,1.2,0l0,0l4.6-4.6
			c0.3-0.3,0.3-0.9,0-1.2c-0.3-0.3-0.9-0.3-1.2,0l-4.1,4.1L99.2,71L99.2,71z"/>
	</g>
	<rect x="61.6" y="19" class="st1" width="71.6" height="71.6"/>
</g>
</svg>
