<?xml version="1.0" encoding="utf-8"?>
<!-- Generator: Adobe Illustrator 24.3.0, SVG Export Plug-In . SVG Version: 6.00 Build 0)  -->
<svg version="1.1" id="Layer_1" xmlns="http://www.w3.org/2000/svg" xmlns:xlink="http://www.w3.org/1999/xlink" x="0px" y="0px"
	 viewBox="0 0 13 13" style="enable-background:new 0 0 13 13;" xml:space="preserve">
<style type="text/css">
	.st0{fill:#FFFFFF;}
</style>
<path class="st0" d="M6.4,0.2C4.6,0.2,3,0.9,1.8,2.2V1.5H0.1v4h4V3.8H2.6c1.3-1.9,3.9-2.5,6-1.4C9.7,3,10.5,4,10.9,5.1
	c0.3,1.2,0.3,2.5-0.3,3.5c-1.2,2.3-4,3.1-6.2,1.9C3,9.9,2.2,8.7,2,7.4H0.3c0.5,3.1,3.1,5.4,6.2,5.4c3.5,0,6.3-2.9,6.3-6.3
	C12.7,3,10,0.2,6.4,0.2z"/>
</svg>
