<?xml version="1.0" encoding="utf-8"?>
<!-- Generator: Adobe Illustrator 24.3.0, SVG Export Plug-In . SVG Version: 6.00 Build 0)  -->
<svg version="1.1" id="Layer_1" xmlns="http://www.w3.org/2000/svg" xmlns:xlink="http://www.w3.org/1999/xlink" x="0px" y="0px"
	 viewBox="0 0 193 193" style="enable-background:new 0 0 193 193;" xml:space="preserve">
<style type="text/css">
	.st0{fill:#FFFFFF;}
	.st1{fill:none;}
	.st2{enable-background:new    ;}
	.st3{fill:#F08E25;}
	.st4{fill:#AF5B00;}
</style>
<g id="Layer_1_1_">
	<circle class="st0" cx="96.5" cy="96.5" r="96.1"/>
</g>
<g id="Layer_2_copy">
	<rect x="36.1" y="90.9" class="st1" width="120.8" height="35"/>
	<g class="st2">
		<path class="st3" d="M74.6,101.5c0.5,0,1-0.1,1.4-0.3c0.4-0.2,0.8-0.4,1.1-0.8s0.5-0.7,0.7-1.2c0.2-0.5,0.2-0.9,0.2-1.5V90h1.7
			v7.8c0,0.7-0.1,1.4-0.4,2.1c-0.2,0.6-0.6,1.2-1,1.7c-0.4,0.5-1,0.8-1.6,1.1c-0.6,0.3-1.4,0.4-2.1,0.4s-1.5-0.1-2.1-0.4
			c-0.6-0.3-1.2-0.6-1.6-1.1c-0.4-0.5-0.8-1-1-1.7c-0.2-0.6-0.4-1.3-0.4-2.1V90h1.7v7.8c0,0.5,0.1,1,0.2,1.5
			c0.2,0.5,0.4,0.8,0.7,1.2s0.6,0.6,1.1,0.8C73.6,101.4,74,101.5,74.6,101.5z"/>
		<path class="st3" d="M82.4,106V93.8h1c0.2,0,0.4,0.1,0.4,0.3l0.1,1.1c0.4-0.5,0.8-0.9,1.3-1.1s1.1-0.4,1.7-0.4
			c0.5,0,1,0.1,1.4,0.3c0.4,0.2,0.8,0.5,1.1,0.9c0.3,0.4,0.5,0.9,0.7,1.5s0.2,1.3,0.2,2c0,0.7-0.1,1.3-0.3,1.9s-0.4,1.1-0.8,1.5
			s-0.7,0.8-1.2,1c-0.5,0.2-1,0.4-1.7,0.4c-0.6,0-1-0.1-1.4-0.3c-0.4-0.2-0.8-0.4-1.1-0.8v4H82.4z M86.5,94.9c-0.5,0-1,0.1-1.4,0.4
			s-0.8,0.6-1.1,1v4.4c0.3,0.4,0.6,0.7,1,0.8c0.4,0.2,0.7,0.2,1.2,0.2c0.8,0,1.5-0.3,2-0.9c0.5-0.6,0.7-1.5,0.7-2.6
			c0-0.6-0.1-1.1-0.2-1.5c-0.1-0.4-0.3-0.8-0.5-1c-0.2-0.3-0.4-0.5-0.7-0.6S86.9,94.9,86.5,94.9z"/>
		<path class="st3" d="M94.2,89.7v13.3h-1.6V89.7H94.2z"/>
		<path class="st3" d="M100.7,93.7c0.7,0,1.3,0.1,1.8,0.3c0.5,0.2,1,0.5,1.4,0.9c0.4,0.4,0.7,0.9,0.9,1.5c0.2,0.6,0.3,1.2,0.3,1.9
			c0,0.7-0.1,1.4-0.3,1.9c-0.2,0.6-0.5,1.1-0.9,1.5c-0.4,0.4-0.8,0.7-1.4,0.9c-0.5,0.2-1.1,0.3-1.8,0.3s-1.3-0.1-1.8-0.3
			c-0.5-0.2-1-0.5-1.4-0.9c-0.4-0.4-0.7-0.9-0.9-1.5s-0.3-1.2-0.3-1.9c0-0.7,0.1-1.4,0.3-1.9c0.2-0.6,0.5-1.1,0.9-1.5
			c0.4-0.4,0.8-0.7,1.4-0.9C99.4,93.8,100,93.7,100.7,93.7z M100.7,101.8c0.9,0,1.6-0.3,2-0.9c0.4-0.6,0.7-1.4,0.7-2.5
			c0-1.1-0.2-1.9-0.7-2.5c-0.4-0.6-1.1-0.9-2-0.9c-0.5,0-0.9,0.1-1.2,0.2c-0.3,0.2-0.6,0.4-0.8,0.7c-0.2,0.3-0.4,0.7-0.5,1.1
			C98,97.3,98,97.8,98,98.4s0.1,1,0.2,1.4c0.1,0.4,0.3,0.8,0.5,1.1c0.2,0.3,0.5,0.5,0.8,0.7C99.8,101.7,100.2,101.8,100.7,101.8z"/>
		<path class="st3" d="M113.7,102.9H113c-0.2,0-0.3,0-0.4-0.1c-0.1,0-0.2-0.1-0.2-0.3l-0.2-0.8c-0.2,0.2-0.5,0.4-0.7,0.6
			c-0.2,0.2-0.5,0.3-0.7,0.4c-0.3,0.1-0.5,0.2-0.8,0.3c-0.3,0.1-0.6,0.1-0.9,0.1c-0.4,0-0.7,0-1-0.1c-0.3-0.1-0.6-0.2-0.8-0.4
			c-0.2-0.2-0.4-0.5-0.5-0.8s-0.2-0.7-0.2-1.1c0-0.4,0.1-0.7,0.3-1s0.5-0.6,1-0.9c0.4-0.3,1-0.5,1.7-0.6c0.7-0.2,1.6-0.2,2.6-0.2
			v-0.7c0-0.7-0.2-1.3-0.5-1.6c-0.3-0.4-0.8-0.5-1.3-0.5c-0.4,0-0.7,0-1,0.1c-0.3,0.1-0.5,0.2-0.7,0.3c-0.2,0.1-0.4,0.2-0.5,0.3
			c-0.1,0.1-0.3,0.1-0.4,0.1c-0.1,0-0.2,0-0.3-0.1c-0.1-0.1-0.1-0.1-0.2-0.2l-0.3-0.5c0.5-0.5,1-0.8,1.6-1.1
			c0.6-0.2,1.2-0.4,1.9-0.4c0.5,0,1,0.1,1.4,0.3c0.4,0.2,0.7,0.4,1,0.7c0.3,0.3,0.5,0.7,0.6,1.1c0.1,0.4,0.2,0.9,0.2,1.4V102.9z
			 M109.5,101.9c0.3,0,0.5,0,0.8-0.1s0.5-0.1,0.7-0.2c0.2-0.1,0.4-0.2,0.6-0.4c0.2-0.1,0.4-0.3,0.6-0.5v-1.9c-0.7,0-1.4,0-1.9,0.1
			c-0.5,0.1-0.9,0.2-1.3,0.4c-0.3,0.2-0.6,0.3-0.7,0.5c-0.1,0.2-0.2,0.4-0.2,0.7c0,0.2,0,0.5,0.1,0.6c0.1,0.2,0.2,0.3,0.3,0.4
			c0.1,0.1,0.3,0.2,0.5,0.2C109.1,101.9,109.3,101.9,109.5,101.9z"/>
		<path class="st3" d="M122.5,102.9c-0.2,0-0.4-0.1-0.4-0.3l-0.1-1.1c-0.4,0.5-0.8,0.9-1.3,1.1c-0.5,0.3-1.1,0.4-1.7,0.4
			c-0.5,0-1-0.1-1.4-0.3c-0.4-0.2-0.8-0.5-1.1-0.9c-0.3-0.4-0.5-0.9-0.7-1.5s-0.2-1.3-0.2-2c0-0.7,0.1-1.3,0.3-1.9
			c0.2-0.6,0.4-1.1,0.8-1.5s0.8-0.8,1.2-1c0.5-0.2,1-0.4,1.7-0.4c0.6,0,1,0.1,1.4,0.3c0.4,0.2,0.7,0.5,1.1,0.8v-5.1h1.6v13.3H122.5z
			 M119.4,101.8c0.5,0,1-0.1,1.4-0.4c0.4-0.2,0.8-0.6,1.1-1V96c-0.3-0.4-0.6-0.7-1-0.8c-0.4-0.2-0.7-0.2-1.2-0.2
			c-0.9,0-1.5,0.3-2,0.9c-0.5,0.6-0.7,1.5-0.7,2.6c0,0.6,0.1,1.1,0.2,1.5c0.1,0.4,0.3,0.8,0.5,1c0.2,0.3,0.4,0.5,0.7,0.6
			S119.1,101.8,119.4,101.8z"/>
	</g>
	<g class="st2">
		<path class="st3" d="M63.6,115.5v5.1h-1.7v-5.1l-4.7-7.8h1.5c0.2,0,0.3,0,0.4,0.1c0.1,0.1,0.2,0.2,0.2,0.3l3,5
			c0.1,0.2,0.2,0.4,0.3,0.6c0.1,0.2,0.2,0.4,0.2,0.5c0.1-0.2,0.1-0.4,0.2-0.6c0.1-0.2,0.2-0.4,0.3-0.6l2.9-5
			c0.1-0.1,0.1-0.2,0.2-0.3c0.1-0.1,0.2-0.1,0.4-0.1h1.5L63.6,115.5z"/>
		<path class="st3" d="M72,111.4c0.7,0,1.3,0.1,1.8,0.3c0.5,0.2,1,0.5,1.4,0.9c0.4,0.4,0.7,0.9,0.9,1.5c0.2,0.6,0.3,1.2,0.3,1.9
			c0,0.7-0.1,1.4-0.3,1.9c-0.2,0.6-0.5,1.1-0.9,1.5c-0.4,0.4-0.8,0.7-1.4,0.9c-0.5,0.2-1.1,0.3-1.8,0.3s-1.3-0.1-1.8-0.3
			c-0.5-0.2-1-0.5-1.4-0.9c-0.4-0.4-0.7-0.9-0.9-1.5c-0.2-0.6-0.3-1.2-0.3-1.9c0-0.7,0.1-1.4,0.3-1.9c0.2-0.6,0.5-1.1,0.9-1.5
			c0.4-0.4,0.8-0.7,1.4-0.9C70.7,111.5,71.3,111.4,72,111.4z M72,119.5c0.9,0,1.6-0.3,2-0.9c0.4-0.6,0.7-1.4,0.7-2.5
			c0-1.1-0.2-1.9-0.7-2.5c-0.4-0.6-1.1-0.9-2-0.9c-0.5,0-0.9,0.1-1.2,0.2c-0.3,0.2-0.6,0.4-0.8,0.7s-0.4,0.7-0.5,1.1
			c-0.1,0.4-0.2,0.9-0.2,1.5s0.1,1,0.2,1.4c0.1,0.4,0.3,0.8,0.5,1.1s0.5,0.5,0.8,0.7C71.1,119.4,71.5,119.5,72,119.5z"/>
		<path class="st3" d="M79.7,111.5v5.8c0,0.7,0.2,1.2,0.5,1.6c0.3,0.4,0.8,0.6,1.4,0.6c0.5,0,0.9-0.1,1.3-0.3s0.8-0.5,1.1-0.9v-6.7
			h1.6v9.1h-1c-0.2,0-0.4-0.1-0.4-0.3l-0.1-1c-0.4,0.4-0.8,0.8-1.3,1.1c-0.5,0.3-1.1,0.4-1.7,0.4c-0.5,0-0.9-0.1-1.3-0.2
			s-0.7-0.4-1-0.7s-0.5-0.7-0.6-1.1c-0.1-0.4-0.2-0.9-0.2-1.4v-5.8H79.7z"/>
		<path class="st3" d="M88.3,120.6v-9.1h0.9c0.2,0,0.3,0,0.4,0.1c0.1,0.1,0.1,0.2,0.1,0.3l0.1,1.4c0.3-0.6,0.7-1.1,1.2-1.5
			c0.5-0.4,1-0.5,1.6-0.5c0.3,0,0.5,0,0.7,0.1s0.4,0.1,0.6,0.2l-0.2,1.2c0,0.1-0.1,0.2-0.3,0.2c-0.1,0-0.2,0-0.4-0.1
			c-0.2-0.1-0.4-0.1-0.7-0.1c-0.6,0-1,0.2-1.4,0.5s-0.7,0.8-0.9,1.4v5.8H88.3z"/>
		<path class="st3" d="M110.5,114.2c0,1-0.2,1.8-0.5,2.6c-0.3,0.8-0.7,1.5-1.3,2c-0.6,0.6-1.2,1-2,1.3c-0.8,0.3-1.6,0.5-2.6,0.5
			h-4.8v-12.9h4.8c0.9,0,1.8,0.2,2.6,0.5c0.8,0.3,1.4,0.7,2,1.3c0.6,0.6,1,1.2,1.3,2C110.3,112.3,110.5,113.2,110.5,114.2z
			 M108.7,114.2c0-0.8-0.1-1.5-0.3-2.1s-0.5-1.2-0.9-1.6c-0.4-0.4-0.9-0.8-1.4-1c-0.6-0.2-1.2-0.3-1.9-0.3H101v10.1h3.1
			c0.7,0,1.3-0.1,1.9-0.3c0.6-0.2,1-0.6,1.4-1c0.4-0.4,0.7-1,0.9-1.6S108.7,115,108.7,114.2z"/>
		<path class="st3" d="M119.3,120.6h-0.7c-0.2,0-0.3,0-0.4-0.1c-0.1,0-0.2-0.1-0.2-0.3l-0.2-0.8c-0.2,0.2-0.5,0.4-0.7,0.6
			c-0.2,0.2-0.5,0.3-0.7,0.4c-0.3,0.1-0.5,0.2-0.8,0.3c-0.3,0.1-0.6,0.1-0.9,0.1c-0.4,0-0.7,0-1-0.1c-0.3-0.1-0.6-0.2-0.8-0.4
			c-0.2-0.2-0.4-0.5-0.5-0.8s-0.2-0.7-0.2-1.1c0-0.4,0.1-0.7,0.3-1s0.5-0.6,1-0.9c0.4-0.3,1-0.5,1.7-0.6c0.7-0.2,1.6-0.2,2.6-0.2
			v-0.7c0-0.7-0.2-1.3-0.5-1.6c-0.3-0.4-0.8-0.5-1.3-0.5c-0.4,0-0.7,0-1,0.1c-0.3,0.1-0.5,0.2-0.7,0.3c-0.2,0.1-0.4,0.2-0.5,0.3
			c-0.1,0.1-0.3,0.1-0.4,0.1c-0.1,0-0.2,0-0.3-0.1c-0.1-0.1-0.1-0.1-0.2-0.2l-0.3-0.5c0.5-0.5,1-0.8,1.6-1.1
			c0.6-0.2,1.2-0.4,1.9-0.4c0.5,0,1,0.1,1.4,0.3c0.4,0.2,0.7,0.4,1,0.7c0.3,0.3,0.5,0.7,0.6,1.1c0.1,0.4,0.2,0.9,0.2,1.4V120.6z
			 M115.1,119.6c0.3,0,0.5,0,0.8-0.1s0.5-0.1,0.7-0.2c0.2-0.1,0.4-0.2,0.6-0.4c0.2-0.1,0.4-0.3,0.6-0.5v-1.9c-0.7,0-1.4,0-1.9,0.1
			c-0.5,0.1-0.9,0.2-1.3,0.4c-0.3,0.2-0.6,0.3-0.7,0.5c-0.1,0.2-0.2,0.4-0.2,0.7c0,0.2,0,0.5,0.1,0.6c0.1,0.2,0.2,0.3,0.3,0.4
			c0.1,0.1,0.3,0.2,0.5,0.2C114.7,119.6,114.9,119.6,115.1,119.6z"/>
		<path class="st3" d="M124.5,120.8c-0.7,0-1.3-0.2-1.7-0.6c-0.4-0.4-0.6-1-0.6-1.7v-5.6h-1.1c-0.1,0-0.2,0-0.2-0.1
			c-0.1-0.1-0.1-0.1-0.1-0.3v-0.6l1.5-0.2l0.4-2.8c0-0.1,0.1-0.2,0.1-0.2c0.1-0.1,0.2-0.1,0.3-0.1h0.8v3.1h2.6v1.2h-2.6v5.5
			c0,0.4,0.1,0.7,0.3,0.9c0.2,0.2,0.4,0.3,0.7,0.3c0.2,0,0.3,0,0.4-0.1s0.2-0.1,0.3-0.1c0.1-0.1,0.2-0.1,0.2-0.1
			c0.1,0,0.1-0.1,0.2-0.1c0.1,0,0.2,0.1,0.2,0.2l0.5,0.8c-0.3,0.3-0.6,0.5-1,0.6C125.3,120.7,124.9,120.8,124.5,120.8z"/>
		<path class="st3" d="M135.1,120.6h-0.7c-0.2,0-0.3,0-0.4-0.1c-0.1,0-0.2-0.1-0.2-0.3l-0.2-0.8c-0.2,0.2-0.5,0.4-0.7,0.6
			c-0.2,0.2-0.5,0.3-0.7,0.4c-0.3,0.1-0.5,0.2-0.8,0.3c-0.3,0.1-0.6,0.1-0.9,0.1c-0.4,0-0.7,0-1-0.1c-0.3-0.1-0.6-0.2-0.8-0.4
			c-0.2-0.2-0.4-0.5-0.5-0.8s-0.2-0.7-0.2-1.1c0-0.4,0.1-0.7,0.3-1s0.5-0.6,1-0.9c0.4-0.3,1-0.5,1.7-0.6c0.7-0.2,1.6-0.2,2.6-0.2
			v-0.7c0-0.7-0.2-1.3-0.5-1.6c-0.3-0.4-0.8-0.5-1.3-0.5c-0.4,0-0.7,0-1,0.1c-0.3,0.1-0.5,0.2-0.7,0.3c-0.2,0.1-0.4,0.2-0.5,0.3
			c-0.1,0.1-0.3,0.1-0.4,0.1c-0.1,0-0.2,0-0.3-0.1c-0.1-0.1-0.1-0.1-0.2-0.2l-0.3-0.5c0.5-0.5,1-0.8,1.6-1.1
			c0.6-0.2,1.2-0.4,1.9-0.4c0.5,0,1,0.1,1.4,0.3c0.4,0.2,0.7,0.4,1,0.7c0.3,0.3,0.5,0.7,0.6,1.1c0.1,0.4,0.2,0.9,0.2,1.4V120.6z
			 M131,119.6c0.3,0,0.5,0,0.8-0.1s0.5-0.1,0.7-0.2c0.2-0.1,0.4-0.2,0.6-0.4c0.2-0.1,0.4-0.3,0.6-0.5v-1.9c-0.7,0-1.4,0-1.9,0.1
			c-0.5,0.1-0.9,0.2-1.3,0.4c-0.3,0.2-0.6,0.3-0.7,0.5c-0.1,0.2-0.2,0.4-0.2,0.7c0,0.2,0,0.5,0.1,0.6c0.1,0.2,0.2,0.3,0.3,0.4
			c0.1,0.1,0.3,0.2,0.5,0.2C130.6,119.6,130.7,119.6,131,119.6z"/>
	</g>
	<rect x="20.3" y="136.9" class="st1" width="152.5" height="44.2"/>
	<g class="st2">
		<path class="st4" d="M53,137.1h0.6l3.2,7.8h-0.8l-1-2.4h-3.5l-1,2.4h-0.8L53,137.1z M54.9,141.8l-1.6-3.9l-1.6,3.9H54.9z"/>
		<path class="st4" d="M60,145c-0.4,0-0.8-0.1-1.1-0.2c-0.3-0.2-0.6-0.4-0.9-0.7s-0.4-0.6-0.6-0.9s-0.2-0.7-0.2-1.1
			c0-0.4,0.1-0.8,0.2-1.1c0.1-0.4,0.3-0.7,0.5-1s0.5-0.5,0.8-0.6c0.3-0.2,0.7-0.2,1.1-0.2c0.5,0,0.9,0.1,1.3,0.4s0.7,0.6,0.9,0.9
			v-3.5h0.7v7.1c0,0.2,0.1,0.3,0.3,0.3v0.7c-0.1,0-0.2,0-0.3,0c-0.2,0-0.3-0.1-0.5-0.2c-0.1-0.1-0.2-0.3-0.2-0.4v-0.6
			c-0.2,0.4-0.5,0.7-0.9,0.9C60.8,144.9,60.4,145,60,145z M60.2,144.3c0.2,0,0.4,0,0.6-0.1s0.4-0.2,0.6-0.3c0.2-0.1,0.3-0.3,0.5-0.5
			c0.1-0.2,0.2-0.4,0.2-0.6v-1.8c-0.1-0.2-0.2-0.4-0.3-0.6c-0.1-0.2-0.3-0.3-0.5-0.5c-0.2-0.1-0.4-0.2-0.6-0.3
			c-0.2-0.1-0.4-0.1-0.6-0.1c-0.3,0-0.6,0.1-0.8,0.2c-0.2,0.1-0.5,0.3-0.6,0.5c-0.2,0.2-0.3,0.5-0.4,0.7c-0.1,0.3-0.1,0.6-0.1,0.9
			c0,0.3,0.1,0.6,0.2,0.9c0.1,0.3,0.3,0.5,0.5,0.7c0.2,0.2,0.4,0.4,0.7,0.5C59.6,144.3,59.9,144.3,60.2,144.3z"/>
		<path class="st4" d="M66.9,145c-0.4,0-0.8-0.1-1.1-0.2c-0.3-0.2-0.6-0.4-0.9-0.7s-0.4-0.6-0.6-0.9s-0.2-0.7-0.2-1.1
			c0-0.4,0.1-0.8,0.2-1.1c0.1-0.4,0.3-0.7,0.5-1s0.5-0.5,0.8-0.6c0.3-0.2,0.7-0.2,1.1-0.2c0.5,0,0.9,0.1,1.3,0.4s0.7,0.6,0.9,0.9
			v-3.5h0.7v7.1c0,0.2,0.1,0.3,0.3,0.3v0.7c-0.1,0-0.2,0-0.3,0c-0.2,0-0.3-0.1-0.5-0.2c-0.1-0.1-0.2-0.3-0.2-0.4v-0.6
			c-0.2,0.4-0.5,0.7-0.9,0.9C67.7,144.9,67.3,145,66.9,145z M67,144.3c0.2,0,0.4,0,0.6-0.1s0.4-0.2,0.6-0.3c0.2-0.1,0.3-0.3,0.5-0.5
			c0.1-0.2,0.2-0.4,0.2-0.6v-1.8c-0.1-0.2-0.2-0.4-0.3-0.6c-0.1-0.2-0.3-0.3-0.5-0.5c-0.2-0.1-0.4-0.2-0.6-0.3
			c-0.2-0.1-0.4-0.1-0.6-0.1c-0.3,0-0.6,0.1-0.8,0.2c-0.2,0.1-0.5,0.3-0.6,0.5c-0.2,0.2-0.3,0.5-0.4,0.7c-0.1,0.3-0.1,0.6-0.1,0.9
			c0,0.3,0.1,0.6,0.2,0.9c0.1,0.3,0.3,0.5,0.5,0.7c0.2,0.2,0.4,0.4,0.7,0.5C66.5,144.3,66.7,144.3,67,144.3z"/>
		<path class="st4" d="M73.8,142c0-0.4,0.1-0.8,0.2-1.1c0.1-0.4,0.3-0.7,0.6-0.9c0.3-0.3,0.6-0.5,0.9-0.6c0.4-0.2,0.7-0.2,1.2-0.2
			c0.5,0,1,0.1,1.4,0.4c0.4,0.2,0.7,0.6,0.9,1l-0.7,0.2c-0.2-0.3-0.4-0.5-0.7-0.7s-0.6-0.2-1-0.2c-0.3,0-0.6,0.1-0.8,0.2
			s-0.5,0.3-0.7,0.5c-0.2,0.2-0.3,0.4-0.4,0.7s-0.2,0.6-0.2,0.9c0,0.3,0.1,0.6,0.2,0.9c0.1,0.3,0.3,0.5,0.5,0.7s0.4,0.4,0.7,0.5
			s0.5,0.2,0.8,0.2c0.2,0,0.4,0,0.5-0.1c0.2-0.1,0.3-0.1,0.5-0.2c0.2-0.1,0.3-0.2,0.4-0.3c0.1-0.1,0.2-0.2,0.2-0.4l0.7,0.2
			c-0.1,0.2-0.2,0.4-0.4,0.6c-0.2,0.2-0.3,0.3-0.5,0.5c-0.2,0.1-0.4,0.2-0.7,0.3c-0.3,0.1-0.5,0.1-0.8,0.1c-0.4,0-0.8-0.1-1.2-0.2
			c-0.4-0.2-0.7-0.4-0.9-0.6c-0.3-0.3-0.5-0.6-0.6-1S73.8,142.4,73.8,142z"/>
		<path class="st4" d="M82.6,145c-0.4,0-0.8-0.1-1.1-0.2c-0.3-0.2-0.6-0.4-0.9-0.6c-0.3-0.3-0.4-0.6-0.6-0.9
			c-0.1-0.4-0.2-0.7-0.2-1.1c0-0.4,0.1-0.8,0.2-1.1s0.3-0.7,0.6-0.9c0.3-0.3,0.6-0.5,0.9-0.6s0.7-0.2,1.1-0.2c0.4,0,0.8,0.1,1.1,0.2
			s0.6,0.4,0.9,0.6c0.3,0.3,0.5,0.6,0.6,0.9c0.1,0.4,0.2,0.7,0.2,1.1c0,0.4-0.1,0.8-0.2,1.1c-0.1,0.4-0.3,0.7-0.6,0.9
			c-0.3,0.3-0.6,0.5-0.9,0.6C83.4,144.9,83,145,82.6,145z M80.5,142.1c0,0.3,0.1,0.6,0.2,0.9c0.1,0.3,0.3,0.5,0.4,0.7
			c0.2,0.2,0.4,0.4,0.7,0.5c0.3,0.1,0.5,0.2,0.8,0.2c0.3,0,0.6-0.1,0.8-0.2s0.5-0.3,0.7-0.5c0.2-0.2,0.3-0.5,0.5-0.7
			c0.1-0.3,0.2-0.6,0.2-0.9c0-0.3-0.1-0.6-0.2-0.9c-0.1-0.3-0.3-0.5-0.5-0.7c-0.2-0.2-0.4-0.4-0.7-0.5s-0.5-0.2-0.8-0.2
			c-0.3,0-0.6,0.1-0.8,0.2s-0.5,0.3-0.7,0.5c-0.2,0.2-0.3,0.5-0.5,0.7C80.6,141.4,80.5,141.7,80.5,142.1z"/>
		<path class="st4" d="M86.7,136.9h0.7v6.7c0,0.2,0.1,0.4,0.2,0.5s0.3,0.2,0.5,0.2c0.1,0,0.2,0,0.3,0c0.1,0,0.2-0.1,0.3-0.1l0.1,0.6
			c-0.1,0.1-0.3,0.1-0.5,0.1c-0.2,0-0.4,0.1-0.5,0.1c-0.3,0-0.6-0.1-0.8-0.3c-0.2-0.2-0.3-0.5-0.3-0.8V136.9z"/>
		<path class="st4" d="M89.7,136.9h0.7v6.7c0,0.2,0.1,0.4,0.2,0.5s0.3,0.2,0.5,0.2c0.1,0,0.2,0,0.3,0c0.1,0,0.2-0.1,0.3-0.1l0.1,0.6
			c-0.1,0.1-0.3,0.1-0.5,0.1c-0.2,0-0.4,0.1-0.5,0.1c-0.3,0-0.6-0.1-0.8-0.3c-0.2-0.2-0.3-0.5-0.3-0.8V136.9z"/>
		<path class="st4" d="M95.1,145c-0.4,0-0.8-0.1-1.1-0.2c-0.3-0.2-0.7-0.4-0.9-0.6c-0.3-0.3-0.5-0.6-0.6-1s-0.2-0.7-0.2-1.2
			c0-0.4,0.1-0.8,0.2-1.1s0.3-0.7,0.6-0.9s0.6-0.5,0.9-0.6c0.4-0.2,0.7-0.2,1.1-0.2c0.4,0,0.8,0.1,1.1,0.2c0.3,0.2,0.6,0.4,0.9,0.6
			c0.2,0.3,0.4,0.6,0.6,0.9c0.1,0.4,0.2,0.7,0.2,1.1c0,0.1,0,0.1,0,0.2s0,0.1,0,0.1h-4.9c0,0.3,0.1,0.6,0.2,0.9
			c0.1,0.3,0.3,0.5,0.5,0.7c0.2,0.2,0.4,0.3,0.7,0.4c0.2,0.1,0.5,0.2,0.8,0.2c0.2,0,0.4,0,0.5-0.1c0.2-0.1,0.4-0.1,0.5-0.2
			c0.2-0.1,0.3-0.2,0.4-0.3c0.1-0.1,0.2-0.3,0.3-0.4l0.6,0.2c-0.1,0.2-0.2,0.4-0.4,0.6c-0.2,0.2-0.3,0.3-0.6,0.5
			c-0.2,0.1-0.4,0.2-0.7,0.3C95.7,145,95.4,145,95.1,145z M97.3,141.7c0-0.3-0.1-0.6-0.2-0.8c-0.1-0.3-0.3-0.5-0.5-0.7
			c-0.2-0.2-0.4-0.3-0.6-0.4c-0.2-0.1-0.5-0.2-0.8-0.2s-0.5,0.1-0.8,0.2s-0.5,0.2-0.7,0.4c-0.2,0.2-0.3,0.4-0.5,0.7
			s-0.2,0.5-0.2,0.8H97.3z"/>
		<path class="st4" d="M98.7,142c0-0.4,0.1-0.8,0.2-1.1c0.1-0.4,0.3-0.7,0.6-0.9c0.3-0.3,0.6-0.5,0.9-0.6c0.4-0.2,0.7-0.2,1.2-0.2
			c0.5,0,1,0.1,1.4,0.4c0.4,0.2,0.7,0.6,0.9,1l-0.7,0.2c-0.2-0.3-0.4-0.5-0.7-0.7s-0.6-0.2-1-0.2c-0.3,0-0.6,0.1-0.8,0.2
			s-0.5,0.3-0.7,0.5c-0.2,0.2-0.3,0.4-0.4,0.7s-0.2,0.6-0.2,0.9c0,0.3,0.1,0.6,0.2,0.9c0.1,0.3,0.3,0.5,0.5,0.7s0.4,0.4,0.7,0.5
			s0.5,0.2,0.8,0.2c0.2,0,0.4,0,0.5-0.1c0.2-0.1,0.3-0.1,0.5-0.2c0.2-0.1,0.3-0.2,0.4-0.3c0.1-0.1,0.2-0.2,0.2-0.4l0.7,0.2
			c-0.1,0.2-0.2,0.4-0.4,0.6c-0.2,0.2-0.3,0.3-0.5,0.5c-0.2,0.1-0.4,0.2-0.7,0.3c-0.3,0.1-0.5,0.1-0.8,0.1c-0.4,0-0.8-0.1-1.2-0.2
			c-0.4-0.2-0.7-0.4-0.9-0.6c-0.3-0.3-0.5-0.6-0.6-1S98.7,142.4,98.7,142z"/>
		<path class="st4" d="M107.9,144.6c0,0-0.1,0.1-0.2,0.1c-0.1,0-0.2,0.1-0.3,0.1c-0.1,0-0.2,0.1-0.4,0.1c-0.1,0-0.3,0-0.4,0
			c-0.2,0-0.3,0-0.5-0.1c-0.1,0-0.3-0.1-0.4-0.2c-0.1-0.1-0.2-0.2-0.3-0.3s-0.1-0.3-0.1-0.5v-4.1h-0.8v-0.6h0.8v-1.9h0.7v1.9h1.3
			v0.6h-1.3v3.9c0,0.2,0.1,0.4,0.2,0.5s0.3,0.1,0.5,0.1c0.2,0,0.4,0,0.6-0.1c0.2-0.1,0.3-0.1,0.3-0.1L107.9,144.6z"/>
		<path class="st4" d="M108.9,138v-1.1h0.7v1.1H108.9z M108.9,144.9v-5.7h0.7v5.7H108.9z"/>
		<path class="st4" d="M113.7,145c-0.4,0-0.8-0.1-1.1-0.2c-0.3-0.2-0.6-0.4-0.9-0.6c-0.3-0.3-0.4-0.6-0.6-0.9
			c-0.1-0.4-0.2-0.7-0.2-1.1c0-0.4,0.1-0.8,0.2-1.1s0.3-0.7,0.6-0.9c0.3-0.3,0.6-0.5,0.9-0.6s0.7-0.2,1.1-0.2c0.4,0,0.8,0.1,1.1,0.2
			s0.6,0.4,0.9,0.6c0.3,0.3,0.5,0.6,0.6,0.9c0.1,0.4,0.2,0.7,0.2,1.1c0,0.4-0.1,0.8-0.2,1.1c-0.1,0.4-0.3,0.7-0.6,0.9
			c-0.3,0.3-0.6,0.5-0.9,0.6C114.5,144.9,114.1,145,113.7,145z M111.6,142.1c0,0.3,0.1,0.6,0.2,0.9c0.1,0.3,0.3,0.5,0.4,0.7
			c0.2,0.2,0.4,0.4,0.7,0.5c0.3,0.1,0.5,0.2,0.8,0.2c0.3,0,0.6-0.1,0.8-0.2s0.5-0.3,0.7-0.5c0.2-0.2,0.3-0.5,0.5-0.7
			c0.1-0.3,0.2-0.6,0.2-0.9c0-0.3-0.1-0.6-0.2-0.9c-0.1-0.3-0.3-0.5-0.5-0.7c-0.2-0.2-0.4-0.4-0.7-0.5s-0.5-0.2-0.8-0.2
			c-0.3,0-0.6,0.1-0.8,0.2s-0.5,0.3-0.7,0.5c-0.2,0.2-0.3,0.5-0.5,0.7C111.7,141.4,111.6,141.7,111.6,142.1z"/>
		<path class="st4" d="M122.6,144.9h-0.7v-3.2c0-0.7-0.1-1.2-0.3-1.5c-0.2-0.3-0.5-0.5-0.9-0.5c-0.2,0-0.4,0-0.7,0.1
			c-0.2,0.1-0.4,0.2-0.6,0.3c-0.2,0.1-0.4,0.3-0.5,0.5c-0.1,0.2-0.3,0.4-0.3,0.7v3.5h-0.7v-5.7h0.7v1.3c0.2-0.4,0.6-0.8,1-1
			c0.4-0.3,0.9-0.4,1.4-0.4c0.3,0,0.6,0.1,0.8,0.2c0.2,0.1,0.4,0.3,0.5,0.5c0.1,0.2,0.2,0.5,0.3,0.8s0.1,0.6,0.1,1V144.9z"/>
		<path class="st4" d="M126.1,145c-0.4,0-0.9-0.1-1.3-0.2c-0.4-0.1-0.8-0.4-1.1-0.6l0.3-0.5c0.3,0.3,0.7,0.5,1,0.6s0.7,0.2,1.1,0.2
			c0.5,0,0.8-0.1,1.1-0.3c0.3-0.2,0.4-0.5,0.4-0.8c0-0.2,0-0.3-0.1-0.4s-0.2-0.2-0.3-0.3c-0.1-0.1-0.3-0.2-0.5-0.2
			c-0.2-0.1-0.5-0.1-0.8-0.2c-0.3-0.1-0.6-0.2-0.9-0.2c-0.2-0.1-0.4-0.2-0.6-0.3c-0.2-0.1-0.3-0.2-0.4-0.4s-0.1-0.3-0.1-0.6
			c0-0.3,0.1-0.5,0.2-0.8c0.1-0.2,0.3-0.4,0.5-0.5s0.4-0.3,0.7-0.3s0.5-0.1,0.8-0.1c0.4,0,0.8,0.1,1.2,0.2c0.4,0.1,0.6,0.3,0.9,0.6
			l-0.4,0.4c-0.2-0.2-0.5-0.4-0.8-0.5c-0.3-0.1-0.6-0.2-1-0.2c-0.2,0-0.4,0-0.5,0.1c-0.2,0-0.3,0.1-0.4,0.2
			c-0.1,0.1-0.2,0.2-0.3,0.3s-0.1,0.3-0.1,0.5c0,0.2,0,0.3,0.1,0.4c0.1,0.1,0.1,0.2,0.3,0.2c0.1,0.1,0.3,0.1,0.4,0.2
			s0.4,0.1,0.7,0.2c0.4,0.1,0.7,0.2,1,0.3c0.3,0.1,0.5,0.2,0.7,0.3c0.2,0.1,0.3,0.3,0.4,0.4c0.1,0.2,0.1,0.4,0.1,0.6
			c0,0.5-0.2,0.9-0.6,1.3C127.3,144.8,126.8,145,126.1,145z"/>
		<path class="st4" d="M137.8,144.9l-0.9-0.9c-0.3,0.3-0.7,0.6-1.1,0.8c-0.4,0.2-0.8,0.3-1.3,0.3c-0.3,0-0.7-0.1-1-0.2
			c-0.3-0.1-0.6-0.2-0.8-0.4c-0.2-0.2-0.4-0.4-0.5-0.7s-0.2-0.5-0.2-0.9c0-0.3,0-0.5,0.1-0.7c0.1-0.2,0.2-0.4,0.4-0.6
			c0.2-0.2,0.3-0.4,0.5-0.5s0.4-0.3,0.6-0.5c-0.2-0.2-0.4-0.4-0.5-0.6c-0.1-0.2-0.2-0.3-0.3-0.5c-0.1-0.1-0.1-0.3-0.2-0.4
			c0-0.1-0.1-0.3-0.1-0.4c0-0.2,0-0.5,0.1-0.7c0.1-0.2,0.2-0.4,0.4-0.5s0.4-0.3,0.6-0.4s0.5-0.1,0.8-0.1c0.3,0,0.5,0,0.7,0.1
			c0.2,0.1,0.4,0.2,0.6,0.3s0.3,0.3,0.4,0.5c0.1,0.2,0.1,0.4,0.1,0.6s0,0.4-0.1,0.6c-0.1,0.2-0.2,0.4-0.4,0.5s-0.3,0.3-0.5,0.5
			c-0.2,0.2-0.4,0.3-0.7,0.5l2.2,2.3c0.1-0.3,0.3-0.6,0.3-0.9c0.1-0.3,0.1-0.7,0.1-1h0.6c0,0.5-0.1,0.9-0.2,1.3
			c-0.1,0.4-0.3,0.8-0.5,1.1l1.5,1.5H137.8z M134.6,144.4c0.4,0,0.7-0.1,1-0.2c0.3-0.2,0.6-0.4,0.8-0.7l-2.4-2.5
			c-0.4,0.3-0.7,0.6-1,0.9s-0.4,0.6-0.4,1c0,0.2,0.1,0.5,0.2,0.6c0.1,0.2,0.2,0.3,0.4,0.5c0.2,0.1,0.4,0.2,0.6,0.3
			C134.2,144.4,134.4,144.4,134.6,144.4z M133.3,138.7c0,0.1,0,0.2,0,0.3c0,0.1,0.1,0.2,0.1,0.3c0.1,0.1,0.2,0.2,0.3,0.4
			c0.1,0.2,0.3,0.3,0.5,0.5c0.4-0.3,0.8-0.5,1-0.8c0.3-0.2,0.4-0.5,0.4-0.8c0-0.3-0.1-0.5-0.3-0.7s-0.5-0.3-0.8-0.3
			c-0.2,0-0.4,0-0.5,0.1c-0.2,0.1-0.3,0.1-0.4,0.2s-0.2,0.2-0.3,0.4C133.4,138.4,133.3,138.5,133.3,138.7z"/>
	</g>
	<g class="st2">
		<path class="st4" d="M60.4,157c-0.6,0-1.1-0.2-1.4-0.6c-0.3-0.4-0.5-1-0.5-1.9v-3.4h0.7v3.2c0,1.3,0.4,1.9,1.3,1.9
			c0.2,0,0.4,0,0.6-0.1c0.2-0.1,0.4-0.2,0.6-0.3c0.2-0.1,0.3-0.3,0.5-0.5c0.1-0.2,0.3-0.4,0.3-0.6v-3.6h0.7v4.8
			c0,0.2,0.1,0.3,0.3,0.3v0.7c-0.1,0-0.2,0-0.2,0c-0.1,0-0.1,0-0.1,0c-0.2,0-0.3-0.1-0.4-0.2s-0.2-0.3-0.2-0.5v-0.7
			c-0.2,0.4-0.6,0.8-1,1C61.3,156.9,60.9,157,60.4,157z"/>
		<path class="st4" d="M68.1,157c-0.5,0-0.9-0.1-1.3-0.4c-0.4-0.2-0.7-0.6-0.9-0.9v3.5h-0.7v-8.1h0.7v1.1c0.2-0.4,0.5-0.7,0.9-0.9
			s0.8-0.3,1.2-0.3c0.4,0,0.8,0.1,1.1,0.2c0.3,0.2,0.6,0.4,0.9,0.7c0.2,0.3,0.4,0.6,0.6,1s0.2,0.7,0.2,1.1c0,0.4-0.1,0.8-0.2,1.1
			c-0.1,0.4-0.3,0.7-0.5,0.9c-0.2,0.3-0.5,0.5-0.8,0.6C68.8,156.9,68.4,157,68.1,157z M67.9,156.3c0.3,0,0.6-0.1,0.8-0.2
			c0.3-0.1,0.5-0.3,0.6-0.5c0.2-0.2,0.3-0.5,0.4-0.7c0.1-0.3,0.1-0.6,0.1-0.9c0-0.3-0.1-0.6-0.2-0.9c-0.1-0.3-0.3-0.5-0.5-0.7
			c-0.2-0.2-0.4-0.4-0.7-0.5c-0.3-0.1-0.5-0.2-0.8-0.2c-0.2,0-0.4,0-0.6,0.1s-0.4,0.2-0.6,0.3c-0.2,0.1-0.3,0.3-0.5,0.5
			c-0.1,0.2-0.2,0.4-0.2,0.5v1.8c0.1,0.2,0.2,0.4,0.3,0.6c0.1,0.2,0.3,0.3,0.5,0.5c0.2,0.1,0.4,0.2,0.6,0.3
			C67.4,156.3,67.6,156.3,67.9,156.3z"/>
		<path class="st4" d="M72,148.9h0.7v6.7c0,0.2,0.1,0.4,0.2,0.5c0.1,0.1,0.3,0.2,0.5,0.2c0.1,0,0.2,0,0.3,0c0.1,0,0.2-0.1,0.3-0.1
			l0.1,0.6c-0.1,0.1-0.3,0.1-0.5,0.1c-0.2,0-0.4,0.1-0.5,0.1c-0.3,0-0.6-0.1-0.8-0.3c-0.2-0.2-0.3-0.5-0.3-0.8V148.9z"/>
		<path class="st4" d="M77.4,157c-0.4,0-0.8-0.1-1.1-0.2c-0.3-0.2-0.6-0.4-0.9-0.6c-0.3-0.3-0.4-0.6-0.6-0.9
			c-0.1-0.4-0.2-0.7-0.2-1.1c0-0.4,0.1-0.8,0.2-1.1s0.3-0.7,0.6-0.9c0.3-0.3,0.6-0.5,0.9-0.6s0.7-0.2,1.1-0.2s0.8,0.1,1.1,0.2
			s0.6,0.4,0.9,0.6c0.3,0.3,0.5,0.6,0.6,0.9c0.1,0.4,0.2,0.7,0.2,1.1c0,0.4-0.1,0.8-0.2,1.1c-0.1,0.4-0.3,0.7-0.6,0.9
			c-0.3,0.3-0.6,0.5-0.9,0.6C78.2,156.9,77.8,157,77.4,157z M75.3,154.1c0,0.3,0.1,0.6,0.2,0.9s0.3,0.5,0.4,0.7s0.4,0.4,0.7,0.5
			s0.5,0.2,0.8,0.2s0.6-0.1,0.8-0.2s0.5-0.3,0.7-0.5c0.2-0.2,0.3-0.5,0.5-0.7c0.1-0.3,0.2-0.6,0.2-0.9c0-0.3-0.1-0.6-0.2-0.9
			c-0.1-0.3-0.3-0.5-0.5-0.7c-0.2-0.2-0.4-0.4-0.7-0.5s-0.5-0.2-0.8-0.2s-0.6,0.1-0.8,0.2c-0.2,0.1-0.5,0.3-0.7,0.5
			c-0.2,0.2-0.3,0.5-0.5,0.7S75.3,153.7,75.3,154.1z"/>
		<path class="st4" d="M82.9,157c-0.3,0-0.5,0-0.8-0.1c-0.2-0.1-0.4-0.2-0.6-0.4c-0.2-0.2-0.3-0.3-0.4-0.6c-0.1-0.2-0.1-0.4-0.1-0.7
			s0.1-0.5,0.2-0.7c0.1-0.2,0.3-0.4,0.5-0.5s0.5-0.3,0.8-0.4s0.6-0.1,1-0.1c0.3,0,0.6,0,0.9,0.1c0.3,0.1,0.6,0.1,0.8,0.2v-0.5
			c0-0.5-0.1-0.9-0.4-1.2c-0.3-0.3-0.7-0.4-1.2-0.4c-0.3,0-0.6,0.1-0.9,0.2c-0.3,0.1-0.6,0.3-0.9,0.5l-0.3-0.5
			c0.7-0.5,1.5-0.7,2.2-0.7c0.7,0,1.3,0.2,1.7,0.6s0.6,1,0.6,1.7v2.6c0,0.2,0.1,0.3,0.3,0.3v0.7c-0.1,0-0.2,0-0.3,0
			c-0.2,0-0.3,0-0.4-0.1c-0.1-0.1-0.2-0.2-0.2-0.4l0-0.5c-0.3,0.3-0.6,0.6-1,0.8S83.4,157,82.9,157z M83.1,156.4
			c0.4,0,0.7-0.1,1.1-0.2s0.6-0.3,0.7-0.6c0.1-0.1,0.1-0.1,0.1-0.2s0-0.1,0-0.2v-0.9c-0.2-0.1-0.5-0.2-0.8-0.2
			c-0.3-0.1-0.5-0.1-0.8-0.1c-0.5,0-1,0.1-1.3,0.3c-0.3,0.2-0.5,0.5-0.5,0.9c0,0.2,0,0.3,0.1,0.5c0.1,0.2,0.2,0.3,0.3,0.4
			c0.1,0.1,0.3,0.2,0.4,0.3C82.7,156.4,82.9,156.4,83.1,156.4z"/>
		<path class="st4" d="M89.8,157c-0.4,0-0.8-0.1-1.1-0.2c-0.3-0.2-0.6-0.4-0.9-0.7s-0.4-0.6-0.6-0.9s-0.2-0.7-0.2-1.1
			c0-0.4,0.1-0.8,0.2-1.1c0.1-0.4,0.3-0.7,0.5-1c0.2-0.3,0.5-0.5,0.8-0.6c0.3-0.2,0.7-0.2,1-0.2c0.5,0,0.9,0.1,1.3,0.4
			s0.7,0.6,0.9,0.9v-3.5h0.7v7.1c0,0.2,0.1,0.3,0.3,0.3v0.7c-0.1,0-0.2,0-0.3,0c-0.2,0-0.3-0.1-0.5-0.2c-0.1-0.1-0.2-0.3-0.2-0.4
			v-0.6c-0.2,0.4-0.5,0.7-0.9,0.9C90.6,156.9,90.2,157,89.8,157z M90,156.3c0.2,0,0.4,0,0.6-0.1s0.4-0.2,0.6-0.3
			c0.2-0.1,0.3-0.3,0.5-0.5c0.1-0.2,0.2-0.4,0.2-0.6v-1.8c-0.1-0.2-0.2-0.4-0.3-0.6c-0.1-0.2-0.3-0.3-0.5-0.5s-0.4-0.2-0.6-0.3
			c-0.2-0.1-0.4-0.1-0.6-0.1c-0.3,0-0.6,0.1-0.8,0.2c-0.2,0.1-0.5,0.3-0.6,0.5c-0.2,0.2-0.3,0.5-0.4,0.7c-0.1,0.3-0.1,0.6-0.1,0.9
			c0,0.3,0.1,0.6,0.2,0.9c0.1,0.3,0.3,0.5,0.5,0.7c0.2,0.2,0.4,0.4,0.7,0.5C89.4,156.3,89.7,156.3,90,156.3z"/>
		<path class="st4" d="M99.9,157c-0.5,0-0.9-0.1-1.2-0.3c-0.4-0.2-0.7-0.5-0.9-0.9v1.1h-0.7v-8h0.7v3.5c0.3-0.4,0.6-0.7,0.9-0.9
			s0.8-0.4,1.3-0.4c0.4,0,0.8,0.1,1.1,0.3c0.3,0.2,0.6,0.4,0.8,0.7s0.4,0.6,0.5,1c0.1,0.4,0.2,0.7,0.2,1.1c0,0.4-0.1,0.8-0.2,1.1
			c-0.1,0.4-0.3,0.7-0.6,0.9c-0.2,0.3-0.5,0.5-0.9,0.6C100.6,156.9,100.3,157,99.9,157z M99.7,156.3c0.3,0,0.6-0.1,0.9-0.2
			c0.3-0.1,0.5-0.3,0.7-0.5c0.2-0.2,0.3-0.5,0.4-0.7c0.1-0.3,0.2-0.6,0.2-0.9c0-0.3,0-0.6-0.1-0.9c-0.1-0.3-0.2-0.5-0.4-0.7
			c-0.2-0.2-0.4-0.4-0.6-0.5c-0.3-0.1-0.5-0.2-0.8-0.2c-0.2,0-0.4,0-0.6,0.1c-0.2,0.1-0.4,0.2-0.6,0.3c-0.2,0.1-0.3,0.3-0.5,0.5
			c-0.1,0.2-0.2,0.4-0.3,0.5v1.8c0,0.2,0.1,0.4,0.2,0.6c0.1,0.2,0.3,0.3,0.5,0.4s0.4,0.2,0.6,0.3S99.5,156.3,99.7,156.3z"/>
		<path class="st4" d="M105.7,157c-0.6,0-1.1-0.2-1.4-0.6c-0.3-0.4-0.5-1-0.5-1.9v-3.4h0.7v3.2c0,1.3,0.4,1.9,1.3,1.9
			c0.2,0,0.4,0,0.6-0.1s0.4-0.2,0.6-0.3c0.2-0.1,0.3-0.3,0.5-0.5c0.1-0.2,0.3-0.4,0.3-0.6v-3.6h0.7v4.8c0,0.2,0.1,0.3,0.3,0.3v0.7
			c-0.1,0-0.2,0-0.2,0c-0.1,0-0.1,0-0.1,0c-0.2,0-0.3-0.1-0.4-0.2s-0.2-0.3-0.2-0.5v-0.7c-0.2,0.4-0.6,0.8-1,1
			C106.6,156.9,106.2,157,105.7,157z"/>
		<path class="st4" d="M110.5,148.9h0.7v6.7c0,0.2,0.1,0.4,0.2,0.5s0.3,0.2,0.5,0.2c0.1,0,0.2,0,0.3,0c0.1,0,0.2-0.1,0.3-0.1
			l0.1,0.6c-0.1,0.1-0.3,0.1-0.5,0.1c-0.2,0-0.4,0.1-0.5,0.1c-0.3,0-0.6-0.1-0.8-0.3c-0.2-0.2-0.3-0.5-0.3-0.8V148.9z"/>
		<path class="st4" d="M117.5,156.9l-2.1-2.9l-1.2,1.1v1.8h-0.7v-8h0.7v5.5l3.2-3.1h0.8l-2.3,2.3l2.4,3.4H117.5z"/>
		<path class="st4" d="M124.5,157c-0.4,0-0.8-0.1-1.1-0.2c-0.3-0.2-0.6-0.4-0.9-0.6c-0.3-0.3-0.4-0.6-0.6-0.9
			c-0.1-0.4-0.2-0.7-0.2-1.1c0-0.4,0.1-0.8,0.2-1.1s0.3-0.7,0.6-0.9c0.3-0.3,0.6-0.5,0.9-0.6s0.7-0.2,1.1-0.2c0.4,0,0.8,0.1,1.1,0.2
			s0.6,0.4,0.9,0.6c0.3,0.3,0.5,0.6,0.6,0.9c0.1,0.4,0.2,0.7,0.2,1.1c0,0.4-0.1,0.8-0.2,1.1c-0.1,0.4-0.3,0.7-0.6,0.9
			c-0.3,0.3-0.6,0.5-0.9,0.6C125.3,156.9,124.9,157,124.5,157z M122.4,154.1c0,0.3,0.1,0.6,0.2,0.9c0.1,0.3,0.3,0.5,0.4,0.7
			c0.2,0.2,0.4,0.4,0.7,0.5c0.3,0.1,0.5,0.2,0.8,0.2c0.3,0,0.6-0.1,0.8-0.2s0.5-0.3,0.7-0.5c0.2-0.2,0.3-0.5,0.5-0.7
			c0.1-0.3,0.2-0.6,0.2-0.9c0-0.3-0.1-0.6-0.2-0.9c-0.1-0.3-0.3-0.5-0.5-0.7c-0.2-0.2-0.4-0.4-0.7-0.5s-0.5-0.2-0.8-0.2
			c-0.3,0-0.6,0.1-0.8,0.2s-0.5,0.3-0.7,0.5c-0.2,0.2-0.3,0.5-0.5,0.7C122.5,153.4,122.4,153.7,122.4,154.1z"/>
		<path class="st4" d="M131.5,151.8c-0.5,0-0.9,0.2-1.3,0.4c-0.4,0.3-0.6,0.6-0.8,1.1v3.6h-0.7v-5.7h0.7v1.4c0.2-0.4,0.5-0.8,0.9-1
			c0.4-0.2,0.7-0.4,1.2-0.4c0.1,0,0.1,0,0.1,0V151.8z"/>
	</g>
	<g class="st2">
		<path class="st4" d="M69.9,169c-0.4,0-0.9-0.1-1.3-0.2s-0.8-0.4-1.1-0.6l0.3-0.5c0.3,0.3,0.7,0.5,1,0.6c0.3,0.1,0.7,0.2,1.1,0.2
			c0.5,0,0.8-0.1,1.1-0.3c0.3-0.2,0.4-0.5,0.4-0.8c0-0.2,0-0.3-0.1-0.4s-0.2-0.2-0.3-0.3c-0.1-0.1-0.3-0.2-0.5-0.2
			c-0.2-0.1-0.5-0.1-0.8-0.2c-0.3-0.1-0.6-0.2-0.9-0.2c-0.2-0.1-0.4-0.2-0.6-0.3c-0.2-0.1-0.3-0.2-0.4-0.4c-0.1-0.2-0.1-0.3-0.1-0.6
			c0-0.3,0.1-0.5,0.2-0.8c0.1-0.2,0.3-0.4,0.5-0.5s0.4-0.3,0.7-0.3s0.5-0.1,0.8-0.1c0.4,0,0.8,0.1,1.2,0.2c0.4,0.1,0.6,0.3,0.9,0.6
			l-0.4,0.4c-0.2-0.2-0.5-0.4-0.8-0.5c-0.3-0.1-0.6-0.2-1-0.2c-0.2,0-0.4,0-0.6,0.1c-0.2,0-0.3,0.1-0.4,0.2s-0.2,0.2-0.3,0.3
			c-0.1,0.1-0.1,0.3-0.1,0.5c0,0.2,0,0.3,0.1,0.4c0.1,0.1,0.1,0.2,0.3,0.2c0.1,0.1,0.3,0.1,0.4,0.2c0.2,0.1,0.4,0.1,0.7,0.2
			c0.4,0.1,0.7,0.2,1,0.3s0.5,0.2,0.7,0.3c0.2,0.1,0.3,0.3,0.4,0.4s0.1,0.4,0.1,0.6c0,0.5-0.2,0.9-0.6,1.3
			C71.1,168.8,70.6,169,69.9,169z"/>
		<path class="st4" d="M73.4,162v-1.1h0.7v1.1H73.4z M73.4,168.9v-5.7h0.7v5.7H73.4z"/>
		<path class="st4" d="M80.6,168.9h-0.7v-3.2c0-0.7-0.1-1.2-0.3-1.5c-0.2-0.3-0.5-0.5-0.9-0.5c-0.2,0-0.4,0-0.7,0.1
			c-0.2,0.1-0.4,0.2-0.6,0.3c-0.2,0.1-0.4,0.3-0.5,0.5c-0.1,0.2-0.3,0.4-0.3,0.7v3.5h-0.7v-5.7h0.7v1.3c0.2-0.4,0.6-0.8,1-1
			c0.4-0.3,0.9-0.4,1.4-0.4c0.3,0,0.6,0.1,0.8,0.2c0.2,0.1,0.4,0.3,0.5,0.5s0.2,0.5,0.3,0.8c0.1,0.3,0.1,0.6,0.1,1V168.9z"/>
		<path class="st4" d="M84.5,169c-0.4,0-0.8-0.1-1.1-0.2c-0.3-0.2-0.6-0.4-0.8-0.7s-0.4-0.6-0.6-0.9c-0.1-0.4-0.2-0.7-0.2-1.1
			c0-0.4,0.1-0.8,0.2-1.1s0.3-0.7,0.5-1c0.2-0.3,0.5-0.5,0.8-0.6c0.3-0.2,0.7-0.2,1.1-0.2c0.5,0,0.9,0.1,1.3,0.4
			c0.4,0.2,0.7,0.6,0.9,0.9v-1.2h0.7v5.8c0,0.4-0.1,0.7-0.2,1c-0.2,0.3-0.4,0.6-0.6,0.8s-0.6,0.4-0.9,0.5s-0.7,0.2-1.1,0.2
			c-0.7,0-1.2-0.1-1.6-0.4c-0.4-0.2-0.7-0.5-1-0.9l0.5-0.4c0.2,0.4,0.5,0.6,0.9,0.8c0.4,0.2,0.8,0.3,1.2,0.3c0.3,0,0.5,0,0.8-0.1
			c0.2-0.1,0.5-0.2,0.7-0.3c0.2-0.2,0.3-0.3,0.4-0.6c0.1-0.2,0.2-0.5,0.2-0.8v-1.1c-0.2,0.4-0.5,0.7-0.9,0.9
			C85.3,168.9,84.9,169,84.5,169z M84.7,168.3c0.2,0,0.4,0,0.6-0.1s0.4-0.2,0.6-0.3s0.3-0.3,0.4-0.5c0.1-0.2,0.2-0.3,0.2-0.5v-1.8
			c-0.1-0.2-0.2-0.4-0.3-0.6c-0.1-0.2-0.3-0.3-0.5-0.5c-0.2-0.1-0.4-0.2-0.6-0.3s-0.4-0.1-0.6-0.1c-0.3,0-0.6,0.1-0.9,0.2
			s-0.5,0.3-0.6,0.5c-0.2,0.2-0.3,0.5-0.4,0.7c-0.1,0.3-0.1,0.6-0.1,0.8c0,0.3,0.1,0.6,0.2,0.9c0.1,0.3,0.3,0.5,0.5,0.7
			s0.4,0.4,0.7,0.5C84.1,168.3,84.4,168.3,84.7,168.3z"/>
		<path class="st4" d="M89,160.9h0.7v6.7c0,0.2,0.1,0.4,0.2,0.5s0.3,0.2,0.5,0.2c0.1,0,0.2,0,0.3,0c0.1,0,0.2-0.1,0.3-0.1l0.1,0.6
			c-0.1,0.1-0.3,0.1-0.5,0.1c-0.2,0-0.4,0.1-0.5,0.1c-0.3,0-0.6-0.1-0.8-0.3c-0.2-0.2-0.3-0.5-0.3-0.8V160.9z"/>
		<path class="st4" d="M94.4,169c-0.4,0-0.8-0.1-1.1-0.2c-0.3-0.2-0.7-0.4-0.9-0.6c-0.3-0.3-0.5-0.6-0.6-1s-0.2-0.7-0.2-1.2
			c0-0.4,0.1-0.8,0.2-1.1s0.3-0.7,0.6-0.9s0.6-0.5,0.9-0.6c0.4-0.2,0.7-0.2,1.1-0.2c0.4,0,0.8,0.1,1.1,0.2c0.3,0.2,0.6,0.4,0.9,0.6
			s0.4,0.6,0.6,0.9c0.1,0.4,0.2,0.7,0.2,1.1c0,0.1,0,0.1,0,0.2s0,0.1,0,0.1h-4.9c0,0.3,0.1,0.6,0.2,0.9c0.1,0.3,0.3,0.5,0.5,0.7
			c0.2,0.2,0.4,0.3,0.7,0.4c0.2,0.1,0.5,0.2,0.8,0.2c0.2,0,0.4,0,0.5-0.1c0.2-0.1,0.4-0.1,0.5-0.2c0.2-0.1,0.3-0.2,0.4-0.3
			c0.1-0.1,0.2-0.3,0.3-0.4l0.6,0.2c-0.1,0.2-0.2,0.4-0.4,0.6c-0.2,0.2-0.3,0.3-0.6,0.5c-0.2,0.1-0.4,0.2-0.7,0.3
			C95,169,94.7,169,94.4,169z M96.5,165.7c0-0.3-0.1-0.6-0.2-0.8s-0.3-0.5-0.5-0.7c-0.2-0.2-0.4-0.3-0.6-0.4
			c-0.2-0.1-0.5-0.2-0.8-0.2s-0.5,0.1-0.8,0.2s-0.5,0.2-0.7,0.4c-0.2,0.2-0.3,0.4-0.5,0.7s-0.2,0.5-0.2,0.8H96.5z"/>
		<path class="st4" d="M101.5,163.8h-0.8v-0.6h0.8V163c0-0.3,0-0.5,0.1-0.8c0.1-0.3,0.2-0.5,0.4-0.7s0.4-0.4,0.6-0.5
			s0.6-0.2,0.9-0.2c0.2,0,0.4,0,0.6,0.1c0.2,0,0.3,0.1,0.5,0.1c0.1,0.1,0.3,0.1,0.4,0.2s0.2,0.1,0.3,0.2l-0.3,0.5
			c-0.1-0.1-0.3-0.2-0.5-0.3s-0.5-0.1-0.7-0.1c-0.2,0-0.4,0-0.6,0.1s-0.3,0.2-0.4,0.4c-0.1,0.1-0.2,0.3-0.2,0.5
			c-0.1,0.2-0.1,0.4-0.1,0.6v0.2h2.9v5.7h-0.7v-5.1h-2.1v5.1h-0.7V163.8z"/>
		<path class="st4" d="M106.8,160.9h0.7v6.7c0,0.2,0.1,0.4,0.2,0.5s0.3,0.2,0.5,0.2c0.1,0,0.2,0,0.3,0c0.1,0,0.2-0.1,0.3-0.1
			l0.1,0.6c-0.1,0.1-0.3,0.1-0.5,0.1c-0.2,0-0.4,0.1-0.5,0.1c-0.3,0-0.6-0.1-0.8-0.3c-0.2-0.2-0.3-0.5-0.3-0.8V160.9z"/>
		<path class="st4" d="M112.2,169c-0.4,0-0.8-0.1-1.1-0.2c-0.3-0.2-0.7-0.4-0.9-0.6c-0.3-0.3-0.5-0.6-0.6-1s-0.2-0.7-0.2-1.2
			c0-0.4,0.1-0.8,0.2-1.1s0.3-0.7,0.6-0.9s0.6-0.5,0.9-0.6c0.4-0.2,0.7-0.2,1.1-0.2c0.4,0,0.8,0.1,1.1,0.2c0.3,0.2,0.6,0.4,0.9,0.6
			s0.4,0.6,0.6,0.9c0.1,0.4,0.2,0.7,0.2,1.1c0,0.1,0,0.1,0,0.2s0,0.1,0,0.1h-4.9c0,0.3,0.1,0.6,0.2,0.9c0.1,0.3,0.3,0.5,0.5,0.7
			c0.2,0.2,0.4,0.3,0.7,0.4c0.2,0.1,0.5,0.2,0.8,0.2c0.2,0,0.4,0,0.5-0.1c0.2-0.1,0.4-0.1,0.5-0.2c0.2-0.1,0.3-0.2,0.4-0.3
			c0.1-0.1,0.2-0.3,0.3-0.4l0.6,0.2c-0.1,0.2-0.2,0.4-0.4,0.6c-0.2,0.2-0.3,0.3-0.6,0.5c-0.2,0.1-0.4,0.2-0.7,0.3
			C112.8,169,112.5,169,112.2,169z M114.3,165.7c0-0.3-0.1-0.6-0.2-0.8s-0.3-0.5-0.5-0.7c-0.2-0.2-0.4-0.3-0.6-0.4
			c-0.2-0.1-0.5-0.2-0.8-0.2s-0.5,0.1-0.8,0.2s-0.5,0.2-0.7,0.4c-0.2,0.2-0.3,0.4-0.5,0.7s-0.2,0.5-0.2,0.8H114.3z"/>
		<path class="st4" d="M118.1,169c-0.4,0-0.9-0.1-1.3-0.2c-0.4-0.1-0.8-0.4-1.1-0.6l0.3-0.5c0.3,0.3,0.7,0.5,1,0.6s0.7,0.2,1.1,0.2
			c0.5,0,0.8-0.1,1.1-0.3c0.3-0.2,0.4-0.5,0.4-0.8c0-0.2,0-0.3-0.1-0.4s-0.2-0.2-0.3-0.3c-0.1-0.1-0.3-0.2-0.5-0.2
			c-0.2-0.1-0.5-0.1-0.8-0.2c-0.3-0.1-0.6-0.2-0.9-0.2c-0.2-0.1-0.4-0.2-0.6-0.3c-0.2-0.1-0.3-0.2-0.4-0.4s-0.1-0.3-0.1-0.6
			c0-0.3,0.1-0.5,0.2-0.8c0.1-0.2,0.3-0.4,0.5-0.5s0.4-0.3,0.7-0.3s0.5-0.1,0.8-0.1c0.4,0,0.8,0.1,1.2,0.2c0.4,0.1,0.6,0.3,0.9,0.6
			l-0.4,0.4c-0.2-0.2-0.5-0.4-0.8-0.5c-0.3-0.1-0.6-0.2-1-0.2c-0.2,0-0.4,0-0.5,0.1c-0.2,0-0.3,0.1-0.4,0.2
			c-0.1,0.1-0.2,0.2-0.3,0.3s-0.1,0.3-0.1,0.5c0,0.2,0,0.3,0.1,0.4c0.1,0.1,0.1,0.2,0.3,0.2c0.1,0.1,0.3,0.1,0.4,0.2
			s0.4,0.1,0.7,0.2c0.4,0.1,0.7,0.2,1,0.3c0.3,0.1,0.5,0.2,0.7,0.3c0.2,0.1,0.3,0.3,0.4,0.4c0.1,0.2,0.1,0.4,0.1,0.6
			c0,0.5-0.2,0.9-0.6,1.3C119.3,168.8,118.8,169,118.1,169z"/>
		<path class="st4" d="M121.5,168.9v-1.1h0.6v1.1H121.5z"/>
	</g>
	<g>
		<g>
			<g>
				<path class="st3" d="M109.6,60.1H84.1c-0.4,0-0.7-0.3-0.7-0.7v-9c0-0.4,0.3-0.7,0.7-0.7h7.8c0.4,0,0.7,0.3,0.7,0.7v3h8.3v-3
					c0-0.4,0.3-0.7,0.7-0.7h8.1c0.4,0,0.7,0.3,0.7,0.7v9C110.3,59.8,110,60.1,109.6,60.1z M84.8,58.7H109v-7.6h-6.7v3
					c0,0.4-0.3,0.7-0.7,0.7h-9.7c-0.4,0-0.7-0.3-0.7-0.7v-3h-6.4C84.8,51.1,84.8,58.7,84.8,58.7z"/>
			</g>
			<g>
				<path class="st3" d="M109.6,51.1c-0.1,0-0.3,0-0.4-0.1l-6.8-4.1h-3.8c-0.4,0-0.7-0.3-0.7-0.7s0.3-0.7,0.7-0.7h4
					c0.1,0,0.3,0,0.4,0.1l6.9,4.2c0.3,0.2,0.4,0.6,0.2,1C110.1,51,109.9,51.1,109.6,51.1z"/>
			</g>
			<g>
				<path class="st3" d="M84.1,51.1c-0.2,0-0.5-0.1-0.6-0.3c-0.2-0.3-0.1-0.8,0.2-1l6.3-4.2c0.1-0.1,0.3-0.1,0.4-0.1h4
					c0.4,0,0.7,0.3,0.7,0.7s-0.3,0.7-0.7,0.7h-3.8L84.5,51C84.3,51.1,84.2,51.1,84.1,51.1z"/>
			</g>
			<g>
				<path class="st3" d="M96.7,50.7c-0.4,0-0.7-0.3-0.7-0.7V37.6c0-0.4,0.3-0.7,0.7-0.7c0.4,0,0.7,0.3,0.7,0.7V50
					C97.4,50.4,97,50.7,96.7,50.7z"/>
			</g>
			<g>
				<path class="st3" d="M92,42.4c-0.2,0-0.4-0.1-0.5-0.2c-0.3-0.3-0.3-0.7,0-1l4.6-4.6c0.3-0.3,0.7-0.3,1,0l4.6,4.6
					c0.3,0.3,0.3,0.7,0,1s-0.7,0.3-1,0l-4-4.2l-4.1,4.1C92.4,42.3,92.2,42.4,92,42.4z"/>
			</g>
		</g>
		<g>
			<g>
				<path class="st3" d="M124.5,68.1H69.2c-1.4,0-2.6-1.2-2.6-2.6V32.1c0-1.4,1.2-2.6,2.6-2.6h55.4c1.4,0,2.6,1.2,2.6,2.6v33.4
					C127.1,67,126,68.1,124.5,68.1z M69.2,31c-0.6,0-1.2,0.5-1.2,1.2v33.4c0,0.6,0.5,1.2,1.2,1.2h55.4c0.6,0,1.2-0.5,1.2-1.2V32.1
					c0-0.6-0.5-1.2-1.2-1.2L69.2,31z"/>
			</g>
			<g>
				<path class="st3" d="M104.1,77.6H89.6c-0.4,0-0.7-0.3-0.7-0.7v-9.4c0-0.4,0.3-0.7,0.7-0.7h14.5c0.4,0,0.7,0.3,0.7,0.7v9.4
					C104.8,77.2,104.5,77.6,104.1,77.6z M90.3,76.2h13v-8h-13V76.2z"/>
			</g>
			<g>
				<path class="st3" d="M111,82.6H82.7c-0.4,0-0.7-0.3-0.7-0.7v-5c0-0.4,0.3-0.7,0.7-0.7H111c0.4,0,0.7,0.3,0.7,0.7v5
					C111.7,82.3,111.4,82.6,111,82.6z M83.4,81.2h26.9v-3.6H83.4V81.2z"/>
			</g>
		</g>
	</g>
</g>
</svg>
