<svg width="22" height="22" viewBox="0 0 22 22" fill="none" xmlns="http://www.w3.org/2000/svg">
<path d="M9.9 10.1802L9.9 17.2002L12.1 17.2002L12.1 10.1802L14.96 12.9669L16.5 11.4269L11 6.00019L5.5 11.4269L7.04 12.9669L9.9 10.1802Z" fill="white"/>
<path fill-rule="evenodd" clip-rule="evenodd" d="M0 18.7V6.37965L0.0421364 6.3388C-0.0936332 5.64937 0.0917344 4.89128 0.699762 4.32126L4.66979 0.599378C5.22144 0.0822092 5.91097 -0.0783417 6.54509 0.033977L6.58014 0H18.7C20.6067 0 22 1.39333 22 3.3V18.7C22 20.6067 20.6067 22 18.7 22H3.3C1.39333 22 0 20.6067 0 18.7ZM8.37445 2.2C8.37445 2.20146 8.37445 2.20292 8.37445 2.20437L8.37444 5.92626C8.37443 7.14128 7.38946 8.12624 6.17444 8.12624H2.20443C2.20295 8.12624 2.20148 8.12624 2.2 8.12624V18.7C2.2 19.36 2.64 19.8 3.3 19.8H18.7C19.36 19.8 19.8 19.36 19.8 18.7V3.3C19.8 2.64 19.36 2.2 18.7 2.2H8.37445ZM6.17445 2.20436L6.17444 5.92625L2.20443 5.92624L6.17445 2.20436Z" fill="white"/>
</svg>
