<?xml version="1.0" encoding="utf-8"?>
<!-- Generator: Adobe Illustrator 24.3.0, SVG Export Plug-In . SVG Version: 6.00 Build 0)  -->
<svg version="1.1" id="Layer_1" xmlns="http://www.w3.org/2000/svg" xmlns:xlink="http://www.w3.org/1999/xlink" x="0px" y="0px"
	 viewBox="0 0 15 15" style="enable-background:new 0 0 15 15;" xml:space="preserve">
<style type="text/css">
	.st0{fill:#013660;}
	.st1{fill:#FFFFFF;}
</style>
<circle class="st0" cx="7.5" cy="7.5" r="7.3"/>
<g>
	<path class="st1" d="M8.6,4.7L7,10.5c-0.1,0.4-0.2,0.6-0.2,0.7c0,0.1,0,0.2,0.1,0.2C7,11.5,7,11.5,7.1,11.5c0.1,0,0.2,0,0.3-0.1
		c0.3-0.2,0.6-0.6,1-1.1l0.3,0.2c-0.4,0.6-0.8,1.1-1.3,1.5c-0.4,0.3-0.7,0.4-1.1,0.4c-0.2,0-0.4-0.1-0.6-0.2s-0.2-0.3-0.2-0.5
		s0.1-0.5,0.2-1L6.8,7C6.9,6.4,7,6,7,5.8c0-0.1,0-0.2-0.1-0.3C6.8,5.5,6.7,5.4,6.5,5.4c-0.1,0-0.4,0-0.8,0.1V5.2L8.6,4.7z M8.5,1.4
		c0.2,0,0.4,0.1,0.6,0.2C9.3,1.8,9.4,2,9.4,2.3c0,0.2-0.1,0.4-0.2,0.6C9,3,8.8,3.1,8.5,3.1C8.3,3.1,8.1,3,8,2.8
		C7.8,2.7,7.7,2.5,7.7,2.3c0-0.2,0.1-0.4,0.2-0.6S8.3,1.4,8.5,1.4z"/>
</g>
</svg>
